{"glyphs":{"0":{"ha":761,"x_min":83,"x_max":775,"o":"m 296 0 q 137 115 190 0 q 83 403 83 231 q 110 642 83 525 q 184 839 136 760 q 294 928 232 918 q 354 932 324 932 q 551 886 453 932 q 713 774 650 840 q 775 651 775 707 q 709 342 775 493 q 532 95 643 190 q 296 0 421 0 m 303 171 q 496 356 421 221 q 586 646 571 490 q 502 703 553 683 q 367 738 451 722 q 282 368 282 574 q 303 171 282 267 z "},"1":{"ha":546,"x_min":50,"x_max":551,"o":"m 289 653 q 219 588 247 611 q 175 565 192 565 q 124 591 154 565 q 72 651 94 617 q 50 713 50 686 q 116 790 50 739 q 261 885 182 842 q 372 928 340 928 q 447 904 404 928 q 521 847 490 881 q 551 785 551 813 q 517 629 551 753 q 465 414 478 488 q 439 207 454 354 q 418 49 428 97 q 390 0 408 0 q 311 21 356 0 q 235 71 267 42 q 203 122 203 100 q 223 256 203 151 q 274 476 243 360 q 342 667 306 592 l 319 682 l 289 653 z "},"2":{"ha":754,"x_min":22,"x_max":718,"o":"m 203 0 q 122 36 164 0 q 51 123 79 72 q 22 211 22 174 q 65 280 22 242 q 197 382 107 318 q 352 500 293 451 q 463 611 411 549 q 533 742 515 674 q 388 703 457 735 q 250 617 319 671 q 165 663 196 628 q 133 739 133 697 q 185 833 133 789 q 322 902 238 876 q 496 928 406 928 q 598 894 546 928 q 684 814 650 861 q 718 729 718 767 q 576 453 718 596 q 225 186 433 310 l 236 168 q 411 208 299 181 q 625 251 589 251 q 686 222 665 251 q 707 149 707 193 q 688 68 707 103 l 647 61 q 384 17 493 33 q 203 0 275 0 z "},"3":{"ha":778,"x_min":14,"x_max":750,"o":"m 289 0 q 162 24 226 0 q 56 85 97 49 q 14 157 14 122 q 60 233 14 203 q 186 263 107 263 q 238 260 219 263 q 281 135 251 193 q 433 202 375 160 q 525 321 490 244 q 435 333 483 333 q 349 325 399 333 q 328 322 339 324 q 306 321 317 321 q 286 324 292 321 q 231 379 256 339 q 207 460 207 419 q 232 496 207 481 q 313 535 257 511 q 473 618 408 574 q 568 742 538 663 q 421 703 490 735 q 282 617 351 671 q 197 663 228 628 q 165 739 165 697 q 217 833 165 789 q 353 902 269 876 q 528 928 438 928 q 630 894 578 928 q 716 814 682 861 q 750 729 750 767 q 671 578 750 649 q 451 463 592 507 l 457 447 q 601 429 535 450 q 706 375 667 408 q 744 313 744 342 q 674 163 744 236 q 497 45 604 90 q 289 0 390 0 z "},"4":{"ha":761,"x_min":58,"x_max":707,"o":"m 596 0 q 531 21 569 0 q 462 69 492 42 q 432 114 432 96 q 447 189 432 133 l 461 244 q 361 228 418 236 q 258 221 304 221 q 189 229 214 221 q 131 273 161 239 q 79 348 100 307 q 58 421 58 389 q 140 590 58 463 q 318 822 221 717 q 469 928 415 928 q 571 885 538 928 q 599 774 604 842 q 404 608 486 696 q 235 394 322 521 q 493 411 369 394 q 501 448 497 425 q 506 481 504 471 q 519 556 513 529 q 539 583 526 583 q 606 565 565 583 q 676 522 646 547 q 707 475 707 497 q 689 312 707 432 q 645 96 671 192 q 596 0 619 0 z "},"5":{"ha":750,"x_min":19,"x_max":746,"o":"m 336 599 q 370 559 336 579 q 481 506 404 539 q 657 415 594 456 q 719 321 719 374 q 651 178 719 254 q 481 51 582 103 q 296 0 381 0 q 169 29 235 0 q 62 101 104 58 q 19 182 19 144 q 60 274 19 235 q 167 313 100 313 q 238 301 197 313 q 283 160 253 213 q 414 235 357 189 q 488 335 471 281 q 397 379 460 351 q 269 441 322 413 q 176 503 217 469 q 145 551 156 519 q 135 614 135 582 q 153 715 135 643 q 199 843 171 786 q 256 900 226 900 q 693 928 503 900 q 733 885 719 913 q 746 826 746 858 q 735 771 746 799 q 706 725 724 743 q 367 710 507 722 q 336 599 336 644 z "},"6":{"ha":756,"x_min":51,"x_max":718,"o":"m 278 463 q 389 521 338 503 q 496 539 440 539 q 600 499 549 539 q 685 399 651 460 q 718 285 718 339 q 666 156 718 222 q 531 44 614 89 q 361 0 449 0 q 199 44 269 0 q 90 160 128 89 q 51 306 51 231 q 101 531 51 410 q 239 758 150 651 q 440 928 328 864 q 548 896 511 928 q 585 804 585 864 q 581 758 585 783 q 414 638 488 704 q 263 476 340 572 l 278 463 m 542 342 q 451 361 501 361 q 318 321 379 361 q 238 219 257 281 q 339 189 278 189 q 431 208 386 189 q 507 261 476 226 q 542 342 538 296 z "},"7":{"ha":682,"x_min":75,"x_max":697,"o":"m 503 736 q 307 721 447 738 q 161 708 204 708 q 126 713 136 708 q 90 762 106 719 q 75 847 75 804 q 82 894 75 874 q 104 919 89 914 q 157 925 117 925 q 249 921 199 925 q 296 918 268 919 q 360 917 324 917 q 506 925 431 917 q 561 929 542 929 q 576 928 572 929 q 632 890 604 922 q 678 819 660 858 q 697 753 697 779 q 672 676 697 726 q 593 529 647 626 q 513 382 539 436 q 426 186 485 324 q 363 44 388 89 q 314 0 339 0 q 250 28 288 0 q 185 92 213 56 q 157 150 157 128 q 203 241 157 164 q 357 497 249 318 q 503 736 474 685 z "},"8":{"ha":821,"x_min":44,"x_max":819,"o":"m 819 740 q 735 604 819 685 q 551 463 651 524 q 699 370 642 415 q 757 289 757 325 q 684 156 757 224 q 497 44 611 89 q 264 0 382 0 q 170 34 222 0 q 81 114 118 68 q 44 192 44 160 q 113 328 44 253 q 304 474 181 404 q 201 549 289 483 l 121 608 q 99 643 107 618 q 92 697 92 668 q 110 782 92 749 q 202 851 126 817 q 388 906 278 885 q 613 928 499 928 q 706 897 657 928 q 787 821 754 865 q 819 740 819 776 m 428 543 q 536 642 483 579 q 619 774 589 704 q 425 729 506 753 q 268 665 344 706 q 428 543 365 594 m 546 289 q 505 340 531 313 q 453 389 479 368 q 240 149 307 274 q 546 289 456 178 z "},"9":{"ha":757,"x_min":71,"x_max":749,"o":"m 485 457 q 268 379 367 379 q 174 410 219 379 q 100 486 129 442 q 71 567 71 531 q 126 735 71 650 q 273 874 182 819 q 463 928 364 928 q 610 886 544 928 q 712 778 675 844 q 749 639 749 711 q 686 411 749 536 q 519 175 624 286 q 297 0 415 64 q 193 31 233 -1 q 153 114 153 63 q 165 169 153 140 q 347 286 283 236 q 506 436 410 336 l 485 457 m 242 540 q 296 536 269 536 q 423 560 361 536 q 528 634 485 585 q 578 757 571 683 q 533 761 554 761 q 357 703 435 761 q 242 540 279 646 z "}," ":{"ha":378,"x_min":0,"x_max":0,"o":""},"અ":{"ha":1313,"x_min":-85,"x_max":1253,"o":"m 1114 335 q 1217 276 1182 315 q 1253 181 1253 236 q 1199 103 1253 146 q 1074 31 1144 61 q 967 0 1004 0 q 889 33 942 0 q 794 106 836 65 q 751 172 751 147 q 776 228 751 189 q 846 329 801 267 q 878 375 858 346 l 847 396 q 796 350 822 368 q 750 332 769 332 q 724 340 740 332 q 693 358 708 347 q 510 190 608 263 q 332 118 411 118 q 194 181 261 118 q 85 328 128 243 q 49 319 67 319 q -11 348 21 319 q -64 415 -43 376 q -83 482 -85 454 q -58 527 -83 501 q 1 572 -33 553 q 64 590 35 590 q 172 461 111 590 q 303 551 249 501 q 399 667 358 600 q 285 628 333 647 q 190 582 238 608 q 127 649 149 615 q 106 719 106 682 q 149 796 106 764 q 258 844 193 828 q 382 860 322 860 q 467 831 419 860 q 547 761 514 803 q 581 683 581 719 q 544 585 581 642 q 444 471 507 528 q 304 372 381 414 l 350 311 q 467 369 418 339 q 578 450 515 400 q 540 497 540 481 q 559 544 540 513 q 601 599 578 575 q 642 624 625 624 q 686 607 661 624 q 756 554 711 590 q 781 535 764 549 q 843 628 818 576 q 894 747 868 679 q 919 806 910 788 q 936 824 928 824 q 1013 797 961 824 q 1105 736 1064 769 q 1146 685 1146 703 q 1124 600 1146 660 q 1057 432 1101 540 q 974 222 1003 304 q 1053 278 1022 254 q 1114 335 1083 303 z "},"આ":{"ha":1856,"x_min":-85,"x_max":1796,"o":"m 1114 335 q 1217 276 1182 315 q 1253 181 1253 236 q 1199 103 1253 146 q 1074 31 1144 61 q 967 0 1004 0 q 889 33 942 0 q 794 106 836 65 q 751 172 751 147 q 776 228 751 189 q 846 329 801 267 q 878 375 858 346 l 847 396 q 796 350 822 368 q 750 332 769 332 q 724 340 740 332 q 693 358 708 347 q 510 190 608 263 q 332 118 411 118 q 194 181 261 118 q 85 328 128 243 q 49 319 67 319 q -11 348 21 319 q -64 415 -43 376 q -83 482 -85 454 q -58 527 -83 501 q 1 572 -33 553 q 64 590 35 590 q 172 461 111 590 q 303 551 249 501 q 399 667 358 600 q 285 628 333 647 q 190 582 238 608 q 127 649 149 615 q 106 719 106 682 q 149 796 106 764 q 258 844 193 828 q 382 860 322 860 q 467 831 419 860 q 547 761 514 803 q 581 683 581 719 q 544 585 581 642 q 444 471 507 528 q 304 372 381 414 l 350 311 q 467 369 418 339 q 578 450 515 400 q 540 497 540 481 q 559 544 540 513 q 601 599 578 575 q 642 624 625 624 q 686 607 661 624 q 756 554 711 590 q 781 535 764 549 q 843 628 818 576 q 894 747 868 679 q 919 806 910 788 q 936 824 928 824 q 1013 797 961 824 q 1105 736 1064 769 q 1146 685 1146 703 q 1124 600 1146 660 q 1057 432 1101 540 q 974 222 1003 304 q 1053 278 1022 254 q 1114 335 1083 303 m 1657 335 q 1760 276 1725 315 q 1796 181 1796 236 q 1742 103 1796 146 q 1617 31 1688 61 q 1510 0 1547 0 q 1433 32 1486 0 q 1337 105 1379 64 q 1294 174 1294 146 q 1324 288 1294 181 q 1390 540 1371 457 l 1401 588 q 1447 768 1431 713 q 1479 824 1464 824 q 1556 797 1506 824 q 1648 736 1607 769 q 1689 685 1689 703 q 1667 600 1689 660 q 1600 432 1644 540 q 1517 222 1546 304 q 1596 278 1565 254 q 1657 335 1626 303 z "},"ઇ":{"ha":832,"x_min":19,"x_max":804,"o":"m 443 999 q 504 1099 443 1049 q 642 1185 565 1149 q 760 1122 717 1182 q 801 982 804 1061 q 649 879 707 939 q 751 713 711 796 q 792 518 792 629 q 715 292 792 415 q 521 85 639 169 q 286 0 403 0 q 174 40 238 0 q 65 135 111 81 q 19 229 19 190 q 60 324 19 272 q 168 444 100 376 l 190 467 q 77 549 122 506 q 32 635 32 593 q 85 720 32 671 q 217 810 138 769 q 375 861 297 850 q 456 816 428 853 q 485 731 485 779 q 476 681 485 706 q 369 641 417 663 q 265 582 321 619 q 365 531 297 561 q 420 502 404 513 q 436 478 436 492 q 418 435 436 460 q 356 361 400 411 q 276 267 308 310 q 226 182 243 225 q 510 355 418 235 q 601 654 601 475 q 576 770 601 719 q 503 885 550 821 q 458 949 472 924 q 443 999 443 975 z "},"ઈ":{"ha":860,"x_min":19,"x_max":925,"o":"m 438 1047 q 457 1130 438 1090 q 514 1194 476 1169 q 603 1219 551 1219 q 733 1181 656 1219 q 868 1087 811 1142 q 925 988 925 1032 q 879 838 925 900 q 758 867 804 839 q 694 939 711 896 q 724 1024 724 988 q 717 1058 724 1040 q 655 1024 681 1054 q 629 958 629 994 q 646 893 629 928 q 699 801 663 858 q 778 658 750 722 q 807 518 807 593 q 726 295 807 418 q 526 86 646 172 q 294 0 406 0 q 178 41 243 0 q 66 137 113 82 q 19 229 19 192 q 60 324 19 272 q 168 444 100 376 l 190 467 q 77 549 122 506 q 32 635 32 593 q 85 720 32 671 q 217 810 138 769 q 375 861 297 850 q 456 816 428 853 q 485 731 485 779 q 476 681 485 706 q 369 641 417 663 q 265 582 321 619 q 365 531 297 561 q 420 502 404 513 q 436 478 436 492 q 418 435 436 460 q 361 369 400 411 q 280 274 313 317 q 226 182 247 231 q 437 281 349 215 q 571 431 525 346 q 617 613 617 517 q 594 717 617 667 q 525 838 571 768 q 459 953 481 907 q 438 1047 438 999 z "},"ઉ":{"ha":913,"x_min":-14,"x_max":1043,"o":"m 418 -1 q 218 60 319 -1 q 51 214 117 121 q -14 392 -14 307 q 72 759 -14 556 q 290 1105 158 963 q 553 1247 422 1247 q 592 1228 574 1247 q 639 1168 611 1208 q 691 1101 669 1126 q 742 1057 713 1075 q 919 1181 846 1115 q 1011 1117 979 1164 q 1043 1003 1043 1071 q 1033 924 1043 963 q 936 885 979 896 q 846 875 893 875 q 717 942 799 875 q 563 1085 635 1008 q 367 838 439 949 q 256 591 294 728 q 218 269 218 454 q 376 238 301 238 q 510 265 443 238 q 406 363 443 322 q 369 433 369 404 q 401 481 369 458 q 504 538 433 503 q 635 610 585 576 q 703 686 685 643 q 503 621 594 668 q 445 681 467 647 q 424 746 424 714 q 494 829 424 799 q 676 860 564 860 q 774 829 722 860 q 860 754 825 799 q 896 672 896 710 q 812 542 896 607 q 604 429 728 476 q 739 324 688 378 q 790 218 790 269 q 735 125 790 178 q 592 35 679 72 q 418 -1 506 -1 z "},"ઊ":{"ha":1382,"x_min":-11,"x_max":1322,"o":"m 203 254 q 413 222 289 222 q 536 233 481 222 q 416 340 472 279 q 360 433 360 400 q 390 480 360 458 q 492 538 421 501 q 619 610 571 576 q 686 686 668 643 q 585 660 638 678 q 492 621 533 643 q 436 681 457 647 q 415 746 415 714 q 485 829 417 799 q 661 860 553 860 q 756 830 706 860 q 839 756 806 800 q 872 672 872 711 q 790 542 872 607 q 588 429 708 476 q 717 324 668 378 q 767 218 767 269 q 710 125 765 178 q 568 35 656 72 q 390 -1 481 -1 q 211 59 306 -1 q 53 211 117 119 q -11 390 -11 303 q 83 792 -11 594 q 353 1115 178 989 q 756 1242 528 1242 q 972 1176 868 1242 q 1138 1013 1075 1110 q 1201 831 1201 915 q 1166 585 1201 711 q 1068 292 1131 458 l 1043 222 q 1122 278 1092 254 q 1183 335 1153 303 q 1287 276 1251 315 q 1322 181 1322 236 q 1268 103 1322 146 q 1144 31 1214 61 q 1036 0 1074 0 q 959 32 1013 0 q 863 105 906 64 q 821 174 821 146 q 885 422 821 192 q 917 540 897 472 q 960 711 946 646 q 974 832 974 776 q 942 960 974 904 q 842 1060 910 1017 q 465 936 601 1043 q 271 660 328 829 q 203 254 214 492 z "},"ઋ":{"ha":1414,"x_min":13,"x_max":1357,"o":"m 1033 478 q 710 322 921 404 q 671 222 678 243 q 765 289 714 244 q 865 239 829 278 q 901 146 901 200 q 860 82 901 117 q 760 24 818 47 q 664 0 703 0 q 588 31 638 0 q 501 104 539 63 q 463 174 463 146 q 474 213 463 188 q 500 261 486 239 l 482 276 q 438 240 460 257 q 396 206 415 222 l 176 24 q 56 68 99 29 q 13 165 13 107 q 32 244 13 201 q 122 286 82 268 q 189 318 161 304 q 321 380 256 349 q 432 438 386 411 q 308 618 389 557 q 233 576 275 604 q 181 542 190 547 q 72 603 110 557 q 38 728 33 650 q 131 802 68 767 q 246 838 194 838 q 411 749 343 838 q 524 490 479 660 l 550 506 l 565 568 l 578 619 q 617 777 603 731 q 647 824 631 824 q 721 799 674 824 q 806 744 768 775 q 843 694 843 713 q 782 503 843 656 q 847 535 817 522 q 929 576 910 564 q 901 639 901 611 q 937 701 901 661 q 1018 771 972 740 q 1092 801 1064 801 q 1146 778 1114 801 q 1201 722 1178 754 q 1225 668 1225 690 q 1203 615 1225 644 q 1140 554 1181 585 q 1292 426 1206 486 q 1343 384 1329 400 q 1357 343 1357 368 q 1320 210 1357 278 q 1223 97 1283 142 q 1097 53 1163 53 q 1001 90 1039 53 q 964 179 964 126 q 967 207 964 188 q 1089 272 1042 239 q 1169 354 1136 306 q 1033 478 1088 413 z "},"એ":{"ha":1313,"x_min":-85,"x_max":1253,"o":"m 736 1008 q 606 1069 651 1014 q 567 1201 561 1124 q 670 1278 615 1251 q 778 1306 725 1306 q 897 1243 825 1306 q 1038 1092 968 1181 q 1149 929 1107 1003 q 1124 901 1144 911 q 1082 892 1104 892 q 875 1115 1015 1001 q 801 1067 832 1090 q 736 1008 769 1043 m 1114 335 q 1217 276 1182 315 q 1253 181 1253 236 q 1199 103 1253 146 q 1074 31 1144 61 q 967 0 1004 0 q 889 33 942 0 q 794 106 836 65 q 751 172 751 147 q 776 228 751 189 q 846 329 801 267 q 878 375 858 346 l 847 396 q 796 350 822 368 q 750 332 769 332 q 724 340 740 332 q 693 358 708 347 q 510 190 608 263 q 332 118 411 118 q 194 181 261 118 q 85 328 128 243 q 49 319 67 319 q -11 348 21 319 q -64 415 -43 376 q -83 482 -85 454 q -58 527 -83 501 q 1 572 -33 553 q 64 590 35 590 q 172 461 111 590 q 303 551 249 501 q 399 667 358 600 q 285 628 333 647 q 190 582 238 608 q 127 649 149 615 q 106 719 106 682 q 149 796 106 764 q 258 844 193 828 q 382 860 322 860 q 467 831 419 860 q 547 761 514 803 q 581 683 581 719 q 544 585 581 642 q 444 471 507 528 q 304 372 381 414 l 350 311 q 467 369 418 339 q 578 450 515 400 q 540 497 540 481 q 559 544 540 513 q 601 599 578 575 q 642 624 625 624 q 686 607 661 624 q 756 554 711 590 q 781 535 764 549 q 843 628 818 576 q 894 747 868 679 q 919 806 910 788 q 936 824 928 824 q 1013 797 961 824 q 1105 736 1064 769 q 1146 685 1146 703 q 1124 600 1146 660 q 1057 432 1101 540 q 974 222 1003 304 q 1053 278 1022 254 q 1114 335 1083 303 z "},"ઐ":{"ha":1313,"x_min":-85,"x_max":1253,"o":"m 713 1153 q 611 1200 653 1157 q 569 1297 569 1243 q 572 1321 569 1304 q 659 1373 615 1356 q 753 1390 703 1390 q 886 1333 804 1390 q 1043 1170 968 1275 q 1153 931 1118 1065 q 1124 902 1147 914 q 1081 893 1101 890 q 1003 963 1049 928 q 914 1018 957 997 q 842 935 881 992 q 727 972 765 936 q 690 1075 689 1008 q 835 1147 757 1147 q 1042 1011 903 1147 l 1057 1024 q 958 1147 1018 1088 q 836 1246 899 1207 q 778 1210 803 1229 q 713 1153 754 1190 m 1114 335 q 1217 276 1182 315 q 1253 181 1253 236 q 1199 103 1253 146 q 1074 31 1144 61 q 967 0 1004 0 q 889 33 942 0 q 794 106 836 65 q 751 172 751 147 q 776 228 751 189 q 846 329 801 267 q 878 375 858 346 l 847 396 q 796 350 822 368 q 750 332 769 332 q 724 340 740 332 q 693 358 708 347 q 510 190 608 263 q 332 118 411 118 q 194 181 261 118 q 85 328 128 243 q 49 319 67 319 q -11 348 21 319 q -64 415 -43 376 q -83 482 -85 454 q -58 527 -83 501 q 1 572 -33 553 q 64 590 35 590 q 172 461 111 590 q 303 551 249 501 q 399 667 358 600 q 285 628 333 647 q 190 582 238 608 q 127 649 149 615 q 106 719 106 682 q 149 796 106 764 q 258 844 193 828 q 382 860 322 860 q 467 831 419 860 q 547 761 514 803 q 581 683 581 719 q 544 585 581 642 q 444 471 507 528 q 304 372 381 414 l 350 311 q 467 369 418 339 q 578 450 515 400 q 540 497 540 481 q 559 544 540 513 q 601 599 578 575 q 642 624 625 624 q 686 607 661 624 q 756 554 711 590 q 781 535 764 549 q 843 628 818 576 q 894 747 868 679 q 919 806 910 788 q 936 824 928 824 q 1013 797 961 824 q 1105 736 1064 769 q 1146 685 1146 703 q 1124 600 1146 660 q 1057 432 1101 540 q 974 222 1003 304 q 1053 278 1022 254 q 1114 335 1083 303 z "},"ઓ":{"ha":1856,"x_min":-85,"x_max":1796,"o":"m 1625 892 q 1418 1115 1558 1001 q 1344 1067 1375 1090 q 1279 1008 1313 1043 q 1149 1069 1194 1014 q 1110 1201 1104 1124 q 1213 1278 1158 1251 q 1321 1306 1268 1306 q 1440 1243 1368 1306 q 1581 1092 1511 1181 q 1692 929 1650 1003 q 1667 901 1688 911 q 1625 892 1647 892 m 1114 335 q 1217 276 1182 315 q 1253 181 1253 236 q 1199 103 1253 146 q 1074 31 1144 61 q 967 0 1004 0 q 889 33 942 0 q 794 106 836 65 q 751 172 751 147 q 776 228 751 189 q 846 329 801 267 q 878 375 858 346 l 847 396 q 796 350 822 368 q 750 332 769 332 q 724 340 740 332 q 693 358 708 347 q 510 190 608 263 q 332 118 411 118 q 194 181 261 118 q 85 328 128 243 q 49 319 67 319 q -11 348 21 319 q -64 415 -43 376 q -83 482 -85 454 q -58 527 -83 501 q 1 572 -33 553 q 64 590 35 590 q 172 461 111 590 q 303 551 249 501 q 399 667 358 600 q 285 628 333 647 q 190 582 238 608 q 127 649 149 615 q 106 719 106 682 q 149 796 106 764 q 258 844 193 828 q 382 860 322 860 q 467 831 419 860 q 547 761 514 803 q 581 683 581 719 q 544 585 581 642 q 444 471 507 528 q 304 372 381 414 l 350 311 q 467 369 418 339 q 578 450 515 400 q 540 497 540 481 q 559 544 540 513 q 601 599 578 575 q 642 624 625 624 q 686 607 661 624 q 756 554 711 590 q 781 535 764 549 q 843 628 818 576 q 894 747 868 679 q 919 806 910 788 q 936 824 928 824 q 1013 797 961 824 q 1105 736 1064 769 q 1146 685 1146 703 q 1124 600 1146 660 q 1057 432 1101 540 q 974 222 1003 304 q 1053 278 1022 254 q 1114 335 1083 303 m 1657 335 q 1760 276 1725 315 q 1796 181 1796 236 q 1742 103 1796 146 q 1617 31 1688 61 q 1510 0 1547 0 q 1433 32 1486 0 q 1337 105 1379 64 q 1294 174 1294 146 q 1324 288 1294 181 q 1390 540 1371 457 l 1401 588 q 1447 768 1431 713 q 1479 824 1464 824 q 1556 797 1506 824 q 1648 736 1607 769 q 1689 685 1689 703 q 1667 600 1689 660 q 1600 432 1644 540 q 1517 222 1546 304 q 1596 278 1565 254 q 1657 335 1626 303 z "},"ઔ":{"ha":1856,"x_min":-85,"x_max":1796,"o":"m 1457 1018 q 1385 935 1424 992 q 1270 972 1308 936 q 1233 1075 1232 1008 q 1378 1147 1300 1147 q 1585 1011 1446 1147 l 1600 1024 q 1501 1147 1561 1088 q 1379 1246 1442 1207 q 1322 1210 1346 1229 q 1256 1153 1297 1190 q 1154 1200 1196 1157 q 1113 1297 1113 1243 q 1115 1321 1113 1304 q 1202 1373 1158 1356 q 1296 1390 1246 1390 q 1429 1333 1347 1390 q 1586 1170 1511 1275 q 1696 931 1661 1065 q 1667 902 1690 914 q 1624 893 1644 890 q 1546 963 1592 928 q 1457 1018 1500 997 m 1114 335 q 1217 276 1182 315 q 1253 181 1253 236 q 1199 103 1253 146 q 1074 31 1144 61 q 967 0 1004 0 q 889 33 942 0 q 794 106 836 65 q 751 172 751 147 q 776 228 751 189 q 846 329 801 267 q 878 375 858 346 l 847 396 q 796 350 822 368 q 750 332 769 332 q 724 340 740 332 q 693 358 708 347 q 510 190 608 263 q 332 118 411 118 q 194 181 261 118 q 85 328 128 243 q 49 319 67 319 q -11 348 21 319 q -64 415 -43 376 q -83 482 -85 454 q -58 527 -83 501 q 1 572 -33 553 q 64 590 35 590 q 172 461 111 590 q 303 551 249 501 q 399 667 358 600 q 285 628 333 647 q 190 582 238 608 q 127 649 149 615 q 106 719 106 682 q 149 796 106 764 q 258 844 193 828 q 382 860 322 860 q 467 831 419 860 q 547 761 514 803 q 581 683 581 719 q 544 585 581 642 q 444 471 507 528 q 304 372 381 414 l 350 311 q 467 369 418 339 q 578 450 515 400 q 540 497 540 481 q 559 544 540 513 q 601 599 578 575 q 642 624 625 624 q 686 607 661 624 q 756 554 711 590 q 781 535 764 549 q 843 628 818 576 q 894 747 868 679 q 919 806 910 788 q 936 824 928 824 q 1013 797 961 824 q 1105 736 1064 769 q 1146 685 1146 703 q 1124 600 1146 660 q 1057 432 1101 540 q 974 222 1003 304 q 1053 278 1022 254 q 1114 335 1083 303 m 1657 335 q 1760 276 1725 315 q 1796 181 1796 236 q 1742 103 1796 146 q 1617 31 1688 61 q 1510 0 1547 0 q 1433 32 1486 0 q 1337 105 1379 64 q 1294 174 1294 146 q 1324 288 1294 181 q 1390 540 1371 457 l 1401 588 q 1447 768 1431 713 q 1479 824 1464 824 q 1556 797 1506 824 q 1648 736 1607 769 q 1689 685 1689 703 q 1667 600 1689 660 q 1600 432 1644 540 q 1517 222 1546 304 q 1596 278 1565 254 q 1657 335 1626 303 z "},"ઍ":{"ha":1313,"x_min":-85,"x_max":1319,"o":"m 1214 1122 q 1319 974 1319 1083 q 1314 919 1319 946 q 1042 860 1218 860 q 930 916 992 860 q 817 1055 868 972 q 749 1210 765 1138 q 833 1256 785 1256 q 876 1247 856 1256 q 924 1137 901 1183 q 979 1039 947 1090 q 1099 1069 1043 1050 q 1214 1122 1154 1089 m 1114 335 q 1217 276 1182 315 q 1253 181 1253 236 q 1199 103 1253 146 q 1074 31 1144 61 q 967 0 1004 0 q 889 33 942 0 q 794 106 836 65 q 751 172 751 147 q 776 228 751 189 q 846 329 801 267 q 878 375 858 346 l 847 396 q 796 350 822 368 q 750 332 769 332 q 724 340 740 332 q 693 358 708 347 q 510 190 608 263 q 332 118 411 118 q 194 181 261 118 q 85 328 128 243 q 49 319 67 319 q -11 348 21 319 q -64 415 -43 376 q -83 482 -85 454 q -58 527 -83 501 q 1 572 -33 553 q 64 590 35 590 q 172 461 111 590 q 303 551 249 501 q 399 667 358 600 q 285 628 333 647 q 190 582 238 608 q 127 649 149 615 q 106 719 106 682 q 149 796 106 764 q 258 844 193 828 q 382 860 322 860 q 467 831 419 860 q 547 761 514 803 q 581 683 581 719 q 544 585 581 642 q 444 471 507 528 q 304 372 381 414 l 350 311 q 467 369 418 339 q 578 450 515 400 q 540 497 540 481 q 559 544 540 513 q 601 599 578 575 q 642 624 625 624 q 686 607 661 624 q 756 554 711 590 q 781 535 764 549 q 843 628 818 576 q 894 747 868 679 q 919 806 910 788 q 936 824 928 824 q 1013 797 961 824 q 1105 736 1064 769 q 1146 685 1146 703 q 1124 600 1146 660 q 1057 432 1101 540 q 974 222 1003 304 q 1053 278 1022 254 q 1114 335 1083 303 z "},"ઑ":{"ha":1856,"x_min":-85,"x_max":1863,"o":"m 1757 1122 q 1863 974 1863 1083 q 1857 919 1863 946 q 1585 860 1761 860 q 1473 916 1535 860 q 1360 1055 1411 972 q 1292 1210 1308 1138 q 1376 1256 1326 1256 q 1419 1247 1399 1256 q 1467 1137 1444 1183 q 1522 1039 1490 1090 q 1642 1069 1586 1050 q 1757 1122 1697 1089 m 1114 335 q 1217 276 1182 315 q 1253 181 1253 236 q 1199 103 1253 146 q 1074 31 1144 61 q 967 0 1004 0 q 889 33 942 0 q 794 106 836 65 q 751 172 751 147 q 776 228 751 189 q 846 329 801 267 q 878 375 858 346 l 847 396 q 796 350 822 368 q 750 332 769 332 q 724 340 740 332 q 693 358 708 347 q 510 190 608 263 q 332 118 411 118 q 194 181 261 118 q 85 328 128 243 q 49 319 67 319 q -11 348 21 319 q -64 415 -43 376 q -83 482 -85 454 q -58 527 -83 501 q 1 572 -33 553 q 64 590 35 590 q 172 461 111 590 q 303 551 249 501 q 399 667 358 600 q 285 628 333 647 q 190 582 238 608 q 127 649 149 615 q 106 719 106 682 q 149 796 106 764 q 258 844 193 828 q 382 860 322 860 q 467 831 419 860 q 547 761 514 803 q 581 683 581 719 q 544 585 581 642 q 444 471 507 528 q 304 372 381 414 l 350 311 q 467 369 418 339 q 578 450 515 400 q 540 497 540 481 q 559 544 540 513 q 601 599 578 575 q 642 624 625 624 q 686 607 661 624 q 756 554 711 590 q 781 535 764 549 q 843 628 818 576 q 894 747 868 679 q 919 806 910 788 q 936 824 928 824 q 1013 797 961 824 q 1105 736 1064 769 q 1146 685 1146 703 q 1124 600 1146 660 q 1057 432 1101 540 q 974 222 1003 304 q 1053 278 1022 254 q 1114 335 1083 303 m 1657 335 q 1760 276 1725 315 q 1796 181 1796 236 q 1742 103 1796 146 q 1617 31 1688 61 q 1510 0 1547 0 q 1433 32 1486 0 q 1337 105 1379 64 q 1294 174 1294 146 q 1324 288 1294 181 q 1390 540 1371 457 l 1401 588 q 1447 768 1431 713 q 1479 824 1464 824 q 1556 797 1506 824 q 1648 736 1607 769 q 1689 685 1689 703 q 1667 600 1689 660 q 1600 432 1644 540 q 1517 222 1546 304 q 1596 278 1565 254 q 1657 335 1626 303 z "},"ા":{"ha":543,"x_min":-18,"x_max":483,"o":"m 197 0 q 120 32 174 0 q 24 105 67 64 q -18 174 -18 146 q 11 288 -18 181 q 78 540 58 457 l 89 588 q 135 768 118 713 q 167 824 151 824 q 244 797 193 824 q 335 736 294 769 q 376 685 376 703 q 354 600 376 660 q 288 432 332 540 q 204 222 233 304 q 283 278 253 254 q 344 335 314 303 q 448 276 413 315 q 483 181 483 236 q 429 103 483 146 q 305 31 375 61 q 197 0 235 0 z "},"િ":{"ha":550,"x_min":-18,"x_max":1015,"o":"m 385 693 q 204 222 300 489 q 283 278 253 254 q 344 335 314 303 q 448 276 413 315 q 483 181 483 236 q 429 103 483 146 q 305 31 375 61 q 197 0 235 0 q 120 32 174 0 q 24 105 67 64 q -18 174 -18 146 q 11 288 -18 181 q 78 540 58 457 q 189 808 140 808 q 220 803 203 808 q 260 790 238 799 l 278 822 q 191 903 219 853 q 163 1014 163 953 q 208 1179 163 1096 q 329 1317 253 1263 q 496 1372 406 1372 q 548 1347 528 1372 q 596 1263 568 1321 q 649 1167 624 1206 q 711 1099 674 1128 q 883 1222 808 1154 q 981 1154 946 1204 q 1015 1033 1015 1104 q 1008 965 1015 1004 q 912 927 954 938 q 822 917 869 917 q 672 993 742 917 q 553 1172 603 1069 q 418 1039 465 1126 q 371 831 371 951 q 385 693 371 763 z "},"ી":{"ha":544,"x_min":-208,"x_max":485,"o":"m 189 1072 q -14 974 86 1061 q 51 869 15 913 q -8 824 25 840 q -75 807 -42 807 q -171 847 -133 807 q -208 951 -208 888 q -153 1086 -208 1015 q -15 1205 -99 1157 q 147 1253 68 1253 q 260 1205 204 1253 q 351 1088 315 1157 q 388 961 388 1019 q 362 765 388 899 q 294 483 336 632 q 206 222 251 333 q 285 278 254 254 q 346 335 315 303 q 449 276 414 315 q 485 181 485 236 q 431 103 485 146 q 306 31 376 61 q 199 0 236 0 q 122 32 175 0 q 26 105 68 64 q -17 174 -17 146 q 36 369 -17 194 q 148 767 104 596 q 192 1038 192 938 q 189 1072 192 1050 z "},"ુ":{"ha":1,"x_min":-979,"x_max":-369,"o":"m -564 29 q -478 -3 -524 29 q -401 -85 -432 -36 q -369 -175 -369 -133 q -415 -278 -369 -231 q -537 -356 -461 -326 q -700 -385 -614 -385 q -815 -356 -758 -385 q -915 -281 -872 -328 q -979 -183 -958 -235 q -940 -114 -968 -140 q -872 -87 -912 -87 q -821 -99 -844 -87 q -733 -286 -789 -214 q -581 -244 -636 -269 q -679 -212 -629 -235 q -725 -160 -704 -194 q -746 -104 -746 -125 q -716 -45 -746 -76 q -642 8 -686 -14 q -564 29 -599 29 m -521 -206 q -472 -151 -493 -181 q -506 -114 -487 -126 q -553 -101 -525 -101 q -595 -116 -576 -101 q -614 -147 -614 -131 q -587 -176 -614 -160 q -521 -206 -560 -193 z "},"ૂ":{"ha":0,"x_min":-776,"x_max":-46,"o":"m -186 -110 q -82 -153 -118 -117 q -46 -250 -46 -190 q -53 -307 -46 -272 q -197 -361 -132 -361 q -294 -330 -242 -361 q -406 -243 -346 -299 q -497 -329 -447 -297 q -596 -361 -547 -361 q -674 -334 -631 -361 q -747 -268 -717 -307 q -776 -199 -776 -229 q -737 -106 -776 -160 q -646 -11 -699 -51 q -554 29 -593 29 q -496 2 -525 29 q -414 -86 -467 -25 q -307 -199 -350 -164 q -186 -110 -239 -162 m -637 -246 q -476 -171 -547 -226 l -539 -101 q -637 -246 -615 -158 z "},"ૃ":{"ha":0,"x_min":-653,"x_max":-200,"o":"m -275 -240 q -219 -274 -237 -250 q -200 -329 -200 -297 q -242 -385 -200 -358 q -346 -427 -283 -411 q -467 -443 -408 -443 q -553 -431 -522 -443 q -622 -372 -592 -415 q -653 -290 -653 -328 q -595 -178 -653 -242 q -437 -53 -537 -114 q -356 -77 -383 -53 q -329 -147 -329 -101 q -331 -167 -329 -160 q -437 -228 -396 -194 q -528 -328 -479 -262 q -391 -298 -446 -317 q -275 -240 -336 -279 z "},"ે":{"ha":0,"x_min":-751,"x_max":-164,"o":"m -746 1201 q -642 1278 -697 1251 q -535 1306 -587 1306 q -416 1243 -487 1306 q -275 1092 -344 1181 q -164 929 -206 1003 q -188 901 -168 911 q -231 892 -208 892 q -437 1115 -297 1001 q -512 1067 -481 1090 q -576 1008 -543 1043 q -706 1069 -661 1014 q -746 1201 -751 1124 z "},"ૈ":{"ha":0,"x_min":-743,"x_max":-160,"o":"m -256 1024 q -354 1147 -294 1088 q -476 1246 -414 1207 q -534 1210 -510 1229 q -600 1153 -558 1190 q -701 1200 -660 1157 q -743 1297 -743 1243 q -740 1321 -743 1304 q -653 1373 -697 1356 q -560 1390 -610 1390 q -426 1333 -508 1390 q -269 1170 -344 1275 q -160 931 -194 1065 q -188 902 -165 914 q -232 893 -211 890 q -310 963 -264 928 q -399 1018 -356 997 q -471 935 -432 992 q -585 972 -547 936 q -622 1075 -624 1008 q -478 1147 -556 1147 q -271 1011 -410 1147 l -256 1024 z "},"ો":{"ha":543,"x_min":-208,"x_max":483,"o":"m -203 1201 q -99 1278 -154 1251 q 8 1306 -44 1306 q 127 1243 56 1306 q 268 1092 199 1181 q 379 929 338 1003 q 355 901 375 911 q 313 892 335 892 q 106 1115 246 1001 q 31 1067 63 1090 q -33 1008 0 1043 q -163 1069 -118 1014 q -203 1201 -208 1124 m 197 0 q 120 32 174 0 q 24 105 67 64 q -18 174 -18 146 q 11 288 -18 181 q 78 540 58 457 l 89 588 q 135 768 118 713 q 167 824 151 824 q 244 797 193 824 q 335 736 294 769 q 376 685 376 703 q 354 600 376 660 q 288 432 332 540 q 204 222 233 304 q 283 278 253 254 q 344 335 314 303 q 448 276 413 315 q 483 181 483 236 q 429 103 483 146 q 305 31 375 61 q 197 0 235 0 z "},"ૌ":{"ha":543,"x_min":-200,"x_max":483,"o":"m 288 1024 q 189 1147 249 1088 q 67 1246 129 1207 q 9 1210 33 1229 q -57 1153 -15 1190 q -158 1200 -117 1157 q -200 1297 -200 1243 q -197 1321 -200 1304 q -110 1373 -154 1356 q -17 1390 -67 1390 q 117 1333 35 1390 q 274 1170 199 1275 q 383 931 349 1065 q 355 902 378 914 q 311 893 332 890 q 233 963 279 928 q 144 1018 188 997 q 72 935 111 992 q -42 972 -4 936 q -79 1075 -81 1008 q 65 1147 -12 1147 q 272 1011 133 1147 l 288 1024 m 197 0 q 120 32 174 0 q 24 105 67 64 q -18 174 -18 146 q 11 288 -18 181 q 78 540 58 457 l 89 588 q 135 768 118 713 q 167 824 151 824 q 244 797 193 824 q 335 736 294 769 q 376 685 376 703 q 354 600 376 660 q 288 432 332 540 q 204 222 233 304 q 283 278 253 254 q 344 335 314 303 q 448 276 413 315 q 483 181 483 236 q 429 103 483 146 q 305 31 375 61 q 197 0 235 0 z "},"ૅ":{"ha":0,"x_min":-564,"x_max":7,"o":"m -271 860 q -383 916 -321 860 q -496 1055 -444 972 q -564 1210 -547 1138 q -479 1256 -529 1256 q -436 1247 -457 1256 q -388 1137 -411 1183 q -333 1039 -365 1090 q -214 1069 -269 1050 q -99 1122 -158 1089 q 7 974 7 1083 q 1 919 7 946 q -271 860 -94 860 z "},"ૉ":{"ha":543,"x_min":-21,"x_max":550,"o":"m 272 860 q 160 916 222 860 q 47 1055 99 972 q -21 1210 -4 1138 q 64 1256 15 1256 q 107 1247 86 1256 q 155 1137 132 1183 q 210 1039 178 1090 q 329 1069 274 1050 q 444 1122 385 1089 q 550 974 550 1083 q 544 919 550 946 q 272 860 449 860 m 197 0 q 120 32 174 0 q 24 105 67 64 q -18 174 -18 146 q 11 288 -18 181 q 78 540 58 457 l 89 588 q 135 768 118 713 q 167 824 151 824 q 244 797 193 824 q 335 736 294 769 q 376 685 376 703 q 354 600 376 660 q 288 432 332 540 q 204 222 233 304 q 283 278 253 254 q 344 335 314 303 q 448 276 413 315 q 483 181 483 236 q 429 103 483 146 q 305 31 375 61 q 197 0 235 0 z "},"ક":{"ha":824,"x_min":10,"x_max":768,"o":"m 699 610 q 749 563 731 592 q 768 501 768 535 q 750 438 768 468 q 544 399 646 419 q 666 343 617 379 q 715 271 715 307 q 651 144 715 207 q 490 40 588 81 q 299 0 393 0 q 169 23 238 0 q 56 83 101 46 q 10 157 10 119 q 56 233 10 203 q 182 263 103 263 q 233 260 215 263 q 276 135 247 193 q 408 205 357 158 q 460 300 460 251 q 449 333 460 317 q 417 371 439 350 q 96 301 263 339 q 47 340 65 311 q 28 403 28 369 q 54 472 28 442 q 271 501 165 483 q 162 564 207 525 q 117 635 117 603 q 178 731 117 681 q 342 817 239 781 q 565 863 446 854 q 636 817 610 851 q 663 740 663 783 q 643 672 663 704 q 443 630 515 660 q 371 556 371 600 q 388 524 371 539 q 699 610 536 556 z "},"ખ":{"ha":1179,"x_min":-74,"x_max":1119,"o":"m 803 824 q 880 797 829 824 q 972 736 931 769 q 1013 685 1013 703 q 990 600 1013 660 q 924 432 968 540 q 840 222 869 304 q 919 278 889 254 q 981 335 950 303 q 1084 276 1049 315 q 1119 181 1119 236 q 1065 103 1119 146 q 941 31 1011 61 q 833 0 871 0 q 756 33 808 0 q 660 106 703 65 q 618 172 618 147 q 643 228 618 189 q 713 329 668 267 q 744 375 725 346 l 714 396 q 663 349 693 369 q 615 328 633 328 q 539 369 588 328 q 444 264 504 318 q 325 174 383 210 q 240 138 267 138 q 160 165 211 138 q 67 227 108 193 q 26 279 26 261 q 43 378 26 310 q 76 488 60 446 l 221 617 l 190 653 q 124 603 165 636 l 57 553 q -34 619 6 571 q -74 711 -74 667 q -31 781 -74 746 q 76 838 13 815 q 194 860 140 860 q 269 835 219 860 q 358 779 319 811 q 396 724 396 747 q 345 578 396 682 q 238 386 294 474 l 288 350 q 436 446 382 388 q 393 486 408 467 q 378 518 378 506 q 397 564 378 533 q 443 619 417 594 q 492 643 469 643 q 529 628 508 643 q 589 578 550 613 l 644 529 q 713 631 688 578 q 764 753 739 683 q 786 807 778 790 q 803 824 794 824 z "},"ગ":{"ha":1057,"x_min":-56,"x_max":997,"o":"m 157 228 q 338 288 253 228 q 474 444 422 347 q 525 644 525 540 q 488 736 525 685 q 393 824 450 788 q 282 860 336 860 q 167 839 224 860 q 73 783 110 818 q 36 706 36 747 q 119 578 36 633 q 220 634 175 614 q 329 671 265 654 q 283 500 328 578 q 151 376 238 422 q 134 416 149 382 q 111 489 119 450 l 88 490 q -19 460 18 490 q -56 386 -56 431 q -24 318 -56 356 q 56 254 7 281 q 157 228 106 228 m 711 0 q 634 32 688 0 q 538 105 581 64 q 496 174 496 146 q 525 288 496 181 q 592 540 572 457 l 603 588 q 649 768 632 713 q 681 824 665 824 q 758 797 707 824 q 849 736 808 769 q 890 685 890 703 q 868 600 890 660 q 801 432 846 540 q 718 222 747 304 q 797 278 767 254 q 858 335 828 303 q 962 276 926 315 q 997 181 997 236 q 943 103 997 146 q 819 31 889 61 q 711 0 749 0 z "},"ઘ":{"ha":990,"x_min":-37,"x_max":931,"o":"m 614 824 q 691 797 640 824 q 783 736 742 769 q 824 685 824 703 q 801 600 824 660 q 735 432 779 540 q 651 222 681 304 q 731 278 700 254 q 792 335 761 303 q 895 276 860 315 q 931 181 931 236 q 876 103 931 146 q 752 31 822 61 q 644 0 682 0 q 567 32 619 0 q 472 106 514 64 q 429 174 429 147 q 447 221 429 192 q 500 297 465 250 l 533 343 l 507 364 q 356 215 438 279 q 208 150 274 150 q 103 191 161 150 q 4 288 46 232 q -37 382 -37 343 q -1 441 -37 410 q 72 496 36 472 q 117 526 107 519 q 15 651 15 594 q 56 727 15 682 q 161 811 96 772 q 300 863 226 850 q 394 822 361 853 q 426 743 426 790 q 418 693 426 721 q 327 664 376 686 q 240 613 278 642 q 299 565 263 589 q 334 538 322 549 q 346 513 346 526 q 210 390 346 468 l 256 343 q 421 480 356 404 q 519 621 486 556 q 578 758 551 686 q 599 810 593 797 q 614 824 606 824 z "},"ઙ":{"ha":876,"x_min":4,"x_max":874,"o":"m 382 583 q 633 435 546 513 q 721 265 721 357 q 661 143 721 206 q 506 40 601 81 q 314 0 411 0 q 174 37 247 0 q 53 127 101 74 q 4 229 4 181 q 45 324 4 286 q 146 361 86 361 q 286 304 219 361 q 254 221 271 271 q 235 161 238 171 q 394 210 319 168 q 503 324 469 253 q 376 419 464 363 q 219 507 289 475 q 178 560 197 517 q 160 640 160 604 q 161 657 160 651 q 261 766 172 706 q 447 860 350 826 q 576 725 576 833 q 571 676 576 710 q 475 638 518 658 q 382 583 432 617 m 688 694 q 767 681 722 694 q 842 649 811 668 q 874 613 874 629 q 863 554 874 589 q 834 494 853 519 q 793 469 815 469 q 680 490 738 469 q 622 540 622 510 q 640 640 622 585 q 688 694 657 694 z "},"ચ":{"ha":1107,"x_min":-85,"x_max":1047,"o":"m 908 335 q 1012 276 976 315 q 1047 181 1047 236 q 993 103 1047 146 q 869 31 939 61 q 761 0 799 0 q 683 32 736 0 q 588 106 631 64 q 546 174 546 147 q 564 221 546 192 q 617 297 582 250 l 650 343 l 624 364 q 458 215 560 286 q 285 144 356 144 q 81 322 181 144 q 47 318 61 318 q -12 346 19 318 q -64 413 -43 374 q -85 479 -85 451 q -60 527 -85 500 q -2 574 -36 554 q 60 594 32 594 q 115 557 86 594 q 169 461 144 519 q 302 551 247 501 q 396 667 357 601 q 281 626 315 640 q 188 582 247 613 q 124 651 144 618 q 103 719 103 683 q 148 797 103 765 q 257 844 193 829 q 376 860 321 860 q 463 831 414 860 q 545 762 511 803 q 579 688 579 721 q 543 587 579 644 q 440 470 507 529 q 286 365 372 411 l 325 324 q 517 458 442 379 q 629 608 592 536 q 694 758 667 679 q 716 810 710 797 q 731 824 722 824 q 808 797 757 824 q 899 736 858 769 q 940 685 940 703 q 918 600 940 660 q 851 432 896 540 q 768 222 797 304 q 847 278 817 254 q 908 335 878 303 z "},"છ":{"ha":1114,"x_min":-1,"x_max":1019,"o":"m 611 -237 q 489 -194 531 -237 q 447 -89 447 -150 q 449 -65 447 -74 q 661 51 583 -12 q 811 219 739 115 q 735 283 754 265 q 535 90 653 179 q 307 0 418 0 q 179 45 253 0 q 52 154 106 90 q -1 268 -1 218 q 33 320 -1 293 q 136 389 67 347 q 233 453 211 435 q 74 611 74 549 q 128 697 74 643 q 261 797 182 750 q 407 860 340 843 q 507 820 471 858 q 543 728 543 782 q 539 692 543 711 q 413 638 478 675 q 313 561 349 600 q 399 504 340 536 q 451 469 435 483 q 467 439 467 456 q 407 351 467 408 q 265 240 347 293 l 308 186 q 499 298 418 238 q 642 431 579 358 q 583 485 601 465 q 564 525 564 506 q 605 610 564 551 q 695 716 646 668 q 768 764 744 764 q 844 737 800 764 q 920 674 888 710 q 953 617 953 639 q 804 390 953 549 q 867 328 835 354 q 949 269 899 303 q 1003 231 986 246 q 1019 203 1019 217 q 953 29 1019 136 q 792 -158 888 -78 q 611 -237 696 -237 z "},"જ":{"ha":856,"x_min":-74,"x_max":828,"o":"m 668 843 q 789 790 750 828 q 828 682 828 753 q 826 653 828 663 q 553 458 664 558 q 738 246 738 347 q 658 138 738 196 q 467 40 579 79 q 269 0 356 0 q 197 36 239 0 q 124 119 156 72 q 92 190 92 165 q 184 347 92 232 q 418 604 276 461 q 356 653 383 635 q 242 483 314 556 q 93 410 169 410 q 23 442 63 410 q -45 524 -17 474 q -74 628 -74 574 q -29 726 -74 671 q 86 820 15 781 q 232 860 157 860 q 378 815 307 860 q 510 696 450 771 q 668 843 588 772 m 149 571 q 205 625 176 589 q 251 700 233 661 q 218 704 235 704 q 106 669 158 704 q 117 613 104 640 q 149 571 131 585 m 289 149 q 429 199 360 164 q 538 275 499 233 q 471 378 515 329 q 386 278 426 331 q 289 149 346 226 z "},"ઝ":{"ha":944,"x_min":-61,"x_max":913,"o":"m 913 729 q 876 644 913 689 q 779 561 840 599 q 646 503 718 524 q 787 449 738 496 q 836 339 836 401 q 774 183 836 263 q 615 52 713 104 q 415 0 517 0 q 304 17 358 0 q 217 63 250 35 q 183 121 183 90 q 233 194 183 163 q 353 225 282 225 q 382 224 372 225 q 425 135 403 168 q 535 248 496 179 q 575 386 575 317 q 572 424 575 411 q 512 414 546 425 q 454 386 478 403 q 335 291 407 325 q 172 257 264 257 q 69 281 125 257 q -24 342 14 306 q -61 414 -61 379 q -29 485 -61 457 q 56 513 3 513 q 131 499 90 513 q 154 381 132 442 q 293 493 242 419 q 344 650 344 567 l 343 671 q 224 633 272 654 q 117 574 175 613 q 28 708 28 638 q 65 785 28 750 q 166 840 103 819 q 303 860 229 860 q 413 833 358 860 q 501 757 467 806 q 535 649 535 708 q 514 560 535 608 q 617 686 581 628 q 675 817 654 744 q 772 840 721 840 q 872 809 832 840 q 913 729 913 778 z "},"ઞ":{"ha":1054,"x_min":-56,"x_max":994,"o":"m 856 335 q 959 276 924 315 q 994 181 994 236 q 940 103 994 146 q 816 31 886 61 q 708 0 746 0 q 631 32 683 0 q 535 106 578 64 q 493 174 493 147 q 523 281 493 194 q 583 426 553 368 q 442 392 526 406 q 313 272 388 317 q 157 228 239 228 q 56 254 106 228 q -24 318 7 281 q -56 386 -56 356 q -19 460 -56 431 q 88 490 18 490 l 111 489 q 134 416 119 450 q 151 376 149 382 q 283 500 238 422 q 329 671 328 578 q 220 634 265 654 q 119 578 175 614 q 36 706 36 633 q 73 783 36 747 q 167 839 110 818 q 282 860 224 860 q 393 824 336 860 q 488 736 450 788 q 525 644 525 685 q 511 538 525 596 l 594 567 q 608 624 604 610 q 647 774 632 725 q 678 824 663 824 q 755 797 704 824 q 847 736 806 769 q 888 685 888 703 q 865 600 888 660 q 799 432 843 540 q 715 222 744 304 q 794 278 764 254 q 856 335 825 303 z "},"ટ":{"ha":792,"x_min":1,"x_max":708,"o":"m 253 0 q 142 40 201 0 q 42 138 83 79 q 1 246 1 196 q 68 353 1 300 q 264 485 135 407 q 427 591 372 550 q 493 671 482 632 q 349 629 406 653 q 211 560 292 606 q 147 624 171 588 q 122 699 122 660 q 176 787 122 750 q 306 842 229 824 q 454 860 383 860 q 558 828 504 860 q 649 751 613 796 q 685 669 685 706 q 646 557 685 610 q 553 463 607 504 q 410 365 499 422 q 278 274 324 310 q 218 200 232 238 q 604 356 421 224 q 683 299 658 332 q 708 211 708 265 q 635 111 708 160 q 453 31 561 63 q 253 0 346 0 z "},"ઠ":{"ha":832,"x_min":11,"x_max":776,"o":"m 435 575 q 688 441 599 507 q 776 300 776 375 q 705 160 776 231 q 517 45 633 90 q 276 0 401 0 q 152 44 214 0 q 51 149 90 88 q 11 261 11 211 q 47 345 11 300 q 144 430 83 390 q 278 493 206 469 l 253 504 q 215 556 231 513 q 199 636 199 599 q 200 656 199 650 q 297 765 210 703 q 485 860 383 826 q 622 725 622 832 q 618 682 622 706 q 526 641 567 665 q 435 575 485 617 m 214 186 q 268 181 238 181 q 442 229 358 181 q 560 346 526 278 q 428 426 525 381 q 287 319 343 382 q 214 186 231 257 z "},"ડ":{"ha":808,"x_min":4,"x_max":740,"o":"m 415 575 q 740 265 740 439 q 678 143 740 206 q 516 40 615 81 q 314 0 417 0 q 174 37 247 0 q 53 127 101 74 q 4 229 4 181 q 45 324 4 286 q 146 361 86 361 q 286 304 219 361 q 254 221 271 271 q 235 161 238 171 q 404 210 321 167 q 522 324 488 253 q 398 412 485 361 q 232 499 311 463 q 191 552 210 508 q 172 632 172 596 q 174 649 172 643 q 225 722 181 681 q 335 800 269 763 q 465 860 400 838 q 600 726 600 833 q 596 682 600 706 q 504 640 544 665 q 415 575 464 615 z "},"ઢ":{"ha":893,"x_min":10,"x_max":817,"o":"m 714 432 q 762 395 738 432 q 801 306 786 358 q 817 211 817 253 q 720 109 817 158 q 489 30 624 60 q 251 0 354 0 q 148 43 206 0 q 50 146 90 86 q 10 247 10 206 q 45 329 10 289 q 131 403 81 369 q 268 489 182 438 q 419 585 363 544 q 503 667 476 625 q 373 634 431 658 q 231 560 315 610 q 164 623 189 586 q 139 697 139 660 q 190 783 139 746 q 320 840 240 819 q 483 860 400 860 q 584 830 533 860 q 668 756 635 800 q 701 674 701 713 q 665 575 701 622 q 578 489 629 528 q 442 394 526 450 q 301 298 351 338 q 229 215 250 258 q 383 181 301 181 q 467 189 424 181 q 426 288 426 236 q 481 344 426 310 q 606 405 536 378 q 714 432 676 432 z "},"ણ":{"ha":1421,"x_min":-11,"x_max":1361,"o":"m 538 231 q 447 254 490 231 q 377 313 404 278 q 350 379 350 349 q 387 453 350 424 q 493 483 424 483 l 517 482 q 553 369 533 404 q 669 478 629 403 q 708 638 708 554 q 707 669 708 660 q 615 644 651 660 q 510 590 578 629 q 435 704 435 636 q 497 809 435 772 q 668 846 558 846 q 774 814 722 846 q 858 735 825 782 q 890 650 890 689 q 844 444 890 542 q 718 289 799 347 q 538 231 638 231 m 242 -126 q 132 -86 192 -126 q 31 12 72 -46 q -11 119 -11 69 q 1 201 -11 151 q 42 358 13 251 q 64 442 49 386 q 89 540 79 497 l 100 588 q 146 768 129 713 q 178 824 163 824 q 255 797 204 824 q 347 736 306 769 q 388 685 388 703 q 374 633 388 671 q 347 564 360 594 q 329 518 335 533 q 233 267 269 375 q 190 76 196 160 q 406 101 314 79 q 619 178 499 122 q 697 118 674 151 q 719 43 719 85 q 660 -47 719 -8 q 492 -106 600 -86 q 242 -126 383 -126 m 1075 0 q 998 32 1051 0 q 902 105 944 64 q 860 174 860 146 q 889 288 860 181 q 956 540 936 457 l 967 588 q 1013 768 996 713 q 1044 824 1029 824 q 1122 797 1071 824 q 1213 736 1172 769 q 1254 685 1254 703 q 1232 600 1254 660 q 1165 432 1210 540 q 1082 222 1111 304 q 1161 278 1131 254 q 1222 335 1192 303 q 1326 276 1290 315 q 1361 181 1361 236 q 1307 103 1361 146 q 1183 31 1253 61 q 1075 0 1113 0 z "},"ત":{"ha":1014,"x_min":0,"x_max":954,"o":"m 815 335 q 919 276 883 315 q 954 181 954 236 q 900 103 954 146 q 776 31 846 61 q 668 0 706 0 q 591 32 644 0 q 495 105 538 64 q 453 174 453 146 q 482 281 453 190 q 536 426 511 372 q 361 453 443 453 q 226 432 288 453 q 277 267 233 344 q 393 140 321 190 q 356 40 396 81 q 243 0 317 0 q 121 62 176 0 q 33 217 65 124 q 0 397 0 310 q 44 505 0 447 q 154 601 88 563 q 283 640 221 640 q 560 588 414 640 q 606 768 589 713 q 638 824 622 824 q 715 797 664 824 q 806 736 765 769 q 847 685 847 703 q 825 600 847 660 q 758 432 803 540 q 675 222 704 304 q 754 278 724 254 q 815 335 785 303 z "},"થ":{"ha":1075,"x_min":-4,"x_max":1015,"o":"m 876 335 q 980 276 944 315 q 1015 181 1015 236 q 961 103 1015 146 q 837 31 907 61 q 729 0 767 0 q 651 32 704 0 q 556 106 599 64 q 514 174 514 147 q 532 221 514 192 q 585 297 550 250 l 618 343 l 592 364 q 491 263 554 315 q 356 174 428 210 q 225 139 285 139 q 120 176 174 139 q 31 265 67 213 q -4 358 -4 318 q 24 413 -4 392 q 117 465 51 433 q 207 511 169 489 q 74 603 126 553 q 22 694 22 653 q 70 772 22 733 q 194 835 118 811 q 344 860 269 860 q 431 831 382 860 q 513 762 479 803 q 547 688 547 721 q 509 585 547 644 q 398 464 471 526 q 225 347 325 401 l 264 306 q 474 447 392 364 q 594 602 556 529 q 664 760 632 675 q 684 808 676 793 q 699 824 692 824 q 776 797 725 824 q 867 736 826 769 q 908 685 908 703 q 886 600 908 660 q 819 432 864 540 q 736 222 765 304 q 815 278 785 254 q 876 335 846 303 m 210 650 q 279 564 235 599 q 379 694 342 615 q 289 681 328 692 q 210 650 250 669 z "},"દ":{"ha":779,"x_min":-1,"x_max":710,"o":"m 710 200 q 633 105 710 151 q 447 29 556 58 q 251 0 338 0 q 137 40 196 0 q 38 133 78 79 q -1 228 -1 188 q 70 326 -1 272 q 258 450 142 381 l 285 467 q 172 549 219 504 q 125 629 125 593 q 183 722 125 669 q 324 813 240 774 q 481 860 408 853 q 567 818 539 851 q 594 742 594 785 q 582 681 594 715 q 465 640 517 661 q 360 582 413 618 q 458 532 390 563 q 523 499 503 513 q 543 465 543 485 q 502 399 543 433 q 381 314 461 365 q 278 244 313 268 q 221 192 243 219 q 410 238 333 207 q 590 340 488 269 q 681 283 651 318 q 710 200 710 249 z "},"ધ":{"ha":990,"x_min":-37,"x_max":931,"o":"m 24 668 q 74 752 24 701 q 198 852 124 803 q 339 932 272 901 q 468 796 468 910 q 467 768 468 778 q 250 636 360 728 q 313 581 267 614 q 347 553 336 564 q 358 529 358 542 q 314 464 358 504 q 210 390 269 424 l 256 343 q 421 480 356 404 q 519 621 486 556 q 578 758 551 686 q 599 810 593 797 q 614 824 606 824 q 691 797 640 824 q 783 736 742 769 q 824 685 824 703 q 801 600 824 660 q 735 432 779 540 q 651 222 681 304 q 731 278 700 254 q 792 335 761 303 q 895 276 860 315 q 931 181 931 236 q 876 103 931 146 q 752 31 822 61 q 644 0 682 0 q 567 32 619 0 q 472 106 514 64 q 429 174 429 147 q 447 221 429 192 q 500 297 465 250 l 533 343 l 507 364 q 356 215 438 279 q 208 150 274 150 q 103 191 161 150 q 4 288 46 232 q -37 382 -37 343 q -1 439 -37 408 q 96 507 36 469 q 125 526 118 521 q 52 598 81 564 q 24 668 24 632 z "},"ન":{"ha":1032,"x_min":-15,"x_max":972,"o":"m 833 335 q 937 276 901 315 q 972 181 972 236 q 918 103 972 146 q 794 31 864 61 q 686 0 724 0 q 609 32 663 0 q 513 105 556 64 q 471 174 471 146 q 501 278 471 186 q 554 433 531 371 q 408 450 454 449 q 424 301 424 371 q 379 112 424 185 q 238 39 335 39 q 116 93 175 39 q 21 228 57 147 q -15 382 -15 310 q 78 564 -15 499 q 329 629 171 629 q 445 619 389 629 q 578 589 501 610 q 624 769 607 714 q 656 824 640 824 q 733 797 682 824 q 824 736 783 769 q 865 685 865 703 q 843 600 865 660 q 776 432 821 540 q 693 222 722 304 q 772 278 742 254 q 833 335 803 303 m 267 233 q 294 376 294 303 q 290 443 294 408 q 204 422 240 438 q 132 376 168 406 q 184 288 154 324 q 267 233 214 253 z "},"પ":{"ha":951,"x_min":-74,"x_max":892,"o":"m 606 0 q 528 32 582 0 q 433 106 475 64 q 390 175 390 147 q 418 231 390 190 q 499 343 446 272 l 474 363 q 243 185 310 185 q 165 210 214 185 q 77 269 115 236 q 39 319 39 301 q 50 399 39 351 q 76 488 61 447 l 221 617 l 190 653 q 124 603 165 636 l 57 553 q -34 619 6 571 q -74 711 -74 667 q -31 781 -74 746 q 76 838 13 815 q 194 860 140 860 q 269 835 219 860 q 358 779 319 811 q 396 724 396 747 q 352 583 396 681 q 256 399 308 486 l 306 372 q 447 545 397 453 q 533 744 497 638 q 557 806 549 788 q 575 824 565 824 q 652 797 601 824 q 744 736 703 769 q 785 685 785 703 q 763 600 785 660 q 696 432 740 540 q 613 222 642 304 q 692 278 661 254 q 753 335 722 303 q 856 276 821 315 q 892 181 892 236 q 838 103 892 146 q 713 31 783 61 q 606 0 643 0 z "},"ફ":{"ha":846,"x_min":7,"x_max":768,"o":"m 699 610 q 749 563 731 592 q 768 501 768 535 q 750 438 768 468 q 544 399 646 419 q 666 343 617 379 q 715 271 715 307 q 651 145 715 208 q 488 41 586 82 q 293 0 389 0 q 242 4 267 0 q 232 -42 232 -31 q 247 -77 232 -62 q 286 -92 263 -92 q 447 -63 346 -92 q 607 0 547 -35 q 681 -47 656 -15 q 706 -122 706 -79 q 681 -215 706 -168 q 477 -272 594 -249 q 274 -296 360 -296 q 189 -266 232 -296 q 118 -192 146 -236 q 90 -110 90 -147 q 102 -49 90 -90 q 129 36 114 -8 q 42 93 76 61 q 7 149 7 125 q 56 203 7 171 q 167 260 106 236 q 258 285 229 285 q 283 208 283 285 q 279 136 283 172 q 409 206 358 160 q 460 300 460 253 q 449 333 460 317 q 417 371 439 350 q 96 301 263 339 q 47 340 65 311 q 28 403 28 369 q 54 472 28 442 q 271 501 165 483 q 162 564 207 525 q 117 635 117 603 q 178 731 117 681 q 342 817 239 781 q 565 863 446 854 q 636 817 610 851 q 663 740 663 783 q 643 672 663 704 q 443 630 515 660 q 371 556 371 600 q 388 524 371 539 q 699 610 536 556 z "},"બ":{"ha":1114,"x_min":-62,"x_max":1054,"o":"m 474 369 q 178 165 319 165 q 80 203 138 165 q -20 293 22 240 q -62 388 -62 346 q -22 553 -62 458 q 92 734 19 649 q 251 861 164 819 q 372 810 331 853 q 407 707 413 768 q 132 343 207 625 q 371 446 274 371 q 328 486 343 467 q 313 518 313 506 q 332 564 313 533 q 378 619 351 594 q 426 643 404 643 q 464 628 443 643 q 524 578 485 613 l 579 529 q 648 631 622 578 q 699 753 674 683 q 721 807 713 790 q 738 824 729 824 q 815 797 764 824 q 906 736 865 769 q 947 685 947 703 q 925 600 947 660 q 858 432 903 540 q 775 222 804 304 q 854 278 824 254 q 915 335 885 303 q 1019 276 983 315 q 1054 181 1054 236 q 1000 103 1054 146 q 876 31 946 61 q 768 0 806 0 q 690 33 743 0 q 595 106 638 65 q 553 172 553 147 q 578 228 553 189 q 647 329 603 267 q 679 375 660 346 l 649 396 q 598 349 628 369 q 550 328 568 328 q 474 369 522 328 z "},"ભ":{"ha":1304,"x_min":8,"x_max":1244,"o":"m 1106 335 q 1209 276 1174 315 q 1244 181 1244 236 q 1190 103 1244 146 q 1066 31 1136 61 q 958 0 996 0 q 881 32 933 0 q 785 106 828 64 q 743 174 743 147 q 770 273 743 193 q 817 393 797 353 q 667 368 761 376 q 633 292 647 317 q 597 260 619 268 q 538 251 575 251 q 477 256 507 251 q 431 269 447 261 q 372 424 372 297 q 568 524 372 497 q 575 611 575 572 q 568 701 575 653 q 321 512 411 644 q 213 181 231 379 q 382 243 310 200 q 456 198 431 229 q 482 129 482 167 q 438 35 482 71 q 311 0 394 0 q 180 42 251 0 q 58 144 108 85 q 8 253 8 204 q 73 516 8 372 q 247 760 138 660 q 483 860 357 860 q 596 837 531 860 q 709 777 661 814 q 757 700 757 740 q 711 526 757 642 q 843 561 776 536 l 857 618 q 898 776 883 728 q 928 824 913 824 q 1005 797 954 824 q 1097 736 1056 769 q 1138 685 1138 703 q 1115 600 1138 660 q 1049 432 1093 540 q 965 222 994 304 q 1044 278 1014 254 q 1106 335 1075 303 z "},"મ":{"ha":1050,"x_min":6,"x_max":990,"o":"m 851 335 q 955 276 919 315 q 990 181 990 236 q 936 103 990 146 q 812 31 882 61 q 704 0 742 0 q 626 32 679 0 q 531 106 574 64 q 489 174 489 147 q 511 258 489 192 q 551 367 533 324 q 394 336 475 346 q 328 188 353 236 q 275 126 303 139 q 204 117 256 117 q 136 122 168 117 q 90 139 104 128 q 29 235 53 167 q 6 365 6 304 q 76 451 6 425 q 290 490 146 478 q 310 664 310 581 q 122 585 203 638 q 46 655 76 613 q 15 742 15 697 q 93 829 15 799 q 279 860 171 860 q 381 830 329 860 q 468 758 433 800 q 503 685 503 717 q 490 619 503 660 q 463 542 476 578 q 446 496 450 506 q 583 536 507 510 l 600 604 q 641 767 624 711 q 674 824 658 824 q 751 797 700 824 q 842 736 801 769 q 883 685 883 703 q 861 600 883 660 q 794 432 839 540 q 711 222 740 304 q 790 278 760 254 q 851 335 821 303 z "},"ય":{"ha":1024,"x_min":-33,"x_max":964,"o":"m -33 374 q -6 425 -33 404 q 82 475 21 446 q 219 556 163 514 q 313 667 276 597 q 214 635 251 651 q 104 582 176 619 q 40 651 61 618 q 19 719 19 683 q 65 797 19 765 q 174 844 110 829 q 293 860 238 860 q 379 831 331 860 q 462 762 428 803 q 496 688 496 721 q 460 587 496 644 q 356 470 424 529 q 203 365 289 411 l 242 324 q 433 458 358 379 q 546 608 508 536 q 611 758 583 679 q 633 810 626 797 q 647 824 639 824 q 724 797 674 824 q 816 736 775 769 q 857 685 857 703 q 835 600 857 660 q 768 432 813 540 q 685 222 714 304 q 764 278 733 254 q 825 335 794 303 q 928 276 893 315 q 964 181 964 236 q 910 103 964 146 q 785 31 856 61 q 678 0 715 0 q 600 32 653 0 q 505 106 547 64 q 463 174 463 147 q 481 221 463 192 q 533 297 499 250 l 567 343 l 540 364 q 374 215 476 286 q 201 144 272 144 q 100 184 156 144 q 6 278 44 224 q -33 374 -33 333 z "},"ર":{"ha":706,"x_min":-60,"x_max":622,"o":"m 482 329 q 573 276 542 315 q 604 181 604 236 q 546 94 604 136 q 409 26 488 53 q 281 0 331 0 q 163 85 221 0 q 78 269 104 169 q 56 267 64 267 q 5 302 32 267 q -41 385 -22 338 q -60 461 -60 432 q -33 501 -60 479 q 31 540 -6 524 q 96 556 68 556 q 143 524 122 556 q 176 443 164 492 q 426 649 350 510 q 314 624 358 639 q 197 578 269 610 q 136 640 161 601 q 111 719 111 679 q 159 794 111 763 q 278 843 207 826 q 419 860 350 860 q 516 825 469 860 q 592 740 563 790 q 622 649 622 690 q 570 524 622 592 q 426 394 518 456 q 218 290 333 332 l 238 222 q 365 265 308 240 q 482 329 421 289 z "},"લ":{"ha":1140,"x_min":7,"x_max":1081,"o":"m 403 308 q 481 256 454 289 q 508 185 508 224 q 478 107 508 142 q 394 52 449 72 q 268 32 339 32 q 156 72 218 32 q 50 171 93 113 q 7 278 7 229 q 47 510 7 393 q 176 722 88 626 q 406 860 265 817 q 505 817 469 853 q 540 732 540 781 q 531 683 540 707 q 283 515 358 628 q 201 217 208 401 q 306 249 261 228 q 403 308 350 271 m 942 335 q 1045 276 1010 315 q 1081 181 1081 236 q 1026 103 1081 146 q 902 31 972 61 q 794 0 832 0 q 717 32 769 0 q 622 106 664 64 q 579 174 579 147 q 601 260 579 192 q 651 390 624 329 q 438 360 533 367 q 397 405 411 378 q 382 463 382 432 q 421 551 382 513 q 550 562 492 554 q 686 585 608 569 q 764 824 736 824 q 841 797 790 824 q 933 736 892 769 q 974 685 974 703 q 951 600 974 660 q 885 432 929 540 q 801 222 831 304 q 881 278 850 254 q 942 335 911 303 z "},"વ":{"ha":935,"x_min":-60,"x_max":875,"o":"m 558 824 q 635 797 585 824 q 727 736 686 769 q 768 685 768 703 q 746 600 768 660 q 679 432 724 540 q 596 222 625 304 q 675 278 644 254 q 736 335 706 303 q 840 276 804 315 q 875 181 875 236 q 821 103 875 146 q 697 31 767 61 q 589 0 626 0 q 511 33 564 0 q 416 106 458 65 q 374 172 374 147 q 392 217 374 189 q 444 289 410 246 l 483 343 l 451 368 q 315 247 388 297 q 183 197 243 197 q 87 232 146 197 q -16 315 28 267 q -60 406 -60 364 q -17 566 -60 474 q 102 740 25 658 q 276 860 179 821 q 398 810 357 853 q 436 704 439 768 q 244 578 315 663 q 151 378 174 494 q 347 468 272 404 q 457 599 422 532 q 521 751 492 667 q 541 807 533 790 q 558 824 549 824 z "},"શ":{"ha":1197,"x_min":-47,"x_max":1138,"o":"m 460 314 q 543 257 510 296 q 576 167 576 218 q 526 83 576 122 q 402 22 475 44 q 269 0 329 0 q 167 69 215 0 q 93 224 118 138 q 67 221 74 221 q 16 256 43 221 q -29 339 -11 292 q -47 414 -47 386 q -20 454 -47 432 q 44 492 7 476 q 108 508 82 508 q 185 411 151 508 q 294 482 244 443 q 133 572 201 514 q 65 682 65 629 q 121 767 65 726 q 259 834 176 808 q 415 860 342 860 q 515 825 458 860 q 610 743 571 790 q 650 660 650 696 q 590 524 650 596 q 431 387 531 451 q 218 278 332 322 l 239 215 q 349 256 301 236 q 460 314 396 276 m 999 335 q 1102 276 1067 315 q 1138 181 1138 236 q 1083 103 1138 146 q 959 31 1029 61 q 851 0 889 0 q 774 32 828 0 q 678 105 721 64 q 636 174 636 146 q 665 288 636 181 q 732 540 713 457 l 743 588 q 789 768 772 713 q 821 824 806 824 q 898 797 847 824 q 990 736 949 769 q 1031 685 1031 703 q 1008 600 1031 660 q 942 432 986 540 q 858 222 888 304 q 938 278 907 254 q 999 335 968 303 m 446 686 q 263 636 336 693 q 299 583 274 607 q 358 543 324 558 q 446 686 411 604 z "},"ષ":{"ha":951,"x_min":-74,"x_max":892,"o":"m 753 335 q 856 276 821 315 q 892 181 892 236 q 838 103 892 146 q 713 31 783 61 q 606 0 643 0 q 528 32 582 0 q 433 106 475 64 q 390 175 390 147 q 418 231 390 190 q 499 343 446 272 l 474 363 q 243 185 310 185 q 165 210 214 185 q 77 269 115 236 q 39 319 39 301 q 50 399 39 351 q 76 488 61 447 l 221 617 l 190 653 q 124 603 165 636 l 57 553 q -34 619 6 571 q -74 711 -74 667 q -31 781 -74 746 q 76 838 13 815 q 194 860 140 860 q 292 824 229 860 q 381 756 354 789 q 472 592 424 700 q 513 688 496 642 q 533 743 531 735 q 557 806 549 788 q 575 824 565 824 q 652 797 601 824 q 744 736 703 769 q 785 685 785 703 q 763 600 785 660 q 696 432 740 540 q 613 222 642 304 q 692 278 661 254 q 753 335 722 303 m 306 372 q 419 500 367 426 l 361 604 q 256 399 319 504 l 306 372 z "},"સ":{"ha":1178,"x_min":-60,"x_max":1118,"o":"m 979 335 q 1083 276 1047 315 q 1118 181 1118 236 q 1064 103 1118 146 q 940 31 1010 61 q 832 0 869 0 q 754 32 807 0 q 659 106 701 64 q 617 174 617 147 q 647 281 617 194 q 707 426 676 368 q 556 391 619 401 q 399 376 492 381 q 215 288 315 325 l 236 224 q 439 304 343 249 q 528 241 497 285 q 558 147 558 197 q 510 75 558 108 q 397 21 463 42 q 282 0 331 0 q 165 81 222 0 q 78 269 107 163 q 54 267 61 267 q 5 302 32 267 q -41 385 -22 338 q -60 461 -60 432 q -33 502 -60 479 q 30 540 -7 525 q 96 556 67 556 q 144 523 124 556 q 174 440 164 490 q 426 649 353 511 q 308 622 357 638 q 197 578 260 607 q 135 640 160 601 q 111 721 111 679 q 159 794 111 763 q 279 843 207 826 q 422 860 351 860 q 517 824 471 860 q 593 738 564 788 q 622 650 622 688 q 564 515 622 586 q 718 567 610 528 q 732 624 728 610 q 771 774 756 725 q 801 824 786 824 q 878 797 828 824 q 970 736 929 769 q 1011 685 1011 703 q 989 600 1011 660 q 922 432 967 540 q 839 222 868 304 q 918 278 888 254 q 979 335 949 303 z "},"હ":{"ha":904,"x_min":-3,"x_max":840,"o":"m 382 164 q 348 205 361 179 q 335 260 335 231 q 365 338 335 303 q 546 364 488 342 q 358 460 439 400 q 260 576 278 521 q 257 597 257 583 q 304 708 257 644 q 423 815 351 771 q 561 860 494 860 q 670 826 618 860 q 754 743 722 793 q 786 646 786 693 q 751 572 786 600 q 661 543 715 543 q 590 557 626 543 q 565 693 588 613 q 460 564 460 613 q 488 526 460 544 q 569 483 515 508 q 660 438 626 456 q 717 392 693 419 q 742 332 742 365 q 694 242 742 281 q 565 184 647 204 q 382 164 483 164 m 408 -131 q 204 -85 299 -131 q 53 38 110 -40 q -3 214 -3 117 q 37 353 -3 275 q 136 476 76 432 q 167 478 147 478 q 306 340 306 478 q 227 253 256 301 q 179 121 199 204 q 414 75 301 75 q 756 169 581 75 q 840 42 840 122 q 725 -85 840 -40 q 408 -131 610 -131 z "},"ળ":{"ha":1158,"x_min":-8,"x_max":1099,"o":"m 710 824 q 819 794 758 824 q 922 722 879 764 q 964 651 964 681 q 928 506 964 607 q 832 254 893 406 l 819 222 q 899 278 868 254 q 960 335 929 303 q 1063 276 1028 315 q 1099 181 1099 236 q 1044 103 1099 146 q 920 31 990 61 q 813 0 850 0 q 735 32 789 0 q 640 105 682 64 q 597 174 597 146 q 653 320 597 189 q 756 543 710 451 l 701 567 q 580 373 656 475 q 413 199 504 271 q 235 126 321 126 q 130 158 188 126 q 32 238 72 190 q -8 328 -8 285 q 31 513 -8 410 q 144 710 71 615 q 314 861 218 806 q 488 713 483 863 q 345 599 397 656 q 263 474 293 543 q 210 299 232 404 q 331 374 274 321 q 434 486 389 426 q 539 638 479 546 q 639 778 601 733 q 710 824 676 824 z "},"ં":{"ha":0,"x_min":-367,"x_max":-85,"o":"m -294 893 q -346 944 -325 897 q -367 1039 -367 992 l -365 1057 q -316 1111 -362 1092 q -203 1131 -269 1131 q -162 1129 -176 1131 q -104 1083 -124 1125 q -85 992 -85 1042 l -86 972 q -145 915 -90 938 q -264 892 -200 892 q -294 893 -285 892 z "},"ઁ":{"ha":0,"x_min":-564,"x_max":7,"o":"m -275 1122 q -313 1142 -294 1121 q -344 1193 -332 1163 q -357 1247 -357 1224 q -312 1301 -357 1278 q -207 1332 -267 1325 q -149 1297 -172 1335 q -121 1219 -125 1260 q -169 1158 -118 1188 q -275 1122 -219 1128 m -271 860 q -383 916 -321 860 q -496 1055 -444 972 q -564 1210 -547 1138 q -479 1256 -529 1256 q -436 1247 -457 1256 q -388 1137 -411 1183 q -333 1039 -365 1090 q -214 1069 -269 1050 q -99 1122 -158 1089 q 7 974 7 1083 q 1 919 7 946 q -271 860 -94 860 z "},"ઃ":{"ha":438,"x_min":40,"x_max":357,"o":"m 174 494 q 124 520 150 494 q 81 582 99 546 q 64 646 64 618 q 97 696 64 669 q 175 740 129 722 q 257 758 221 758 q 304 734 281 758 q 342 676 328 710 q 357 618 357 642 q 324 564 357 593 q 248 515 292 535 q 174 494 204 494 m 150 69 q 101 95 126 69 q 58 157 75 121 q 40 221 40 193 q 73 271 40 244 q 151 315 106 297 q 233 333 197 333 q 281 309 257 333 q 319 251 304 285 q 333 193 333 217 q 301 139 333 168 q 224 90 268 110 q 150 69 181 69 z "},"્":{"ha":0,"x_min":-687,"x_max":-106,"o":"m -657 -215 q -687 -136 -687 -179 q -660 -67 -687 -96 q -583 -39 -632 -39 q -333 -103 -468 -39 q -108 -258 -199 -168 q -121 -315 -106 -290 q -174 -344 -136 -339 q -411 -249 -308 -278 q -657 -215 -514 -221 z "},"઼":{"ha":0,"x_min":-624,"x_max":-342,"o":"m -551 -306 q -603 -254 -582 -301 q -624 -160 -624 -207 l -622 -142 q -573 -87 -619 -107 q -460 -68 -526 -68 q -419 -69 -433 -68 q -361 -115 -381 -74 q -342 -207 -342 -157 l -343 -226 q -402 -284 -347 -261 q -521 -307 -457 -307 q -551 -306 -542 -307 z "},"ઽ":{"ha":810,"x_min":-6,"x_max":853,"o":"m 283 0 q 148 29 215 0 q 38 100 81 58 q -4 175 -6 142 q 46 267 -3 232 q 167 303 94 303 q 243 293 206 303 q 286 150 261 193 q 437 226 381 189 q 517 321 493 264 q 390 368 457 344 q 307 399 378 372 q 199 447 236 425 q 122 533 150 476 q 93 650 93 589 q 217 781 93 739 q 539 822 342 822 q 817 804 669 822 q 853 719 853 764 q 836 662 853 689 q 789 615 819 635 q 553 635 669 635 q 276 601 397 635 q 378 550 326 572 q 506 500 431 528 q 642 444 594 467 q 722 388 690 421 q 753 311 753 356 q 678 172 753 246 q 492 49 603 99 q 283 0 381 0 z "},"૦":{"ha":726,"x_min":13,"x_max":697,"o":"m 233 0 q 139 33 188 0 q 56 111 90 65 q 17 194 21 157 q 13 253 13 219 q 31 427 13 329 q 84 616 49 525 q 168 763 119 707 q 383 822 269 822 q 540 787 468 822 q 654 682 611 751 q 697 517 697 613 q 635 294 697 417 q 465 85 572 171 q 233 0 358 0 m 492 535 q 462 619 492 589 q 383 650 432 650 q 322 639 358 650 q 241 426 269 558 q 218 163 213 293 q 417 301 342 200 q 492 535 492 401 z "},"૧":{"ha":668,"x_min":38,"x_max":594,"o":"m 471 286 q 578 167 578 257 q 529 85 578 124 q 403 24 481 47 q 249 0 326 0 q 165 33 210 0 q 90 109 121 65 q 60 179 60 153 q 87 243 60 207 q 172 342 114 279 l 228 403 q 92 478 147 428 q 38 582 38 529 q 88 702 38 636 q 222 814 139 768 q 397 860 306 860 q 483 833 436 860 q 562 767 529 806 q 594 693 594 728 q 499 472 594 617 q 251 160 404 328 q 471 286 369 214 m 210 586 q 310 504 263 533 q 408 719 390 617 q 289 658 335 689 q 210 586 243 628 z "},"૨":{"ha":690,"x_min":4,"x_max":654,"o":"m 649 624 q 530 423 635 518 q 271 276 425 328 l 283 193 q 494 283 386 222 q 590 154 590 243 q 540 77 590 113 q 415 21 490 42 q 268 0 340 0 q 166 66 206 0 q 118 240 126 132 q 96 240 106 239 q 49 274 69 243 q 16 348 28 306 q 4 424 4 390 q 6 446 4 439 q 38 479 8 461 q 108 510 68 497 q 178 522 147 522 q 258 438 242 522 q 384 538 332 478 q 463 672 436 597 q 340 645 408 665 q 214 597 271 625 q 155 649 178 617 q 132 714 132 681 q 172 788 132 754 q 281 840 213 821 q 428 860 349 860 q 535 818 482 860 q 622 720 589 776 q 649 624 654 664 z "},"૩":{"ha":693,"x_min":-40,"x_max":657,"o":"m 610 251 q 553 132 608 190 q 410 37 497 74 q 233 0 322 0 q 92 24 154 0 q -6 85 29 49 q -40 161 -40 122 q 4 238 -40 207 q 132 269 49 269 q 164 268 153 269 q 185 195 171 233 q 213 129 199 157 q 397 258 315 168 q 219 358 278 315 q 160 433 160 401 q 185 474 160 457 q 269 518 210 492 q 399 587 347 553 q 479 676 450 621 q 335 656 406 672 q 186 607 265 640 q 124 654 144 628 q 103 708 103 681 q 140 782 103 747 q 250 838 178 817 q 419 860 322 860 q 531 828 475 860 q 622 749 586 796 q 657 663 657 701 q 586 531 657 594 q 386 428 515 468 q 547 349 483 399 q 610 251 610 299 z "},"૪":{"ha":719,"x_min":15,"x_max":742,"o":"m 736 682 q 616 612 665 646 q 501 519 567 578 q 601 294 601 417 q 561 149 601 217 q 447 41 521 82 q 281 0 374 0 q 183 35 239 0 q 87 120 126 71 q 47 207 47 169 q 109 371 47 274 q 288 582 171 468 q 179 637 228 622 q 56 649 131 651 q 15 743 15 692 q 41 815 15 783 q 115 860 67 847 q 265 808 203 850 q 393 674 328 765 q 478 765 442 731 q 585 860 514 799 q 699 826 657 860 q 742 731 742 793 q 736 682 742 706 m 225 156 q 332 189 283 160 q 408 263 381 218 q 436 354 436 307 q 407 442 436 403 q 292 309 338 379 q 225 156 246 239 z "},"૫":{"ha":1001,"x_min":7,"x_max":949,"o":"m 300 181 q 231 205 275 181 q 154 263 188 229 q 121 324 121 297 q 165 452 121 365 q 283 646 208 539 l 258 669 q 114 574 210 639 q 35 622 64 588 q 7 701 7 657 q 52 776 7 739 q 165 836 97 813 q 294 860 233 860 q 363 837 324 860 q 429 781 401 814 q 457 724 457 749 q 418 578 457 676 q 332 397 379 481 l 371 371 q 510 533 461 443 q 601 736 560 622 q 629 804 619 785 q 649 824 639 824 q 717 798 671 824 q 799 740 763 772 q 836 690 836 707 q 810 591 836 660 q 735 407 785 522 q 649 193 671 251 q 826 324 736 242 q 915 273 881 313 q 949 181 949 233 q 895 102 949 144 q 772 30 842 60 q 665 0 703 0 q 588 31 636 0 q 501 100 539 61 q 464 161 464 139 q 484 219 464 183 q 567 343 504 254 l 535 367 q 300 181 369 181 z "},"૬":{"ha":740,"x_min":-17,"x_max":715,"o":"m 583 565 q 678 537 642 565 q 715 465 715 508 q 686 367 715 414 q 604 282 657 321 q 581 166 590 225 q 568 94 571 107 q 545 -31 556 15 q 518 -104 535 -76 q 419 -187 494 -147 q 288 -226 343 -226 q 150 -195 221 -226 q 31 -115 79 -164 q -17 -17 -17 -67 q 24 70 -17 36 q 119 104 65 104 q 160 99 142 104 q 185 32 164 88 q 230 -49 207 -24 q 279 -74 253 -74 q 371 -3 332 -74 q 431 192 410 68 l 431 196 q 238 167 332 167 q 143 205 196 167 q 53 297 90 243 q 17 393 17 350 q 75 557 17 467 q 233 730 133 647 q 447 863 332 813 q 533 825 506 857 q 560 746 560 793 q 551 693 560 718 q 329 543 421 629 q 176 343 238 457 q 444 382 306 343 q 446 465 444 436 q 487 540 446 514 q 583 565 528 565 z "},"૭":{"ha":1001,"x_min":31,"x_max":971,"o":"m 703 788 q 826 742 763 788 q 930 630 889 696 q 971 510 971 564 q 887 265 971 383 q 673 74 803 147 q 415 0 543 0 q 220 56 308 0 q 81 209 132 111 q 31 426 31 307 q 82 668 31 542 q 179 694 129 694 q 267 665 229 694 q 318 581 306 636 q 260 403 283 488 q 221 217 238 319 q 378 192 300 192 q 517 213 451 192 q 636 275 583 235 q 450 381 522 319 q 378 519 378 443 q 435 644 378 582 q 570 747 492 706 q 703 788 649 788 m 722 367 q 785 603 790 471 q 659 563 717 597 q 560 475 601 528 q 722 367 636 407 z "},"૮":{"ha":738,"x_min":-6,"x_max":669,"o":"m 251 0 q 129 40 189 0 q 32 135 69 79 q -6 239 -6 192 q 48 406 -6 301 q 190 622 101 510 q 376 815 278 733 q 408 818 399 818 q 513 774 478 818 q 543 664 549 729 q 316 455 399 560 q 174 189 233 350 q 375 212 282 189 q 575 290 468 235 q 644 243 619 274 q 669 179 669 213 q 617 88 669 129 q 469 24 564 47 q 251 0 374 0 z "},"૯":{"ha":774,"x_min":-3,"x_max":724,"o":"m 268 3 q 133 43 196 3 q 34 142 71 83 q -3 253 -3 201 q 52 445 -3 335 q 205 659 107 556 q 424 826 303 763 q 444 828 431 828 q 531 799 499 828 q 564 721 564 769 q 553 665 564 696 q 290 467 393 597 q 168 182 188 336 q 375 201 286 179 q 564 275 464 222 q 639 231 617 260 q 660 153 661 203 q 604 83 660 118 q 458 26 549 49 q 268 3 367 3 m 436 313 q 387 353 404 328 q 369 410 369 379 q 400 489 369 450 q 543 521 486 507 q 653 554 600 535 q 706 517 688 542 q 724 460 724 492 q 696 386 724 421 q 436 313 578 343 z "},"ૐ":{"ha":1515,"x_min":35,"x_max":1471,"o":"m 1085 1006 q 1026 1038 1060 1000 q 982 1111 992 1075 q 981 1124 981 1115 q 1019 1181 981 1153 q 1113 1222 1058 1208 q 1124 1224 1117 1224 q 1181 1192 1154 1224 q 1219 1125 1208 1160 q 1183 1056 1228 1093 q 1085 1006 1138 1019 m 1128 746 q 1007 793 1076 746 q 875 911 938 840 q 783 1049 813 982 q 872 1108 814 1108 q 903 1104 886 1108 q 969 1004 938 1047 q 1043 914 1001 961 q 1156 962 1104 933 q 1260 1032 1207 990 q 1364 968 1331 1017 q 1397 846 1397 919 q 1288 784 1354 810 q 1140 747 1221 758 l 1128 746 m 1250 688 q 1415 614 1358 688 q 1471 428 1471 540 q 1425 227 1471 326 q 1293 64 1379 128 q 1092 0 1207 0 q 1004 21 1047 0 q 935 76 961 42 q 908 147 908 110 q 951 224 908 197 q 1061 247 994 250 q 1101 142 1071 214 q 1246 249 1199 178 q 1293 410 1293 321 q 1268 539 1293 474 q 1167 513 1214 538 q 1053 440 1121 489 q 931 363 982 390 q 815 322 881 335 q 864 273 846 297 q 882 232 882 249 q 821 119 882 172 q 670 33 760 65 q 504 0 581 0 q 414 35 451 0 q 350 126 376 69 q 292 279 324 183 q 207 211 256 253 q 85 256 135 213 q 35 371 35 299 q 140 456 88 425 q 253 486 192 486 q 340 437 301 486 q 406 319 379 388 q 465 151 433 251 q 588 198 542 169 q 672 274 635 226 q 512 365 578 310 q 454 458 446 419 q 475 478 456 469 q 544 508 494 488 q 706 588 643 547 q 782 694 768 628 q 638 667 703 690 q 499 594 574 644 q 426 642 457 606 q 393 713 394 679 q 482 821 389 782 q 729 860 575 860 q 835 825 781 860 q 925 742 889 790 q 961 660 961 693 q 888 543 961 597 q 681 424 815 489 q 804 458 749 428 q 940 550 860 489 q 1042 623 1000 596 q 1136 669 1083 650 q 1250 688 1189 688 z "},"૰":{"ha":436,"x_min":6,"x_max":429,"o":"m 426 461 q 400 342 429 406 q 315 235 371 278 q 188 192 260 192 q 112 215 153 192 q 41 271 71 238 q 10 332 11 304 q 51 526 6 436 q 118 542 82 544 q 114 563 114 553 q 134 607 114 588 q 190 636 154 626 q 308 603 254 631 q 392 537 361 575 q 426 461 424 499 m 160 290 q 251 360 217 311 q 294 482 286 408 q 183 504 250 507 q 193 472 190 492 q 154 343 154 419 q 160 290 154 314 z "},"૱":{"ha":1200,"x_min":-15,"x_max":1193,"o":"m 749 661 q 670 528 749 592 q 471 425 592 464 q 587 378 532 410 q 676 313 642 347 q 710 254 710 279 q 645 128 710 188 q 481 35 581 69 q 283 0 382 0 q 232 4 257 0 q 222 -42 222 -31 q 238 -77 222 -62 q 276 -92 253 -92 q 437 -63 336 -92 q 597 0 538 -35 q 671 -47 646 -15 q 696 -122 696 -79 q 671 -215 696 -168 q 467 -272 585 -249 q 264 -296 350 -296 q 179 -266 222 -296 q 108 -192 136 -236 q 81 -110 81 -147 q 90 -60 81 -93 q 106 -3 99 -28 q 118 35 114 22 q 22 99 60 61 q -15 164 -15 138 q 35 224 -15 189 q 149 284 85 258 q 246 310 213 310 q 274 276 264 310 q 283 194 283 243 q 281 140 283 158 q 399 191 354 163 q 476 268 443 219 q 292 371 361 326 q 233 450 224 415 q 257 472 236 461 q 325 503 278 483 q 490 586 426 544 q 571 694 554 628 q 421 663 493 690 q 258 576 349 636 q 187 624 217 588 q 157 694 157 661 q 206 778 157 740 q 340 838 256 815 q 526 860 425 860 q 628 826 576 860 q 715 746 681 793 q 749 661 749 699 m 1190 461 q 1164 342 1193 406 q 1079 235 1135 278 q 951 192 1024 192 q 876 215 917 192 q 805 271 835 238 q 774 332 775 304 q 815 526 769 436 q 882 542 846 544 q 878 563 878 553 q 898 607 878 588 q 954 636 918 626 q 1072 603 1018 631 q 1156 537 1125 575 q 1190 461 1188 499 m 924 290 q 1015 360 981 311 q 1058 482 1050 408 q 947 504 1014 507 q 957 472 954 492 q 918 343 918 419 q 924 290 918 314 z "},"।":{"ha":369,"x_min":19,"x_max":361,"o":"m 190 0 q 119 24 160 0 q 50 80 79 47 q 21 140 21 113 q 28 208 19 163 q 50 307 38 253 q 89 489 79 438 l 114 617 q 159 829 142 767 q 199 892 176 892 q 262 869 222 892 q 331 813 301 846 q 361 749 361 779 q 353 699 361 731 q 342 657 344 667 q 322 583 338 643 q 292 444 307 524 q 264 264 285 407 q 230 63 244 125 q 190 0 215 0 z "},"॥":{"ha":731,"x_min":19,"x_max":722,"o":"m 190 0 q 119 24 160 0 q 50 80 79 47 q 21 140 21 113 q 28 208 19 163 q 50 307 38 253 q 89 489 79 438 l 114 617 q 159 829 142 767 q 199 892 176 892 q 262 869 222 892 q 331 813 301 846 q 361 749 361 779 q 353 699 361 731 q 342 657 344 667 q 322 583 338 643 q 292 444 307 524 q 264 264 285 407 q 230 63 244 125 q 190 0 215 0 m 551 0 q 481 24 521 0 q 411 80 440 47 q 382 140 382 113 q 390 208 381 163 q 411 307 399 253 q 450 489 440 438 l 475 617 q 520 829 503 767 q 560 892 538 892 q 623 869 583 892 q 692 813 663 846 q 722 749 722 779 q 714 699 722 731 q 703 657 706 667 q 683 583 699 643 q 653 444 668 524 q 625 264 646 407 q 591 63 606 125 q 551 0 576 0 z "},"₹":{"ha":844,"x_min":60,"x_max":889,"o":"m 808 740 q 861 650 861 710 q 825 563 861 603 l 694 558 q 616 437 675 492 q 471 349 557 382 q 286 314 385 315 q 344 251 311 278 q 426 200 378 224 q 496 229 460 211 q 567 267 532 247 q 642 144 642 214 q 616 74 642 107 q 541 20 590 40 q 426 0 492 0 q 277 60 356 0 q 146 204 199 119 q 93 357 93 289 q 135 447 93 417 q 178 462 151 458 q 251 467 206 465 q 382 492 326 469 q 469 550 438 514 q 118 531 396 544 q 75 571 90 546 q 60 624 60 596 q 108 710 60 679 q 481 718 293 710 q 422 783 461 751 q 132 771 367 779 q 101 808 111 785 q 90 856 90 831 q 133 950 90 911 q 517 956 322 950 q 836 972 711 963 q 876 933 863 957 q 889 883 889 910 q 850 796 889 833 q 625 792 769 797 q 671 731 656 758 q 808 740 760 736 z "},"◌":{"ha":890,"x_min":43,"x_max":838,"o":"m 400 797 q 444 781 428 797 q 461 736 461 764 q 444 692 461 710 q 400 675 428 675 q 356 692 374 675 q 339 736 339 710 q 356 781 339 764 q 400 797 374 797 m 576 778 q 619 760 603 778 q 636 715 636 743 q 619 672 636 690 q 576 654 601 654 q 532 672 550 654 q 514 715 514 690 q 532 760 514 743 q 576 778 550 778 m 236 738 q 280 720 263 738 q 297 676 297 703 q 280 631 297 649 q 236 614 263 614 q 192 631 210 614 q 175 676 175 649 q 192 720 175 703 q 236 738 210 738 m 707 683 q 751 666 733 683 q 768 621 768 649 q 751 577 768 594 q 707 560 733 560 q 663 577 681 560 q 646 621 646 594 q 663 665 646 647 q 707 683 681 683 m 125 585 q 168 567 150 585 q 186 524 186 550 q 168 480 186 497 q 125 463 150 463 q 79 480 97 463 q 61 524 61 497 q 79 567 61 550 q 125 585 97 585 m 776 518 q 820 501 803 518 q 838 457 838 483 q 820 413 838 431 q 776 396 803 396 q 733 413 750 396 q 715 457 715 431 q 733 501 715 485 q 776 518 750 518 m 104 411 q 148 394 131 411 q 165 349 165 376 q 148 306 165 322 q 104 289 131 289 q 60 306 78 289 q 43 349 43 322 q 60 393 43 375 q 104 411 78 411 m 764 333 q 806 315 789 333 q 824 271 824 297 q 806 227 824 244 q 764 210 789 210 q 719 227 738 210 q 701 271 701 244 q 719 316 701 299 q 764 333 738 333 m 176 249 q 220 231 203 249 q 238 188 238 214 q 220 144 238 161 q 176 126 203 126 q 133 144 150 126 q 115 188 115 161 q 133 231 115 214 q 176 249 150 249 m 661 196 q 706 178 688 196 q 724 135 724 161 q 706 91 724 108 q 661 74 688 74 q 617 91 635 74 q 600 135 600 108 q 617 178 600 161 q 661 196 635 196 m 318 144 q 362 126 344 144 q 379 83 379 108 q 362 38 379 56 q 318 19 344 19 q 274 38 292 19 q 256 83 256 56 q 274 126 256 108 q 318 144 292 144 m 493 122 q 538 105 521 122 q 556 61 556 88 q 538 17 556 35 q 493 0 521 0 q 449 17 467 0 q 432 61 432 35 q 449 106 432 89 q 493 122 467 122 z "},"!":{"ha":465,"x_min":54,"x_max":468,"o":"m 304 360 q 285 357 299 357 q 224 375 257 357 q 168 419 192 393 q 144 464 144 444 q 169 686 143 510 q 231 1007 194 863 q 300 1151 267 1151 q 373 1130 333 1151 q 440 1077 413 1108 q 468 1021 468 1046 q 436 914 468 1000 q 401 811 419 867 q 374 707 383 756 q 347 522 358 636 q 330 405 339 443 q 304 360 321 367 m 164 0 q 115 26 140 0 q 72 88 89 51 q 54 151 54 124 q 87 201 54 175 q 165 246 119 228 q 247 264 211 264 q 294 240 271 264 q 333 181 318 215 q 347 124 347 147 q 315 69 347 99 q 238 20 282 40 q 164 0 194 0 z "},"\"":{"ha":672,"x_min":89,"x_max":674,"o":"m 119 961 q 214 985 164 985 q 290 968 256 985 q 340 921 324 951 q 291 762 325 856 q 228 607 257 668 q 178 597 201 597 q 126 608 150 597 q 89 639 103 618 q 119 961 104 750 m 453 961 q 547 985 497 985 q 623 968 589 985 q 674 921 657 951 q 624 762 658 856 q 561 607 590 668 q 511 597 535 597 q 460 608 483 597 q 422 639 436 618 q 453 961 438 750 z "},"#":{"ha":1065,"x_min":4,"x_max":1086,"o":"m 1033 813 q 1073 772 1060 797 q 1086 715 1086 746 q 1075 662 1086 688 q 1046 618 1064 636 l 881 611 l 819 394 l 963 410 q 1002 369 989 394 q 1015 313 1015 343 q 1004 259 1015 285 q 975 215 993 233 l 775 207 q 728 47 747 97 q 690 -3 710 -3 q 619 14 660 -3 q 549 56 578 31 q 518 103 519 81 q 539 189 518 122 l 390 176 q 349 41 367 85 q 313 -3 332 -3 q 243 14 282 -3 q 176 56 204 31 q 146 103 147 81 q 158 165 146 118 l 64 158 q 20 199 36 172 q 4 258 4 226 q 46 351 4 314 l 224 356 l 288 569 l 133 557 q 90 598 106 571 q 74 657 74 625 q 115 750 74 713 l 325 757 q 370 928 353 879 q 415 976 388 976 q 481 954 443 976 q 548 903 519 932 q 576 853 576 874 q 561 774 576 828 l 708 788 q 748 933 731 889 q 792 976 765 976 q 858 954 819 976 q 924 903 896 932 q 953 853 953 874 q 946 806 953 838 l 1033 813 m 499 594 l 431 354 l 607 369 l 676 608 l 499 594 z "},"$":{"ha":686,"x_min":-32,"x_max":692,"o":"m 692 724 q 652 640 692 672 q 554 607 613 607 q 465 628 511 607 q 474 707 474 672 q 465 774 474 749 q 442 800 456 800 q 390 774 419 800 q 341 710 361 749 q 321 636 321 672 q 366 538 321 582 q 499 432 411 493 q 611 344 574 379 q 649 271 649 308 q 574 125 649 190 q 381 24 500 60 q 325 -135 357 -135 q 246 -120 288 -135 q 176 -82 204 -106 q 147 -33 147 -58 q 158 21 147 -17 q 29 93 86 44 q -29 179 -28 142 q 11 278 -32 240 q 126 317 54 317 q 200 307 163 317 q 229 175 217 215 q 338 210 290 190 q 424 260 385 229 q 198 451 299 346 q 97 642 97 557 q 128 753 97 692 q 215 870 160 814 q 342 960 271 926 q 362 1095 349 1049 q 404 1142 375 1142 q 473 1121 433 1142 q 542 1071 513 1100 q 571 1021 571 1042 q 558 938 571 993 q 654 840 617 900 q 692 724 692 779 z "},"%":{"ha":1172,"x_min":111,"x_max":1076,"o":"m 919 904 q 889 819 919 879 q 790 636 858 758 q 671 418 694 463 q 589 257 625 329 q 457 7 503 86 q 389 -72 411 -72 q 334 -51 367 -72 q 277 -1 301 -29 q 253 44 253 28 q 276 108 253 65 q 357 250 299 151 q 493 488 447 397 q 624 753 550 597 q 735 977 697 907 q 796 1047 774 1047 q 850 1021 821 1047 q 899 959 879 994 q 919 904 919 924 m 535 754 q 502 635 535 699 q 412 528 469 571 q 282 485 354 485 q 207 508 247 485 q 139 564 167 531 q 111 625 111 597 q 164 819 111 729 q 231 835 194 838 q 228 851 228 846 q 249 899 228 878 q 308 929 271 919 q 423 896 371 924 q 505 830 475 868 q 535 754 535 792 m 308 763 q 274 696 286 733 q 263 619 263 658 q 264 593 263 601 q 396 771 371 636 q 304 790 360 790 q 308 763 308 778 m 1076 269 q 1044 150 1076 214 q 953 43 1011 86 q 824 0 896 0 q 749 23 789 0 q 681 79 708 46 q 653 140 653 113 q 706 335 653 244 q 772 350 736 353 q 769 367 769 361 q 791 414 769 393 q 850 444 813 435 q 965 411 913 439 q 1047 345 1017 383 q 1076 269 1076 307 m 850 278 q 816 211 828 249 q 804 135 804 174 q 806 108 804 117 q 938 286 913 151 q 846 306 901 306 q 850 278 850 293 z "},"&":{"ha":1083,"x_min":22,"x_max":1024,"o":"m 903 293 q 986 239 960 272 q 1013 156 1013 206 q 963 87 1013 124 q 847 25 914 50 q 729 0 779 0 q 647 31 689 0 q 583 107 604 63 q 264 0 424 0 q 158 38 215 0 q 62 126 101 75 q 22 213 22 178 q 127 356 22 271 q 354 507 232 440 q 214 581 272 532 q 156 678 156 629 q 218 788 156 722 q 369 908 281 854 q 531 972 458 961 q 611 938 583 965 q 639 869 639 910 q 614 792 639 832 q 478 736 533 771 q 372 644 422 701 q 535 601 421 601 q 667 617 603 601 q 694 775 682 724 q 728 826 707 826 q 799 808 764 826 q 857 764 835 789 q 878 719 879 739 q 851 629 874 674 l 978 622 q 1012 602 1000 619 q 1024 560 1024 585 q 1012 509 1024 535 q 978 464 1000 483 l 804 463 q 753 204 776 351 q 903 293 843 247 m 236 182 q 503 250 390 182 q 628 460 617 318 q 397 360 503 442 q 236 182 290 278 z "},"'":{"ha":353,"x_min":89,"x_max":340,"o":"m 119 961 q 214 985 164 985 q 290 968 256 985 q 340 921 324 951 q 291 762 325 856 q 228 607 257 668 q 178 597 201 597 q 126 608 150 597 q 89 639 103 618 q 119 961 104 750 z "},"(":{"ha":571,"x_min":61,"x_max":632,"o":"m 456 1121 q 585 1079 538 1125 q 628 961 632 1033 q 369 660 468 829 q 231 306 271 490 q 313 111 258 182 q 476 -25 368 40 q 478 -49 478 -33 q 444 -139 478 -101 q 356 -176 410 -176 q 213 -98 281 -176 q 103 97 144 -19 q 61 321 61 214 q 115 581 61 429 q 260 879 169 732 q 456 1121 351 1026 z "},")":{"ha":522,"x_min":-51,"x_max":479,"o":"m 131 -181 q 106 -182 122 -182 q -8 -140 35 -182 q -51 -32 -51 -97 q 189 285 100 110 q 308 646 278 460 q 215 838 272 768 q 49 965 158 907 q 44 999 44 982 q 75 1085 44 1049 q 157 1121 106 1121 q 310 1041 235 1121 q 432 842 385 961 q 479 617 479 724 q 432 356 479 506 q 305 61 385 206 q 131 -181 225 -83 z "},"*":{"ha":608,"x_min":133,"x_max":629,"o":"m 590 931 q 619 906 610 922 q 629 869 629 889 q 619 832 629 850 q 592 806 610 814 l 419 857 l 574 768 q 576 749 576 754 q 555 699 576 719 q 506 678 533 678 q 483 682 494 678 l 394 835 l 438 658 q 413 633 428 642 q 381 625 397 625 q 340 637 358 625 q 313 669 322 649 l 360 835 l 264 676 q 243 674 250 674 q 192 693 213 674 q 171 740 171 713 q 174 757 171 746 l 335 857 l 172 807 q 143 832 153 815 q 133 868 133 849 q 143 906 133 888 q 171 932 153 924 l 339 892 l 192 983 q 188 1004 188 994 q 209 1053 188 1032 q 260 1074 231 1074 q 283 1069 271 1074 l 367 915 l 338 1083 q 363 1108 347 1100 q 394 1117 378 1117 q 435 1105 417 1117 q 463 1072 453 1093 l 403 913 l 504 1058 q 529 1063 517 1063 q 574 1043 556 1063 q 592 997 592 1024 q 585 968 592 985 l 422 888 l 590 931 z "},"+":{"ha":624,"x_min":24,"x_max":618,"o":"m 569 569 q 606 530 593 554 q 618 478 618 506 q 606 422 618 449 q 575 375 594 394 q 390 383 514 381 q 385 215 385 307 q 342 190 367 199 q 292 181 317 181 q 231 195 258 181 q 190 238 204 210 q 219 379 206 299 l 158 372 q 78 363 106 367 q 38 402 53 376 q 24 458 24 428 q 69 556 24 515 q 240 547 140 550 l 249 733 q 338 771 288 771 q 400 753 372 771 q 440 706 428 736 q 410 553 426 614 q 569 569 501 557 z "},",":{"ha":465,"x_min":26,"x_max":335,"o":"m 204 26 q 131 3 167 3 q 81 29 104 3 q 42 91 57 56 q 26 150 26 126 q 54 198 26 174 q 124 238 82 222 q 204 254 165 254 q 298 200 261 254 q 335 68 335 146 q 292 -76 335 -6 q 165 -189 250 -146 q 93 -110 90 -187 q 217 11 157 -65 l 204 26 z "},"-":{"ha":644,"x_min":51,"x_max":585,"o":"m 111 360 q 67 401 83 374 q 51 460 51 428 q 93 553 51 515 q 260 557 176 553 q 425 568 343 561 q 532 575 449 569 q 572 534 558 560 q 585 478 585 508 q 574 424 585 450 q 544 381 563 399 q 111 360 375 378 z "},".":{"ha":438,"x_min":26,"x_max":319,"o":"m 136 0 q 87 26 113 0 q 44 88 61 51 q 26 151 26 124 q 59 201 26 175 q 138 246 92 228 q 219 264 183 264 q 267 240 243 264 q 305 181 290 215 q 319 124 319 147 q 287 69 319 99 q 210 20 254 40 q 136 0 167 0 z "},"/":{"ha":528,"x_min":26,"x_max":514,"o":"m 196 -126 q 125 -108 165 -126 q 56 -64 85 -90 q 26 -14 26 -37 q 46 69 26 6 q 90 213 65 133 q 182 511 161 435 q 242 747 199 571 q 303 981 279 908 q 356 1053 328 1053 q 421 1029 383 1053 q 486 974 458 1006 q 514 921 514 943 q 499 840 514 896 q 449 674 483 785 q 374 425 404 533 l 317 213 q 245 -47 271 33 q 196 -126 219 -126 z "},":":{"ha":453,"x_min":42,"x_max":400,"o":"m 217 482 q 167 508 193 482 q 124 569 142 533 q 107 633 107 606 q 140 683 107 657 q 218 728 172 710 q 300 746 264 746 q 347 722 324 746 q 385 663 371 697 q 400 606 400 629 q 367 551 400 581 q 291 502 335 522 q 217 482 247 482 m 151 0 q 102 26 128 0 q 59 88 76 51 q 42 151 42 124 q 74 201 42 175 q 153 246 107 228 q 235 264 199 264 q 282 240 258 264 q 320 181 306 215 q 335 124 335 147 q 302 69 335 99 q 226 20 269 40 q 151 0 182 0 z "},";":{"ha":453,"x_min":42,"x_max":400,"o":"m 217 482 q 167 508 193 482 q 124 569 142 533 q 107 633 107 606 q 140 683 107 657 q 218 728 172 710 q 300 746 264 746 q 347 722 324 746 q 385 663 371 697 q 400 606 400 629 q 367 551 400 581 q 291 502 335 522 q 217 482 247 482 m 219 26 q 146 3 182 3 q 96 29 119 3 q 57 91 72 56 q 42 150 42 126 q 69 198 42 174 q 139 238 97 222 q 219 254 181 254 q 313 200 276 254 q 350 68 350 146 q 308 -76 350 -6 q 181 -189 265 -146 q 108 -110 106 -187 q 232 11 172 -65 l 219 26 z "},"<":{"ha":642,"x_min":38,"x_max":642,"o":"m 40 435 q 38 461 38 451 q 65 549 38 513 l 524 843 q 610 799 579 833 q 642 721 642 765 q 622 654 642 689 l 199 458 l 561 294 q 582 229 582 261 q 544 149 582 182 q 447 117 506 117 l 40 435 z "},"=":{"ha":639,"x_min":21,"x_max":621,"o":"m 99 451 q 55 492 71 465 q 39 551 39 519 q 81 644 39 607 q 568 667 290 646 q 608 626 594 651 q 621 569 621 600 q 610 516 621 542 q 581 472 599 490 q 99 451 344 468 m 81 175 q 37 216 53 189 q 21 275 21 243 q 63 368 21 331 q 550 390 272 369 q 590 349 576 375 q 603 293 603 324 q 592 240 603 265 q 563 196 581 214 q 81 175 326 192 z "},">":{"ha":656,"x_min":43,"x_max":640,"o":"m 172 108 q 78 151 113 114 q 43 240 43 188 q 56 301 43 271 l 467 476 l 104 661 q 82 728 82 693 q 119 808 82 774 q 215 849 157 843 l 633 535 q 640 497 640 521 q 621 421 640 457 l 172 108 z "},"?":{"ha":763,"x_min":153,"x_max":740,"o":"m 740 963 q 709 850 740 900 q 633 763 678 800 q 517 679 589 726 q 406 599 444 631 q 353 528 368 567 q 433 537 400 526 q 521 574 465 547 q 560 525 546 554 q 575 471 575 496 q 524 390 575 422 q 382 358 474 358 q 292 393 338 358 q 217 478 247 428 q 188 568 188 528 q 234 664 188 619 q 374 769 281 708 q 506 868 461 828 q 564 956 551 908 q 531 958 542 958 q 390 928 463 958 q 260 860 317 899 q 183 906 213 869 q 153 986 153 942 q 209 1067 153 1029 q 349 1128 265 1106 q 510 1151 432 1151 q 619 1119 565 1151 q 706 1042 672 1088 q 740 963 740 997 m 388 264 q 435 240 411 264 q 473 181 458 215 q 488 124 488 147 q 455 69 488 99 q 378 20 422 40 q 304 0 335 0 q 255 26 281 0 q 212 88 229 51 q 194 151 194 124 q 227 201 194 175 q 306 246 260 228 q 388 264 351 264 z "},"@":{"ha":1443,"x_min":36,"x_max":1403,"o":"m 461 -140 q 588 -105 540 -121 q 697 -61 636 -89 q 769 -117 739 -78 q 799 -197 799 -157 q 731 -294 799 -261 q 533 -326 663 -326 q 293 -242 407 -326 q 108 -25 179 -157 q 36 238 38 107 q 137 608 36 431 q 431 897 238 786 q 892 1008 625 1008 q 1145 940 1028 1008 q 1333 765 1263 872 q 1403 549 1403 657 q 1344 286 1403 414 q 1189 79 1285 158 q 988 0 1093 0 q 918 22 958 0 q 848 71 878 43 q 818 115 818 99 q 831 151 818 126 q 853 194 843 176 q 869 222 864 213 l 838 239 q 708 66 771 132 q 585 0 644 0 q 499 35 544 0 q 422 119 453 69 q 390 207 390 168 q 438 433 390 318 q 570 624 485 549 q 764 700 656 700 q 842 667 801 700 q 893 599 882 633 q 912 646 900 625 q 938 667 924 667 q 1011 644 971 667 q 1080 590 1051 621 q 1108 543 1108 560 q 1085 454 1107 518 q 1025 286 1064 390 q 986 182 997 214 q 1151 312 1092 222 q 1211 510 1211 401 q 1176 669 1211 590 q 1072 811 1142 747 q 868 838 968 838 q 541 756 685 838 q 317 538 397 674 q 238 249 238 403 q 295 31 240 131 q 461 -140 350 -69 m 592 172 q 772 327 696 236 q 878 528 849 418 q 813 543 840 543 q 664 434 722 543 q 592 172 606 325 z "},"A":{"ha":772,"x_min":-37,"x_max":699,"o":"m 679 346 q 690 234 681 324 q 699 85 699 144 q 681 1 699 7 q 663 0 675 0 q 587 15 632 0 q 506 51 542 29 q 465 94 471 74 q 460 269 460 115 q 263 247 310 251 q 176 7 225 138 q 107 -1 139 -1 q 13 26 51 -1 q -37 108 -25 53 l -10 171 q 255 742 143 511 q 400 972 367 972 q 477 953 426 972 q 569 906 528 933 q 615 856 610 878 q 642 693 625 817 q 668 454 658 569 l 679 346 m 456 756 q 335 446 394 611 q 461 458 399 450 q 456 756 461 650 z "},"B":{"ha":839,"x_min":75,"x_max":799,"o":"m 578 443 q 722 381 672 428 q 772 274 772 335 q 709 140 772 206 q 535 34 646 75 q 293 -7 425 -7 q 201 25 253 -7 q 112 99 149 57 q 75 171 75 142 q 135 476 75 197 q 193 764 179 685 l 144 757 q 99 867 99 806 q 124 951 99 911 q 328 979 244 979 q 563 939 454 979 q 735 832 671 899 q 799 689 799 765 q 741 545 799 613 q 578 443 683 478 m 351 510 q 534 570 471 526 q 597 672 597 614 q 553 741 597 713 q 439 769 510 769 q 393 767 410 769 q 379 681 383 704 q 351 510 365 582 m 281 161 q 470 208 407 169 q 533 304 533 247 q 509 358 533 336 q 435 386 485 381 q 342 381 392 389 l 333 350 q 281 161 297 228 z "},"C":{"ha":760,"x_min":26,"x_max":739,"o":"m 672 135 q 580 72 643 106 q 442 16 517 39 q 304 -7 368 -7 q 189 38 256 -7 q 74 146 122 83 q 26 257 26 208 q 77 576 28 406 q 226 867 126 747 q 465 986 325 986 q 602 944 539 986 q 701 842 665 903 q 738 726 738 781 q 699 640 739 669 q 597 610 658 610 q 508 626 553 610 q 510 697 510 651 q 501 774 510 749 q 469 799 493 799 q 373 701 422 799 q 290 463 324 604 q 253 203 256 321 q 422 258 344 219 q 557 346 499 296 q 653 290 619 331 q 688 199 688 249 q 672 135 688 168 z "},"D":{"ha":829,"x_min":42,"x_max":800,"o":"m 179 986 q 490 903 347 972 q 717 728 633 833 q 800 508 800 624 q 711 285 800 407 q 495 78 622 163 q 264 -7 368 -7 q 176 28 229 -7 q 82 108 122 63 q 42 179 42 153 q 69 311 42 203 q 115 514 97 424 q 146 636 122 549 q 160 687 149 649 q 176 757 171 725 l 119 760 q 97 849 97 804 q 118 926 97 890 q 179 986 139 961 m 264 175 q 495 351 403 247 q 588 547 588 456 q 523 651 588 601 q 375 718 458 701 q 325 475 358 633 q 264 175 283 278 z "},"E":{"ha":768,"x_min":89,"x_max":765,"o":"m 713 972 q 752 930 739 957 q 765 871 765 903 q 754 815 765 843 q 725 769 743 788 q 426 756 546 767 q 382 567 403 671 q 617 600 521 578 q 659 556 644 583 q 674 497 674 529 q 662 442 674 468 q 629 401 650 417 q 578 397 603 399 q 529 394 553 396 l 350 382 l 325 257 l 311 190 q 465 213 396 199 q 610 254 533 228 q 670 203 649 236 q 692 132 692 171 q 649 33 692 76 q 456 8 563 17 q 257 0 349 0 q 192 25 232 0 q 120 83 151 50 q 89 140 89 117 q 121 301 89 161 q 167 515 144 404 q 182 592 182 592 q 211 749 204 700 l 153 744 q 110 785 126 758 q 94 844 94 813 q 138 943 94 900 q 469 951 328 946 q 713 972 610 957 z "},"F":{"ha":718,"x_min":90,"x_max":765,"o":"m 713 972 q 752 930 739 957 q 765 871 765 903 q 754 815 765 843 q 725 769 743 788 q 426 756 567 767 q 397 626 419 726 q 379 539 394 614 q 614 572 528 551 q 656 528 642 556 q 671 469 671 501 q 659 415 671 440 q 626 374 647 389 q 574 369 600 371 q 525 367 549 368 l 351 354 q 329 186 340 283 q 307 41 317 82 q 275 0 297 0 q 197 24 240 0 q 122 81 153 49 q 90 135 90 114 q 105 226 90 156 q 138 379 119 297 q 211 749 200 649 l 153 744 q 110 785 126 758 q 94 844 94 813 q 138 943 94 900 q 469 951 328 946 q 713 972 610 957 z "},"G":{"ha":779,"x_min":19,"x_max":733,"o":"m 456 82 q 351 23 415 50 q 251 -4 288 -4 q 152 45 208 -4 q 58 163 96 94 q 22 285 19 232 q 90 597 32 433 q 251 874 149 761 q 488 986 354 986 q 615 949 558 986 q 702 853 671 913 q 733 731 733 794 q 700 656 733 683 q 615 628 667 628 q 522 649 572 628 q 525 693 525 682 q 510 772 525 746 q 469 799 496 799 q 368 702 425 799 q 269 463 311 606 q 221 189 226 319 q 528 256 357 190 l 533 319 q 488 317 506 317 q 413 325 444 317 q 375 350 381 333 q 369 388 369 363 q 378 457 369 421 q 399 506 388 493 q 447 535 418 528 q 531 542 475 542 q 678 495 636 542 q 721 358 721 449 q 696 174 721 290 q 635 -29 671 58 q 565 -117 599 -117 q 503 -104 538 -117 q 446 -73 469 -92 q 422 -39 422 -54 q 438 14 424 -17 q 469 68 453 44 l 456 82 z "},"H":{"ha":860,"x_min":24,"x_max":861,"o":"m 676 972 q 748 949 703 972 q 827 893 793 925 q 861 838 861 861 q 835 726 861 825 q 763 421 786 551 q 733 206 749 339 q 709 46 719 92 q 676 0 699 0 q 601 23 644 0 q 524 78 557 46 q 492 131 492 110 q 501 205 490 150 q 525 326 511 260 l 538 386 q 286 358 410 367 q 267 203 272 265 q 242 45 253 90 q 210 0 232 0 q 134 23 178 0 q 58 78 90 46 q 25 131 25 110 q 38 224 24 153 q 57 317 53 296 q 78 419 63 344 q 103 557 93 493 l 114 622 q 163 875 140 778 q 210 972 186 972 q 281 949 236 972 q 360 893 326 925 q 394 838 394 861 q 368 726 394 825 q 349 651 363 704 q 324 553 335 599 q 574 579 453 563 q 579 610 576 599 q 628 868 604 764 q 676 972 651 972 z "},"I":{"ha":393,"x_min":24,"x_max":394,"o":"m 210 0 q 134 23 178 0 q 58 78 90 46 q 25 131 25 110 q 38 224 24 153 q 57 317 53 296 q 78 419 63 344 q 103 557 93 493 l 114 622 q 163 875 140 778 q 210 972 186 972 q 281 949 236 972 q 360 893 326 925 q 394 838 394 861 q 368 726 394 825 q 296 421 319 551 q 267 206 282 339 q 242 46 253 92 q 210 0 232 0 z "},"J":{"ha":694,"x_min":-11,"x_max":694,"o":"m 533 972 q 594 947 556 972 q 664 889 633 922 q 694 836 694 856 q 647 615 693 800 l 618 490 l 604 419 q 563 222 579 293 q 533 128 547 151 q 472 69 517 99 q 373 19 428 39 q 269 0 318 0 q 152 42 219 0 q 37 151 85 85 q -11 288 -11 218 q 33 391 -11 353 q 133 429 76 429 q 218 401 185 429 q 217 361 217 388 q 226 266 217 311 q 253 194 236 221 q 286 168 269 168 q 353 260 321 168 q 411 490 386 353 q 435 608 421 543 q 464 769 458 719 q 365 758 403 761 q 301 752 350 757 q 214 739 253 747 q 166 783 183 753 q 149 849 149 813 q 176 933 149 896 q 356 963 258 954 q 533 972 454 972 z "},"K":{"ha":801,"x_min":24,"x_max":788,"o":"m 619 957 q 742 926 697 960 q 788 832 788 892 q 782 788 788 808 q 371 451 599 576 q 548 313 449 376 q 739 213 647 249 q 743 168 743 190 q 705 56 743 103 q 596 0 667 10 q 422 138 494 60 q 275 335 350 217 q 250 78 263 157 q 210 0 238 0 q 134 23 178 0 q 58 78 90 46 q 25 131 25 110 q 38 224 24 153 q 57 317 53 296 q 78 419 63 344 q 103 557 93 493 l 114 622 q 163 875 140 778 q 210 972 186 972 q 281 949 236 972 q 360 893 326 925 q 394 838 394 861 q 369 742 394 822 q 322 603 344 661 q 470 754 406 674 q 619 957 535 835 z "},"L":{"ha":692,"x_min":25,"x_max":644,"o":"m 563 260 q 623 208 601 242 q 644 136 644 175 q 601 36 644 79 q 417 8 515 18 q 239 -1 318 -1 q 190 0 206 -1 q 126 26 165 1 q 56 84 86 51 q 25 140 25 117 q 56 297 25 165 q 110 557 85 421 l 121 618 q 173 874 149 775 q 222 972 197 972 q 293 949 249 972 q 372 893 338 925 q 406 838 406 861 q 391 770 406 824 q 374 704 376 717 q 301 421 328 542 q 247 190 283 335 q 563 260 410 207 z "},"M":{"ha":985,"x_min":24,"x_max":981,"o":"m 210 0 q 134 23 178 0 q 58 78 90 46 q 25 131 25 110 q 38 224 24 153 q 57 317 53 296 q 78 419 63 344 q 103 557 93 493 l 114 622 q 163 875 140 778 q 210 972 186 972 q 274 953 233 972 q 351 903 315 933 q 400 847 388 874 q 458 633 422 797 q 496 476 483 519 q 649 753 556 567 q 740 922 708 871 q 796 972 771 972 q 867 949 822 972 q 947 893 913 925 q 981 838 981 861 q 964 728 981 818 q 943 617 947 639 l 907 421 q 878 206 893 339 q 853 46 864 92 q 821 0 843 0 q 745 23 789 0 q 669 78 701 46 q 636 131 636 110 q 647 208 635 149 q 674 342 658 267 q 688 410 686 401 l 738 564 l 718 571 l 704 543 q 617 370 650 432 q 564 282 585 308 q 514 255 550 265 q 443 244 478 244 q 394 257 407 244 q 373 303 382 268 q 349 414 364 339 q 333 488 346 429 q 306 596 321 547 l 296 421 q 267 206 282 339 q 242 46 253 92 q 210 0 232 0 z "},"N":{"ha":860,"x_min":24,"x_max":861,"o":"m 676 972 q 748 949 703 972 q 827 893 793 925 q 861 838 861 861 q 835 726 861 825 q 763 421 786 551 q 733 206 749 339 q 709 46 719 92 q 676 0 699 0 q 583 34 636 0 q 490 118 529 68 q 432 226 469 146 q 359 408 394 307 q 306 596 324 508 l 296 421 q 267 206 282 339 q 242 46 253 92 q 210 0 232 0 q 134 23 178 0 q 58 78 90 46 q 25 131 25 110 q 38 224 24 153 q 57 317 53 296 q 78 419 63 344 q 103 557 93 493 l 114 622 q 163 875 140 778 q 210 972 186 972 q 274 952 233 972 q 349 903 315 932 q 393 847 383 874 q 553 375 458 672 l 569 557 l 581 622 q 630 875 607 778 q 676 972 653 972 z "},"O":{"ha":793,"x_min":21,"x_max":783,"o":"m 390 986 q 583 938 492 986 q 728 809 674 889 q 783 643 783 729 q 711 355 783 508 q 528 97 639 201 q 311 -7 418 -7 q 187 40 256 -7 q 69 151 118 86 q 21 265 21 215 q 68 538 21 344 q 156 824 115 732 q 242 838 201 838 q 286 832 269 838 q 311 926 283 883 q 390 986 339 969 m 247 183 q 471 370 381 232 q 599 674 561 508 q 498 719 560 701 q 365 739 436 738 q 371 697 368 725 q 247 183 243 458 z "},"P":{"ha":808,"x_min":72,"x_max":813,"o":"m 257 0 q 181 24 225 0 q 105 79 138 47 q 72 132 72 111 q 140 500 72 168 q 167 633 149 539 q 193 768 186 726 l 142 760 q 99 861 99 800 q 122 950 99 904 q 350 979 235 979 q 577 947 472 979 q 747 849 682 915 q 813 685 813 783 q 755 519 813 597 q 588 389 697 440 q 329 326 478 338 q 314 206 319 260 q 290 50 301 100 q 257 0 279 0 m 350 499 q 537 572 471 522 q 603 682 603 621 q 562 752 603 724 q 451 781 521 781 q 397 776 426 781 l 375 646 q 350 499 356 536 z "},"Q":{"ha":818,"x_min":21,"x_max":843,"o":"m 724 81 q 833 -81 843 19 q 785 -156 829 -119 q 672 -215 740 -192 q 529 -237 603 -237 l 499 -236 q 388 -162 435 -232 q 317 0 342 -93 q 188 60 254 15 q 76 159 121 104 q 26 258 31 214 q 60 530 21 335 q 135 824 99 725 q 192 836 168 833 q 251 838 215 839 q 276 930 251 890 q 351 986 301 969 q 568 935 468 988 q 728 799 668 882 q 789 633 788 717 q 714 313 792 474 q 472 39 636 153 l 496 -21 q 724 81 589 -1 m 596 674 q 493 719 554 701 q 358 739 432 738 q 367 697 365 721 q 247 308 271 489 q 327 281 290 310 q 376 210 364 253 q 528 428 471 301 q 596 674 585 556 z "},"R":{"ha":840,"x_min":72,"x_max":813,"o":"m 625 -8 q 450 133 526 49 q 326 326 374 218 l 321 268 q 294 67 307 133 q 257 0 281 0 q 181 24 225 0 q 105 79 138 47 q 72 132 72 111 q 140 500 72 168 q 167 633 149 539 q 193 768 186 726 l 142 760 q 99 861 99 800 q 122 950 99 904 q 350 979 235 979 q 577 947 472 979 q 747 849 682 915 q 813 685 813 783 q 722 487 813 569 q 457 376 632 404 q 597 272 526 311 q 774 196 667 232 q 779 147 779 174 q 740 42 779 83 q 625 -8 701 0 m 353 511 q 533 569 463 522 q 603 682 603 617 q 562 752 603 724 q 451 781 521 781 q 397 776 426 781 q 376 654 375 649 q 353 511 364 586 z "},"S":{"ha":686,"x_min":-32,"x_max":692,"o":"m 447 626 q 458 738 458 696 q 453 783 458 767 q 442 800 449 800 q 394 765 421 800 q 348 683 367 731 q 329 597 329 635 q 376 502 329 550 q 513 385 422 454 q 614 302 581 335 q 649 243 647 269 q 588 128 650 185 q 431 36 525 72 q 257 0 338 0 q 128 31 194 0 q 17 105 61 63 q -29 179 -28 147 q 11 278 -32 240 q 126 317 54 317 q 200 307 163 317 q 229 175 217 215 q 407 247 311 196 q 97 614 97 482 q 144 767 97 678 q 269 922 192 857 q 433 986 347 986 q 557 943 497 986 q 654 838 617 900 q 692 721 692 775 q 649 637 692 668 q 544 606 607 606 q 447 626 496 606 z "},"T":{"ha":788,"x_min":86,"x_max":849,"o":"m 796 972 q 835 930 822 957 q 849 871 849 903 q 838 815 849 843 q 808 769 826 788 q 746 771 788 771 q 650 768 719 771 l 576 767 q 543 579 583 807 l 515 421 q 486 206 501 339 q 462 46 472 92 q 429 0 451 0 q 353 23 397 0 q 277 78 310 46 q 244 131 244 110 q 278 319 243 163 q 315 515 304 451 q 338 631 315 513 q 361 760 357 736 l 144 733 q 102 774 118 747 q 86 833 86 801 q 129 932 86 889 q 327 947 208 943 q 468 951 446 950 q 681 959 614 956 q 796 972 749 963 z "},"U":{"ha":815,"x_min":36,"x_max":801,"o":"m 785 935 q 801 739 801 833 q 735 361 801 532 q 561 92 668 190 q 343 -7 454 -7 q 215 34 288 -7 q 89 133 142 75 q 36 235 36 190 q 69 547 36 332 q 149 921 103 763 q 244 943 194 943 q 336 915 297 943 q 389 835 375 886 q 310 572 349 742 q 272 296 272 403 q 313 192 272 192 q 429 269 372 192 q 522 469 486 346 q 558 718 558 592 q 536 896 558 813 q 683 972 606 972 q 785 935 738 972 z "},"V":{"ha":786,"x_min":107,"x_max":832,"o":"m 382 0 q 306 23 356 0 q 213 77 256 46 q 165 131 171 108 q 140 386 158 161 q 131 518 135 476 q 125 572 128 554 q 107 842 107 758 q 128 940 107 935 q 146 942 133 942 q 222 927 176 942 q 301 890 267 913 q 342 847 336 868 q 344 785 344 839 q 340 597 344 708 q 335 318 335 417 l 335 268 q 599 961 453 526 q 683 975 640 975 q 780 944 740 975 q 832 851 819 914 q 382 0 442 0 z "},"W":{"ha":994,"x_min":25,"x_max":986,"o":"m 711 0 q 617 19 669 0 q 526 63 565 38 q 481 108 486 89 q 472 185 476 122 q 465 271 467 249 l 460 351 q 316 101 383 201 q 210 0 249 0 q 134 23 178 0 q 58 78 90 46 q 25 131 25 110 q 57 313 25 156 q 103 557 92 490 l 114 622 q 163 875 140 778 q 210 972 186 972 q 281 949 236 972 q 360 893 326 925 q 394 838 394 861 q 376 744 394 807 q 322 568 358 681 q 240 300 265 399 l 263 292 l 318 376 q 420 522 383 476 q 488 568 457 568 q 656 210 615 568 q 761 421 729 290 q 793 699 793 551 q 699 734 743 724 q 601 743 654 744 q 568 851 568 800 q 594 926 568 894 q 675 972 621 958 q 904 867 822 949 q 986 667 986 786 q 949 410 986 572 q 848 124 911 247 q 711 0 785 0 z "},"X":{"ha":824,"x_min":-14,"x_max":842,"o":"m 186 0 q 40 45 94 -1 q -14 161 -14 92 q -10 197 -14 179 q 282 456 136 306 q 139 669 196 567 q 82 817 82 771 q 110 869 82 840 q 176 917 138 897 q 242 936 214 936 q 285 890 265 936 q 338 740 306 843 q 390 585 376 621 q 610 964 536 786 q 683 974 647 974 q 794 931 754 974 q 842 813 835 889 q 501 415 693 635 q 631 285 563 344 q 767 188 700 226 q 724 53 771 108 q 592 0 676 -1 q 481 117 531 56 q 383 267 432 179 q 282 129 356 228 l 186 0 z "},"Y":{"ha":796,"x_min":81,"x_max":849,"o":"m 761 697 q 654 560 747 679 q 458 321 561 440 l 443 194 q 422 44 432 88 q 389 0 411 0 q 313 23 357 0 q 237 78 269 46 q 204 131 204 110 q 213 202 203 156 q 250 357 224 249 l 260 394 q 186 547 250 417 q 107 713 133 651 q 81 808 81 775 q 112 864 81 832 q 187 919 143 896 q 265 942 231 942 q 307 895 292 942 q 346 733 322 849 q 390 531 368 613 q 613 957 522 756 q 694 969 658 969 q 806 926 767 969 q 849 810 846 883 l 761 697 z "},"Z":{"ha":749,"x_min":1,"x_max":739,"o":"m 638 947 q 685 903 661 938 q 724 827 708 868 q 739 761 739 786 q 738 747 739 751 q 559 511 717 690 q 250 188 401 332 q 617 249 418 219 q 667 199 649 235 q 685 122 685 164 q 644 14 685 56 q 263 1 394 1 q 90 15 108 1 q 31 103 60 42 q 1 204 1 165 q 4 221 1 213 q 82 317 11 243 q 290 529 153 392 q 518 763 465 704 l 358 749 l 165 731 q 119 779 136 746 q 103 850 103 813 q 116 910 103 881 q 154 960 129 939 q 325 961 201 961 q 638 947 608 961 z "},"[":{"ha":732,"x_min":51,"x_max":783,"o":"m 274 11 q 427 34 358 19 q 572 75 496 49 q 633 24 611 57 q 654 -47 654 -8 q 611 -146 654 -103 q 418 -171 525 -162 q 219 -179 311 -179 q 154 -154 194 -179 q 83 -96 114 -129 q 51 -39 51 -62 q 72 75 51 -25 q 114 285 92 175 q 141 422 129 364 q 160 515 153 479 q 205 752 179 617 q 246 979 231 888 q 294 1053 253 1021 q 376 1086 335 1085 q 548 1093 479 1089 q 731 1110 617 1097 q 770 1067 757 1094 q 783 1008 783 1040 q 772 953 783 981 q 743 907 761 925 q 444 893 564 904 l 429 822 q 367 515 360 483 q 274 11 328 314 z "},"\\":{"ha":701,"x_min":114,"x_max":601,"o":"m 432 -126 q 383 -47 408 -126 q 311 213 357 33 l 254 425 q 179 674 224 533 q 129 840 144 785 q 114 921 114 896 q 142 974 114 943 q 207 1029 169 1006 q 272 1053 244 1053 q 324 981 300 1053 q 386 747 349 908 q 446 511 429 571 q 538 213 467 435 q 582 69 563 133 q 601 -14 601 6 q 572 -64 601 -37 q 503 -108 543 -90 q 432 -126 463 -126 z "},"]":{"ha":724,"x_min":-50,"x_max":672,"o":"m 400 515 q 426 692 415 611 q 446 831 438 772 l 454 893 q 146 907 363 901 q 113 949 125 924 q 101 1001 101 974 q 119 1065 101 1035 q 169 1111 136 1094 q 265 1104 243 1106 q 544 1086 426 1090 q 602 1060 572 1086 q 652 996 632 1033 q 672 926 672 958 l 671 914 q 607 515 656 813 q 581 336 592 421 q 515 -76 526 -43 q 481 -119 508 -94 q 421 -161 454 -143 q 364 -179 388 -179 q 3 -162 156 -179 q -37 -122 -24 -147 q -50 -65 -50 -96 q -32 6 -50 -28 q 18 56 -14 39 q 163 30 99 39 q 318 11 228 21 l 324 47 q 400 515 379 375 z "},"^":{"ha":714,"x_min":88,"x_max":715,"o":"m 715 669 q 681 627 707 643 q 617 611 656 611 q 574 615 597 611 l 478 940 q 410 796 443 871 q 322 615 339 649 q 250 607 286 607 q 151 626 194 607 q 88 686 107 646 l 319 1060 q 425 1075 383 1075 q 551 1042 493 1075 l 715 669 z "},"_":{"ha":815,"x_min":-43,"x_max":688,"o":"m 13 -206 q -28 -165 -14 -192 q -43 -107 -43 -137 q 1 -12 -43 -51 q 139 -14 46 -14 q 639 1 390 -14 q 675 -39 663 -14 q 688 -93 688 -64 q 676 -148 688 -121 q 643 -193 664 -175 l 346 -199 q 13 -206 121 -204 z "},"`":{"ha":385,"x_min":136,"x_max":436,"o":"m 436 885 q 404 838 429 854 q 343 821 379 821 q 304 825 325 821 q 214 941 263 872 q 136 1058 165 1010 q 193 1142 153 1113 q 285 1172 233 1172 q 382 1146 335 1172 l 386 1081 q 393 981 388 1047 l 436 885 z "},"a":{"ha":972,"x_min":19,"x_max":928,"o":"m 664 204 q 807 293 749 246 q 898 235 868 272 q 928 151 928 199 q 881 83 928 118 q 768 24 833 47 q 657 0 703 0 q 584 24 625 0 q 513 79 543 47 q 483 129 483 111 q 495 167 483 143 q 521 215 507 190 q 539 249 535 240 l 504 268 q 363 74 431 147 q 231 0 296 0 q 137 39 186 0 q 53 133 88 78 q 19 232 19 189 q 71 485 19 356 q 215 699 122 614 q 424 783 307 783 q 508 746 465 783 q 564 669 551 708 q 584 723 571 700 q 613 746 597 746 q 692 720 649 746 q 767 660 736 694 q 797 607 797 626 q 776 519 796 581 q 711 333 756 458 q 664 204 685 265 m 238 193 q 433 365 350 263 q 547 590 517 467 q 476 607 510 607 q 360 549 411 607 q 278 396 308 490 q 238 193 247 301 z "},"b":{"ha":764,"x_min":18,"x_max":729,"o":"m 460 736 q 597 707 536 735 q 694 631 658 679 q 729 521 729 582 q 667 292 729 415 q 499 85 604 169 q 276 0 394 0 q 156 42 215 0 q 57 140 96 83 q 18 236 18 197 q 79 540 18 328 q 128 782 106 628 q 151 1007 150 936 q 172 1056 153 1036 q 217 1076 190 1076 q 301 1048 254 1076 q 380 981 347 1019 q 413 917 413 943 q 350 692 411 850 l 460 736 m 276 175 q 378 233 326 175 q 465 372 431 292 q 499 511 499 453 q 474 543 499 526 q 415 572 449 560 q 354 583 381 583 q 329 578 339 583 q 286 513 307 565 q 252 393 265 461 q 239 269 239 325 q 248 201 239 226 q 276 175 257 175 z "},"c":{"ha":717,"x_min":18,"x_max":682,"o":"m 246 183 q 488 318 376 189 q 597 267 556 306 q 638 168 638 228 q 588 86 638 125 q 465 24 539 47 q 324 0 392 0 q 185 44 257 0 q 65 151 113 88 q 18 272 18 215 q 69 502 18 382 q 210 703 119 622 q 413 783 300 783 q 544 758 482 783 q 644 692 607 733 q 682 606 682 650 q 644 528 682 563 q 546 494 607 494 q 506 499 526 494 q 429 618 471 583 q 290 451 338 558 q 243 233 243 344 q 246 183 243 217 z "},"d":{"ha":972,"x_min":19,"x_max":928,"o":"m 807 293 q 898 235 868 272 q 928 151 928 199 q 881 83 928 118 q 768 24 833 47 q 657 0 703 0 q 584 24 625 0 q 513 79 543 47 q 483 129 483 111 q 495 167 483 143 q 521 215 507 190 q 539 249 535 240 l 504 268 q 365 74 431 149 q 239 0 299 0 q 143 40 194 0 q 56 134 92 79 q 19 232 19 189 q 74 490 19 361 q 217 701 128 618 q 407 783 307 783 q 490 763 447 783 q 569 706 532 742 q 582 1007 582 840 q 601 1056 582 1036 q 646 1076 619 1076 q 733 1049 685 1076 q 814 983 781 1021 q 847 921 847 944 q 833 840 847 889 q 783 681 819 790 q 721 476 733 532 q 664 204 683 325 q 807 293 749 246 m 238 193 q 410 345 332 264 q 540 533 488 426 l 553 588 q 476 607 510 607 q 360 549 411 607 q 278 396 308 490 q 238 193 247 301 z "},"e":{"ha":722,"x_min":18,"x_max":660,"o":"m 324 0 q 185 44 257 0 q 65 151 113 88 q 18 272 18 215 q 66 494 18 374 q 199 699 114 615 q 390 783 283 783 q 528 750 467 783 q 625 667 590 717 q 660 569 660 617 q 607 455 660 511 q 460 356 554 399 q 244 296 365 314 q 243 246 243 279 q 246 183 243 204 q 383 221 315 190 q 532 307 451 251 q 614 254 586 290 q 642 168 642 218 q 591 87 642 126 q 465 24 540 47 q 324 0 390 0 m 265 400 q 407 478 350 431 q 464 558 464 525 q 410 611 464 597 q 320 518 357 572 q 265 400 283 464 z "},"f":{"ha":624,"x_min":17,"x_max":678,"o":"m 260 0 q 176 21 222 0 q 99 71 131 42 q 68 122 68 100 q 85 198 68 147 q 136 333 103 249 l 172 429 l 68 413 q 31 450 44 425 q 17 504 17 475 q 27 555 17 531 q 58 596 38 579 q 163 597 92 594 l 208 599 q 186 857 186 768 q 196 953 186 919 q 240 1007 204 978 q 322 1056 275 1036 q 410 1076 368 1076 q 544 1047 482 1076 q 642 969 606 1017 q 678 872 678 921 q 640 787 678 819 q 543 754 603 754 q 489 761 521 754 q 417 910 474 861 q 383 761 394 824 q 369 613 371 699 q 554 649 442 622 q 592 605 579 631 q 606 550 606 579 q 574 463 606 506 q 490 457 546 460 l 349 446 q 338 342 340 382 q 303 85 319 169 q 260 0 288 0 z "},"g":{"ha":760,"x_min":15,"x_max":717,"o":"m 488 219 q 317 104 403 153 q 176 56 232 56 q 106 80 144 56 q 42 140 68 104 q 15 206 15 175 q 62 458 15 321 q 188 689 108 594 q 364 783 268 783 q 438 749 401 783 q 494 674 474 715 q 513 726 500 707 q 540 746 526 746 q 604 719 561 746 q 682 658 647 692 q 717 608 717 625 q 676 326 717 556 q 587 -119 635 97 q 518 -371 539 -336 q 419 -458 486 -421 q 288 -496 351 -496 q 167 -460 228 -496 q 67 -371 106 -424 q 28 -275 28 -318 q 87 -158 28 -225 q 231 -26 146 -92 q 447 133 315 40 q 518 185 471 151 l 488 219 m 413 607 q 322 545 364 607 q 250 391 279 483 q 211 210 221 299 q 419 361 342 264 q 504 561 497 458 q 462 593 488 579 q 413 607 436 607 m 471 -4 q 235 -268 235 -189 q 259 -316 235 -296 q 321 -349 283 -336 q 397 -217 363 -300 q 471 -4 432 -133 z "},"h":{"ha":899,"x_min":11,"x_max":854,"o":"m 269 292 q 249 92 265 183 q 203 0 232 0 q 122 24 168 0 q 44 80 76 47 q 11 136 11 113 q 22 194 11 153 q 49 285 33 235 q 133 603 103 463 q 163 764 150 681 q 196 935 182 875 q 231 1035 210 994 q 285 1076 253 1076 q 355 1048 308 1076 q 438 983 401 1019 q 474 922 474 946 q 459 876 474 901 q 411 803 444 850 q 385 764 404 793 q 358 715 367 735 q 322 613 342 675 q 288 490 301 550 l 313 476 q 470 672 403 599 q 575 746 538 746 q 639 719 601 746 q 704 659 676 693 q 732 607 732 625 q 716 535 731 582 q 671 406 701 489 q 601 210 632 306 q 674 243 644 226 q 742 289 703 260 q 827 226 800 264 q 851 135 854 189 q 801 71 851 101 q 684 20 750 40 q 579 0 618 0 q 506 25 547 0 q 433 83 464 50 q 404 133 403 115 q 418 187 404 144 q 436 244 432 229 q 476 377 463 328 q 489 450 489 426 q 482 467 489 467 q 390 414 451 467 q 269 292 329 361 z "},"i":{"ha":535,"x_min":21,"x_max":490,"o":"m 307 824 q 244 845 281 824 q 181 897 207 867 q 154 950 154 926 q 174 1025 154 988 q 222 1079 193 1063 q 267 1086 236 1086 q 367 1064 317 1086 q 429 1008 418 1042 q 432 988 432 1001 q 413 917 432 956 q 364 851 393 878 q 307 824 335 824 m 213 0 q 131 24 176 0 q 53 81 86 49 q 21 136 21 114 q 39 210 21 161 q 93 343 57 258 q 135 445 121 408 q 149 497 149 482 q 135 522 149 508 q 96 554 122 535 q 51 592 65 578 q 36 621 36 606 q 63 689 36 650 q 127 756 90 728 q 190 783 164 783 q 260 756 222 783 q 326 690 299 728 q 353 628 353 651 q 322 453 353 567 q 242 210 290 340 q 300 242 275 225 q 369 293 325 258 q 461 234 432 272 q 490 151 490 196 q 444 81 490 115 q 331 23 397 46 q 213 0 264 0 z "},"j":{"ha":432,"x_min":-310,"x_max":413,"o":"m 288 824 q 224 845 261 824 q 161 897 188 867 q 135 950 135 926 q 154 1025 135 988 q 203 1079 174 1063 q 247 1086 217 1086 q 348 1064 297 1086 q 410 1008 399 1042 q 413 988 413 1001 q 393 917 413 956 q 344 851 374 878 q 288 824 315 824 m -11 -374 q -147 -342 -76 -374 q -263 -260 -217 -310 q -310 -162 -310 -211 q -269 -77 -310 -111 q -172 -43 -229 -43 q -128 -49 -149 -43 q -70 -183 -90 -146 q -21 -221 -50 -221 q 39 -118 11 -221 q 93 153 67 -15 q 122 325 99 192 q 149 501 150 472 q 138 524 149 513 q 100 557 126 535 q 58 592 72 578 q 43 622 43 607 q 68 690 43 651 q 130 756 93 729 q 197 783 167 783 q 267 756 226 783 q 340 694 308 729 q 371 639 371 658 q 340 469 372 615 q 317 358 335 444 q 286 192 299 271 q 256 -24 272 110 q 233 -178 242 -128 q 213 -251 225 -228 q 117 -334 189 -294 q -11 -374 44 -374 z "},"k":{"ha":836,"x_min":11,"x_max":789,"o":"m 313 476 q 474 678 414 611 q 579 746 533 746 q 645 715 611 746 q 701 642 679 685 q 724 571 724 600 q 662 413 724 492 q 506 272 600 335 q 553 232 533 246 q 594 210 572 218 q 703 260 638 224 q 767 201 744 235 q 789 135 789 168 q 736 38 789 76 q 604 0 683 0 q 484 38 539 0 q 394 141 429 76 q 346 281 358 206 l 372 324 q 488 394 449 354 q 528 467 528 435 q 520 488 528 481 q 500 496 513 496 q 425 455 469 496 q 301 328 381 414 q 269 292 300 326 q 249 92 265 183 q 203 0 232 0 q 122 24 168 0 q 44 80 76 47 q 11 136 11 113 q 22 194 11 153 q 49 285 33 235 q 133 603 103 463 q 163 764 150 681 q 196 935 182 875 q 231 1035 210 994 q 285 1076 253 1076 q 355 1048 308 1076 q 438 983 401 1019 q 474 922 474 946 q 459 876 474 901 q 411 803 444 850 q 385 764 404 793 q 358 715 367 735 q 322 613 342 675 q 288 490 301 550 l 313 476 z "},"l":{"ha":535,"x_min":11,"x_max":490,"o":"m 219 0 q 130 24 179 0 q 46 81 81 49 q 11 138 11 114 q 31 254 11 161 q 56 374 50 347 q 111 639 97 565 l 125 717 q 178 976 154 878 q 228 1075 203 1075 q 305 1050 257 1075 q 389 992 353 1025 q 425 933 425 958 q 413 869 425 900 q 378 788 401 838 q 347 721 356 744 q 291 493 321 639 q 242 211 261 347 q 311 249 286 233 q 369 293 336 265 q 460 235 431 272 q 490 151 490 199 q 443 83 490 118 q 331 24 396 47 q 219 0 265 0 z "},"m":{"ha":1311,"x_min":21,"x_max":1267,"o":"m 325 467 q 494 678 435 611 q 592 746 554 746 q 653 724 618 746 q 715 673 689 701 q 739 628 740 644 q 729 553 738 593 q 706 454 721 513 q 887 674 821 601 q 990 746 953 746 q 1054 719 1017 746 q 1119 659 1092 693 q 1146 607 1146 625 q 1126 526 1144 583 q 1075 375 1108 469 q 1018 210 1031 253 q 1087 249 1063 233 q 1144 293 1111 265 q 1236 235 1206 272 q 1267 151 1267 199 q 1219 83 1267 118 q 1106 24 1171 47 q 994 0 1040 0 q 922 25 964 0 q 850 83 881 50 q 819 133 819 115 q 833 187 819 144 q 851 244 847 229 q 891 377 878 328 q 904 450 904 426 q 897 467 904 467 q 690 272 839 467 q 669 171 679 232 q 640 41 653 82 q 607 0 628 0 q 535 25 578 0 q 460 83 492 50 q 428 136 428 115 q 458 244 428 150 q 497 374 483 324 q 511 450 511 425 q 503 467 511 467 q 296 272 447 467 q 284 217 290 250 q 275 169 278 183 q 247 44 260 88 q 213 0 233 0 q 131 24 176 0 q 53 81 86 49 q 21 136 21 114 q 39 210 21 161 q 93 343 57 258 q 135 445 121 408 q 149 497 149 482 q 135 522 149 508 q 96 554 122 535 q 51 592 65 578 q 36 621 36 606 q 63 689 36 650 q 127 756 90 728 q 190 783 164 783 q 258 757 219 783 q 324 697 296 731 q 353 644 353 663 q 345 563 353 611 q 325 467 338 514 z "},"n":{"ha":917,"x_min":21,"x_max":872,"o":"m 751 293 q 842 235 813 272 q 872 151 872 199 q 825 83 872 118 q 713 24 778 47 q 601 0 647 0 q 528 25 569 0 q 456 83 486 50 q 426 133 426 115 q 457 242 426 147 q 511 450 511 407 q 503 467 511 467 q 296 272 447 467 q 284 217 290 250 q 275 169 278 183 q 247 44 260 88 q 213 0 233 0 q 131 24 176 0 q 53 81 86 49 q 21 136 21 114 q 39 210 21 161 q 93 343 57 258 q 135 445 121 408 q 149 497 149 482 q 135 522 149 508 q 96 554 122 535 q 51 592 65 578 q 36 621 36 606 q 63 689 36 650 q 127 756 90 728 q 190 783 164 783 q 258 757 219 783 q 324 697 296 731 q 353 644 353 663 q 345 563 353 611 q 325 467 338 514 q 493 673 426 600 q 597 746 560 746 q 661 719 624 746 q 726 659 699 693 q 753 607 753 625 q 733 526 751 583 q 682 375 715 469 q 625 210 638 253 q 692 248 668 232 q 751 293 717 264 z "},"o":{"ha":710,"x_min":17,"x_max":681,"o":"m 328 785 q 508 726 426 774 q 635 611 589 678 q 681 478 681 544 q 629 265 681 378 q 486 76 578 153 q 282 0 394 0 q 164 41 226 0 q 59 141 101 82 q 17 246 17 200 q 38 420 17 331 q 101 594 58 510 q 182 617 142 617 q 215 613 200 617 q 210 651 210 629 q 241 732 210 696 q 328 785 272 768 m 232 158 q 411 292 347 197 q 496 517 475 386 q 326 561 433 561 q 286 560 300 561 q 301 497 301 532 q 246 372 265 440 q 226 233 226 303 q 232 158 226 192 z "},"p":{"ha":808,"x_min":-43,"x_max":768,"o":"m 518 760 q 649 725 592 760 q 737 630 706 690 q 768 494 768 569 q 705 267 768 383 q 540 76 642 151 q 328 0 438 0 q 233 38 281 0 q 208 -105 217 -32 q 197 -190 199 -178 q 176 -326 186 -285 q 143 -368 165 -368 q 63 -344 107 -368 q -12 -288 19 -321 q -43 -232 -43 -256 q -19 -115 -43 -206 q 53 146 4 -25 q 119 386 96 299 q 143 497 143 474 q 131 520 143 508 q 93 554 119 532 q 50 592 64 578 q 36 621 36 606 q 63 689 36 650 q 127 756 90 728 q 190 783 164 783 q 282 739 231 783 q 356 650 333 694 l 410 742 q 518 760 464 760 m 328 178 q 425 224 372 178 q 514 340 478 271 q 550 471 550 408 q 528 542 550 517 q 464 567 506 567 q 376 512 415 567 q 313 378 336 457 q 290 232 290 299 q 301 192 290 206 q 328 178 311 178 z "},"q":{"ha":847,"x_min":19,"x_max":917,"o":"m 599 -339 q 513 -315 560 -339 q 434 -259 467 -292 q 401 -203 401 -226 q 449 -6 401 -183 q 483 129 481 114 q 539 249 488 158 l 504 268 q 363 74 431 147 q 231 0 296 0 q 137 39 186 0 q 53 133 88 78 q 19 232 19 189 q 71 485 19 356 q 215 699 122 614 q 424 783 307 783 q 508 746 465 783 q 564 669 551 708 q 584 723 571 700 q 613 746 597 746 q 692 720 649 746 q 767 660 736 694 q 797 607 797 626 q 778 493 797 568 q 724 301 758 418 l 704 235 l 694 199 q 661 85 689 181 q 585 -139 633 -10 l 594 -144 l 614 -121 q 724 0 683 -37 q 803 38 764 38 q 881 -1 849 38 q 917 -87 913 -39 l 890 -112 q 713 -276 788 -214 q 599 -339 639 -339 m 238 193 q 433 365 350 263 q 547 590 517 467 q 476 607 510 607 q 360 549 411 607 q 278 396 308 490 q 238 193 247 301 z "},"r":{"ha":718,"x_min":36,"x_max":682,"o":"m 247 0 q 165 24 210 0 q 89 81 121 49 q 57 136 57 114 q 68 205 57 163 q 101 315 79 247 q 135 428 124 386 q 146 497 146 471 q 133 521 146 508 q 94 554 121 533 q 50 593 64 579 q 36 621 36 607 q 64 689 36 650 q 129 756 92 728 q 193 783 167 783 q 260 757 222 783 q 325 697 297 731 q 353 644 353 663 q 332 506 353 592 l 349 497 q 419 620 381 549 q 465 708 457 692 l 492 758 q 635 724 588 761 q 682 624 682 686 q 642 501 682 563 q 472 435 542 468 q 331 358 401 403 q 306 102 326 204 q 247 0 286 0 z "},"s":{"ha":706,"x_min":14,"x_max":657,"o":"m 436 618 q 335 525 374 571 q 297 447 297 479 q 324 416 297 432 q 411 372 350 400 q 564 290 508 328 q 619 201 619 251 q 563 105 619 151 q 424 29 507 58 q 268 0 340 0 q 154 23 214 0 q 54 81 94 46 q 14 149 14 117 q 51 240 14 206 q 147 274 88 274 q 204 265 175 274 q 244 158 228 190 q 396 233 329 181 q 183 346 279 283 q 86 463 86 408 q 138 595 86 518 q 269 728 189 672 q 432 785 349 785 q 541 751 489 785 q 625 668 593 718 q 657 571 657 618 q 622 497 657 525 q 532 468 586 468 q 461 482 497 468 q 436 618 458 538 z "},"t":{"ha":603,"x_min":10,"x_max":572,"o":"m 326 546 q 267 204 281 336 q 410 293 356 247 q 501 235 471 272 q 531 151 531 199 q 483 83 531 118 q 371 24 436 47 q 260 0 306 0 q 170 24 219 0 q 86 81 121 49 q 51 138 51 114 q 66 222 51 157 q 92 333 81 286 q 110 401 104 379 l 143 535 l 58 529 q 22 564 35 540 q 10 618 10 588 q 50 713 10 674 q 172 707 100 710 q 192 903 172 796 q 235 1011 211 1011 q 308 986 264 1011 q 386 928 353 961 q 419 869 419 894 q 408 805 419 838 q 369 715 396 772 q 489 735 393 718 l 521 740 q 559 700 546 726 q 572 643 572 674 q 563 594 572 618 q 533 554 553 571 l 326 546 z "},"u":{"ha":944,"x_min":36,"x_max":900,"o":"m 221 0 q 142 27 185 0 q 71 90 100 54 q 42 147 42 125 q 55 211 42 169 q 83 294 68 253 q 101 347 97 336 q 134 439 119 396 q 149 497 149 482 q 135 522 149 508 q 96 554 122 535 q 51 592 65 578 q 36 621 36 606 q 63 689 36 650 q 127 756 90 728 q 190 783 164 783 q 258 757 219 783 q 324 697 296 731 q 353 644 353 663 q 324 438 353 558 q 249 197 294 317 q 413 367 340 274 q 514 533 485 460 q 535 685 517 624 q 579 746 554 746 q 659 720 615 746 q 733 660 703 694 q 764 607 764 626 q 738 498 763 578 q 668 293 713 418 q 638 204 642 215 q 710 242 678 222 q 779 293 743 263 q 870 235 840 272 q 900 151 900 199 q 853 83 900 118 q 740 24 806 47 q 629 0 675 0 q 560 24 600 0 q 488 80 519 49 q 457 126 457 111 q 467 164 457 142 q 491 212 478 186 q 511 249 504 238 l 476 268 q 345 64 400 128 q 221 0 290 0 z "},"v":{"ha":764,"x_min":-12,"x_max":729,"o":"m 318 607 q 240 179 318 411 l 264 169 q 411 447 356 301 q 500 765 467 593 q 597 785 554 785 q 685 754 651 785 q 729 664 719 724 q 617 393 703 553 q 431 117 532 233 q 251 0 329 0 q 181 26 229 0 q 94 86 133 53 q 56 138 56 119 q 72 244 56 171 q 93 360 86 313 q 100 457 100 407 q 87 484 100 471 q 44 521 74 497 q 2 555 17 540 q -12 583 -12 569 q 13 652 -12 614 q 77 718 39 690 q 147 746 115 746 q 219 721 179 746 q 289 663 260 696 q 318 607 318 629 z "},"w":{"ha":1022,"x_min":-12,"x_max":985,"o":"m 57 138 q 74 244 57 171 q 83 299 75 256 q 96 382 92 342 q 100 457 100 422 q 87 484 100 471 q 44 521 74 497 q 2 555 17 540 q -12 583 -12 569 q 13 652 -12 614 q 77 718 39 690 q 147 746 115 746 q 219 721 179 746 q 289 663 260 696 q 318 607 318 629 q 240 179 318 411 l 267 165 q 320 258 296 210 q 363 347 344 307 q 386 397 381 386 q 442 513 422 478 q 481 547 463 547 q 533 526 500 547 q 591 477 565 504 q 617 436 617 450 q 608 203 617 296 q 803 517 736 313 q 635 578 740 551 q 618 653 618 618 q 659 749 618 711 q 769 786 700 788 q 926 684 868 750 q 985 543 985 618 q 927 318 985 449 q 781 94 869 188 q 604 0 692 0 q 543 35 574 0 q 493 128 513 71 q 474 251 474 186 q 481 326 474 296 q 366 99 431 197 q 244 0 301 0 q 178 26 224 0 q 94 86 132 53 q 57 138 57 119 z "},"x":{"ha":853,"x_min":21,"x_max":803,"o":"m 658 293 q 765 253 726 290 q 803 160 803 215 q 758 86 803 124 q 652 24 714 49 q 543 0 590 0 q 459 47 500 0 q 371 178 418 93 q 199 0 272 72 q 176 -1 192 -1 q 65 41 108 -1 q 21 147 21 83 q 25 186 21 168 q 276 363 182 268 q 161 544 199 478 q 124 653 124 611 q 150 695 124 672 q 214 733 176 718 q 282 749 251 749 q 324 709 308 749 q 363 579 340 669 q 392 467 375 525 q 499 617 457 551 q 583 776 540 682 q 649 786 625 786 q 750 751 711 786 q 796 657 789 715 q 465 279 753 567 q 511 193 492 222 q 586 235 553 213 q 658 293 619 258 z "},"y":{"ha":790,"x_min":36,"x_max":750,"o":"m 522 222 q 343 99 436 153 q 200 44 250 44 q 145 67 179 44 q 85 122 111 90 q 60 181 60 154 q 72 246 60 206 q 110 363 83 286 q 149 497 149 471 q 135 522 149 508 q 96 554 122 535 q 51 592 65 578 q 36 621 36 606 q 63 689 36 650 q 127 756 90 728 q 190 783 164 783 q 258 757 219 783 q 324 697 296 731 q 353 644 353 663 q 331 459 353 567 q 269 239 310 351 q 494 389 382 297 q 529 656 513 567 q 576 746 546 746 q 640 717 597 746 q 716 653 682 689 q 750 599 750 618 q 707 334 750 569 q 617 -119 664 99 q 549 -369 569 -336 q 449 -457 518 -419 q 314 -494 379 -494 q 195 -457 258 -494 q 90 -365 132 -419 q 47 -264 47 -310 q 186 -85 47 -203 q 547 185 325 32 l 522 222 m 500 -4 q 256 -271 256 -196 q 283 -319 256 -297 q 353 -349 311 -342 q 430 -208 399 -283 q 500 -4 461 -132 z "},"z":{"ha":876,"x_min":24,"x_max":828,"o":"m 707 313 q 799 255 769 286 q 828 175 828 224 q 782 94 828 135 q 669 26 736 53 q 546 0 603 0 q 476 15 508 0 q 404 58 443 31 q 367 81 385 71 q 339 90 350 90 q 278 67 315 90 q 178 0 240 44 q 67 43 110 1 q 24 146 24 85 q 31 192 24 167 q 297 365 192 271 q 481 588 403 458 q 458 586 472 586 q 399 596 438 586 q 365 603 381 603 q 274 463 325 603 q 222 457 251 457 q 97 492 150 457 q 43 579 43 528 q 76 665 43 617 q 161 749 110 714 q 263 783 213 783 q 338 767 303 783 q 415 719 372 750 q 457 691 440 700 q 488 682 474 682 q 585 750 536 682 q 636 754 613 754 q 745 722 706 754 q 785 629 785 689 q 659 449 785 582 q 397 199 533 315 q 458 172 425 172 q 581 217 504 172 q 707 313 657 263 z "},"{":{"ha":714,"x_min":106,"x_max":744,"o":"m 744 929 q 710 860 744 886 q 624 833 675 833 q 553 846 589 833 q 521 957 542 908 q 431 815 431 913 q 453 742 431 776 q 521 663 476 708 q 589 581 567 614 q 611 508 611 549 q 565 413 611 451 q 429 365 519 375 q 431 332 431 354 q 403 160 431 249 q 333 11 375 72 q 415 47 385 29 q 489 99 444 64 q 581 40 551 78 q 610 -43 610 1 q 560 -113 610 -78 q 442 -172 511 -149 q 322 -194 374 -194 q 231 -161 282 -194 q 142 -83 179 -128 q 106 -10 106 -39 q 117 22 106 0 q 143 69 128 44 q 221 224 192 151 q 246 372 250 296 q 175 417 208 390 q 142 463 142 444 q 157 511 142 483 q 194 558 172 539 q 235 578 217 578 q 284 560 256 578 q 340 515 313 543 q 378 575 378 544 q 360 624 378 600 q 308 685 343 649 q 231 778 258 736 q 204 871 204 819 q 247 990 204 932 q 360 1086 290 1049 q 510 1124 431 1124 q 624 1095 569 1124 q 711 1022 678 1067 q 744 929 744 976 z "},"|":{"ha":401,"x_min":-12,"x_max":418,"o":"m 172 -225 q 97 -201 140 -225 q 20 -146 53 -178 q -12 -93 -12 -114 q 39 183 -12 -61 q 100 494 82 388 q 114 585 101 504 q 174 934 146 800 q 233 1068 201 1068 q 305 1044 260 1068 q 384 989 350 1021 q 418 933 418 957 q 383 778 418 922 q 304 421 328 556 q 272 211 300 394 q 217 -119 238 -14 q 172 -225 196 -225 z "},"}":{"ha":710,"x_min":-74,"x_max":671,"o":"m 490 571 q 556 534 522 571 q 589 464 589 497 q 566 424 589 443 q 497 376 543 404 q 435 333 454 351 q 517 118 517 235 q 474 -35 517 36 q 353 -150 432 -107 q 174 -193 275 -193 q 48 -170 104 -193 q -41 -111 -8 -147 q -74 -36 -74 -75 q -35 47 -74 14 q 69 81 3 81 q 121 75 97 81 q 151 -6 135 25 q 190 -36 168 -36 q 279 19 246 -36 q 313 153 313 75 q 292 265 313 210 q 232 361 272 319 l 317 432 q 231 492 265 458 q 197 557 197 525 q 219 603 197 578 q 290 671 242 628 q 426 812 376 747 q 476 954 476 876 q 357 906 408 932 q 240 829 306 879 q 165 867 194 838 q 135 935 135 897 q 185 1028 135 985 q 310 1096 235 1071 q 457 1121 386 1121 q 542 1092 490 1121 q 633 1024 594 1064 q 671 951 671 985 q 400 539 671 767 l 490 571 z "},"~":{"ha":850,"x_min":25,"x_max":833,"o":"m 575 292 q 438 328 515 292 q 285 418 360 364 l 274 421 l 150 296 q 133 294 144 294 q 56 322 88 294 q 25 396 25 350 q 154 524 76 464 q 285 583 232 583 q 424 542 335 583 q 589 449 514 501 l 597 449 l 707 568 q 728 569 714 569 q 803 544 772 569 q 833 479 833 519 q 708 351 788 411 q 575 292 628 292 z "},"¡":{"ha":465,"x_min":-40,"x_max":374,"o":"m 264 767 q 313 741 288 767 q 356 679 339 715 q 374 615 374 643 q 341 565 374 592 q 263 521 308 539 q 181 503 217 503 q 133 527 157 503 q 95 585 110 551 q 81 643 81 619 q 113 697 81 668 q 190 747 146 726 q 264 767 233 767 m 124 407 q 143 410 129 410 q 203 392 171 410 q 260 348 236 374 q 283 303 283 322 q 259 81 285 257 q 197 -240 233 -96 q 128 -385 161 -385 q 55 -363 94 -385 q -12 -310 15 -342 q -40 -254 -40 -279 q -8 -147 -40 -233 q 26 -44 8 -100 q 54 60 44 11 q 81 244 69 131 q 98 362 89 324 q 124 407 107 400 z "},"¢":{"ha":717,"x_min":18,"x_max":682,"o":"m 429 618 q 290 451 338 558 q 243 233 243 344 q 246 183 243 217 q 488 318 376 189 q 597 267 557 306 q 638 168 638 228 q 574 75 638 118 q 418 11 510 32 q 397 -93 410 -51 q 368 -135 383 -135 q 288 -120 331 -135 q 217 -82 246 -106 q 189 -35 189 -58 q 194 2 189 -21 q 201 35 199 25 q 72 144 125 76 q 18 272 18 213 q 56 471 18 367 q 165 658 94 575 q 328 771 236 740 q 345 894 332 851 q 386 936 358 936 q 455 915 415 936 q 524 865 494 893 q 553 818 553 836 q 544 758 553 794 q 644 692 606 733 q 682 606 682 650 q 644 528 682 563 q 546 494 607 494 q 506 499 526 494 q 429 618 471 583 z "},"£":{"ha":842,"x_min":-14,"x_max":796,"o":"m 775 106 q 663 31 726 61 q 558 0 599 0 q 465 27 519 0 q 310 115 410 54 q 151 -1 219 -1 q 84 24 124 -1 q 15 88 44 50 q -14 157 -14 125 q 13 235 -14 192 q 81 310 40 279 q 158 340 121 340 q 194 332 175 340 q 221 421 217 389 l 142 414 q 110 450 121 426 q 99 503 99 474 q 108 556 99 531 q 138 597 118 581 l 253 599 q 307 811 276 729 q 395 940 338 893 q 546 988 453 988 q 674 956 617 988 q 763 875 731 924 q 796 776 796 826 q 765 697 796 725 q 681 669 733 669 q 631 675 654 669 q 597 767 621 721 q 543 833 574 814 q 433 606 464 789 l 574 617 q 607 577 594 604 q 619 519 619 550 q 610 467 619 492 q 583 425 600 442 l 397 419 q 347 240 385 343 l 458 183 q 562 236 518 210 q 649 297 606 263 q 747 251 710 290 q 783 157 783 213 q 775 106 783 133 z "},"¤":{"ha":889,"x_min":40,"x_max":861,"o":"m 853 654 q 768 569 839 631 q 769 542 769 561 q 719 354 767 454 q 800 278 769 313 q 829 225 831 243 q 805 160 826 199 q 756 95 783 122 q 711 69 729 68 q 660 100 694 71 q 588 175 626 129 q 389 97 496 97 q 258 151 329 97 q 136 69 167 69 q 95 97 118 69 q 56 164 72 125 q 40 231 40 203 q 72 277 40 246 q 154 344 104 308 q 190 529 161 439 q 79 660 93 629 q 75 682 75 668 q 103 778 75 722 q 164 850 132 833 q 218 831 182 860 q 310 738 254 801 q 395 785 347 768 q 493 801 443 801 q 644 757 579 801 q 785 853 747 853 q 796 850 790 853 q 842 783 822 832 q 861 692 861 733 q 853 654 861 667 m 349 244 q 517 368 456 281 q 601 578 579 456 q 497 615 551 615 q 411 589 450 615 q 344 301 344 425 q 349 244 344 272 z "},"¥":{"ha":796,"x_min":15,"x_max":796,"o":"m 483 413 l 467 354 q 693 371 614 363 q 733 332 719 356 q 746 282 746 308 q 735 233 746 257 q 706 190 725 208 l 442 176 q 421 40 431 79 q 389 0 411 0 q 313 23 357 0 q 237 78 269 46 q 204 131 204 110 q 207 163 204 150 l 75 154 q 31 192 47 168 q 15 246 15 217 q 57 333 15 296 q 249 336 135 333 l 261 400 l 103 390 q 59 428 75 404 q 43 482 43 453 q 85 569 43 532 l 174 571 q 104 720 128 664 q 81 808 81 776 q 112 864 81 832 q 188 919 143 896 q 269 942 232 942 q 310 886 293 942 q 350 710 326 831 q 390 524 376 572 q 472 708 442 626 q 550 943 501 789 q 647 961 603 961 q 749 924 711 961 q 796 822 788 886 q 639 599 715 718 l 721 607 q 760 568 747 592 q 774 518 774 544 q 763 469 774 493 q 733 426 753 444 l 483 413 z "},"¦":{"ha":399,"x_min":-14,"x_max":415,"o":"m 293 444 q 218 467 261 444 q 143 522 175 490 q 111 575 111 553 q 131 696 111 599 l 150 792 l 165 879 q 194 1022 181 976 q 231 1068 207 1068 q 302 1044 257 1068 q 381 989 347 1021 q 415 933 415 957 q 406 885 415 919 q 394 840 397 851 q 357 686 371 758 l 340 594 q 318 480 328 515 q 293 444 308 444 m 168 -225 q 93 -202 136 -225 q 18 -148 50 -179 q -14 -94 -14 -117 q 3 -1 -14 -81 l 28 122 l 43 211 q 71 351 58 304 q 104 399 83 399 q 173 374 131 399 q 247 316 215 349 q 279 260 279 283 q 256 124 279 232 l 235 17 l 221 -62 q 194 -187 206 -150 q 168 -225 183 -225 z "},"§":{"ha":849,"x_min":-7,"x_max":753,"o":"m 753 710 q 713 626 753 658 q 615 593 674 593 q 526 614 572 593 q 535 690 535 656 q 524 760 535 733 q 496 786 513 786 q 448 763 471 786 q 410 706 425 739 q 396 650 396 674 q 440 556 396 599 q 572 451 483 514 q 699 352 657 393 q 742 264 742 311 q 690 155 742 213 q 551 42 638 97 q 646 -90 646 -29 q 588 -222 646 -160 q 445 -323 531 -285 q 282 -361 360 -361 q 153 -330 219 -361 q 42 -256 86 -299 q -4 -182 -3 -214 q 36 -83 -7 -121 q 151 -44 79 -44 q 225 -54 188 -44 q 254 -186 242 -146 q 446 -87 364 -165 q 160 103 254 18 q 65 278 65 189 q 110 400 65 336 q 232 524 156 464 q 189 586 203 557 q 175 649 175 615 q 222 778 175 700 q 344 915 269 857 q 494 972 418 972 q 617 930 557 972 q 715 826 678 888 q 753 710 753 764 m 522 264 q 353 397 410 346 q 271 281 271 336 q 392 157 271 214 q 469 207 439 182 q 522 264 499 232 z "},"¨":{"ha":651,"x_min":118,"x_max":717,"o":"m 264 824 q 203 844 239 824 q 143 892 168 864 q 118 943 118 921 q 137 1015 118 979 q 183 1067 156 1051 q 225 1074 201 1074 q 321 1052 272 1074 q 381 999 369 1031 q 383 979 383 988 q 365 913 383 950 q 318 849 346 875 q 264 824 290 824 m 597 824 q 537 844 572 824 q 476 892 501 864 q 451 943 451 921 q 470 1015 451 979 q 517 1067 489 1051 q 558 1074 535 1074 q 654 1052 606 1074 q 714 999 703 1031 q 717 979 717 988 q 698 913 717 950 q 651 849 679 875 q 597 824 624 824 z "},"©":{"ha":975,"x_min":33,"x_max":951,"o":"m 451 0 q 239 54 335 0 q 88 201 143 108 q 33 403 33 293 q 92 642 33 529 q 260 823 151 754 q 514 892 369 892 q 753 833 654 892 q 901 680 851 775 q 951 475 951 585 q 890 238 951 346 q 714 65 828 129 q 451 0 600 0 m 447 128 q 646 175 560 128 q 778 303 732 222 q 824 485 824 385 q 788 627 824 564 q 684 727 753 690 q 521 764 615 764 q 335 715 414 764 q 214 584 256 665 q 172 410 172 503 q 208 265 172 329 q 306 164 243 200 q 447 128 368 128 m 451 204 q 363 232 407 204 q 291 301 319 260 q 263 376 263 342 q 295 530 263 456 q 385 651 328 604 q 513 697 442 697 q 605 679 564 697 q 668 633 646 661 q 690 576 690 606 q 667 530 690 549 q 597 511 643 511 l 576 513 q 553 560 568 538 q 522 593 538 582 q 434 495 465 561 q 403 350 403 429 q 404 321 403 331 q 604 400 518 325 q 663 365 643 386 q 683 321 683 344 q 655 265 683 292 q 573 221 626 238 q 451 204 519 204 z "},"ª":{"ha":708,"x_min":74,"x_max":713,"o":"m 532 647 q 625 701 581 669 q 688 663 665 689 q 713 603 711 638 q 679 555 713 579 q 601 515 646 531 q 524 499 556 499 q 472 515 501 499 q 420 552 442 531 q 399 589 399 574 q 432 664 399 610 l 414 672 q 228 499 306 499 q 162 524 197 499 q 101 587 126 550 q 75 656 75 624 q 108 821 74 736 q 208 962 143 906 q 353 1018 272 1018 q 407 997 378 1018 q 450 947 436 975 q 465 981 456 967 q 483 994 474 994 q 538 977 506 994 q 593 937 569 960 q 617 897 617 914 q 557 714 617 865 l 532 647 m 233 639 q 364 747 311 685 q 436 881 417 810 q 390 890 411 890 q 284 817 325 890 q 233 639 243 744 z "},"«":{"ha":1022,"x_min":64,"x_max":979,"o":"m 67 428 q 64 454 64 444 q 92 542 64 506 l 444 808 q 522 767 496 800 q 549 690 549 735 q 526 611 549 647 l 229 449 l 481 297 q 483 263 483 285 q 442 163 483 201 q 332 117 400 124 l 67 428 m 497 414 q 494 440 494 431 q 522 528 494 492 l 864 746 q 950 709 921 740 q 979 633 979 678 q 957 556 979 596 l 660 440 l 938 313 q 942 275 942 294 q 901 176 942 214 q 796 132 861 138 l 497 414 z "},"¬":{"ha":871,"x_min":64,"x_max":840,"o":"m 839 474 q 781 179 808 328 q 700 157 744 157 q 629 174 661 157 q 583 224 597 192 q 644 453 608 308 q 118 438 410 442 q 78 478 93 451 q 64 536 64 506 q 110 632 64 592 q 257 629 199 629 q 629 636 411 629 l 699 638 q 767 614 733 638 q 820 556 800 590 q 840 489 840 521 q 839 474 840 479 z "},"­":{"ha":644,"x_min":51,"x_max":585,"o":"m 111 360 q 67 401 83 374 q 51 460 51 428 q 93 553 51 515 q 260 557 176 553 q 425 568 343 561 q 532 575 449 569 q 572 534 558 560 q 585 478 585 508 q 574 424 585 450 q 544 381 563 399 q 111 360 375 378 z "},"®":{"ha":585,"x_min":101,"x_max":631,"o":"m 313 576 q 207 606 256 576 q 130 683 158 636 q 101 781 101 731 q 133 939 101 863 q 221 1063 164 1015 q 351 1111 278 1111 q 491 1083 426 1111 q 593 1009 556 1056 q 631 908 631 963 q 589 749 631 825 q 474 624 547 672 q 313 576 401 576 m 311 647 q 435 683 378 647 q 527 778 493 719 q 561 906 561 838 q 503 1008 561 972 q 367 1043 444 1043 q 229 971 281 1043 q 178 779 178 899 q 216 685 178 724 q 311 647 254 647 m 411 706 q 331 794 360 739 q 322 729 326 753 q 307 706 317 706 q 272 721 294 706 q 249 750 249 736 l 293 931 l 283 931 q 269 964 269 944 q 283 997 269 983 q 343 1004 311 1004 q 440 980 403 1004 q 478 913 478 956 q 375 818 478 839 q 463 775 408 794 q 464 761 464 771 q 449 724 464 739 q 411 706 435 708 m 338 861 q 413 908 407 869 q 402 932 414 924 q 369 940 390 940 l 354 939 l 338 861 z "},"¯":{"ha":664,"x_min":119,"x_max":719,"o":"m 178 833 q 135 869 150 846 q 119 919 119 893 q 158 1006 119 967 q 435 1009 324 1006 q 667 1026 546 1013 q 719 939 719 992 q 708 892 719 914 q 675 853 696 869 q 178 833 364 843 z "},"°":{"ha":465,"x_min":83,"x_max":507,"o":"m 281 1019 q 395 986 343 1014 q 477 920 447 958 q 507 844 507 882 q 474 725 507 789 q 384 618 442 661 q 254 575 326 575 q 179 598 219 575 q 111 654 139 621 q 83 715 83 688 q 136 910 83 819 q 203 925 167 928 q 200 942 200 936 q 222 989 200 968 q 281 1019 243 1010 m 231 674 q 376 865 349 715 q 265 888 333 890 q 274 856 274 874 q 240 788 251 826 q 228 711 228 750 q 231 674 228 699 z "},"±":{"ha":632,"x_min":29,"x_max":635,"o":"m 586 672 q 622 633 610 657 q 635 581 635 608 q 623 524 635 551 q 592 478 611 497 q 407 486 531 483 q 406 422 406 465 l 406 354 q 313 319 371 319 q 253 333 281 319 q 211 374 226 347 q 228 447 225 431 l 236 482 l 175 475 q 94 465 122 469 q 55 505 69 479 q 40 561 40 531 q 86 658 40 618 q 257 650 157 653 q 261 789 261 729 q 350 826 300 826 q 413 809 385 826 q 453 761 440 792 q 426 656 444 724 q 586 672 518 660 m 89 75 q 45 116 61 89 q 29 175 29 143 q 71 268 29 231 q 284 274 189 269 q 526 290 379 279 q 566 249 553 275 q 579 193 579 224 q 568 140 579 165 q 539 96 557 114 q 89 75 346 92 z "},"²":{"ha":550,"x_min":57,"x_max":550,"o":"m 178 393 q 123 418 151 393 q 76 479 94 443 q 57 544 57 515 q 86 594 57 568 q 182 664 115 619 q 324 770 269 724 q 406 876 378 817 q 299 848 338 863 q 211 800 260 833 q 149 832 174 807 q 124 892 124 857 q 203 983 124 947 q 396 1018 282 1018 q 468 997 432 1018 q 527 940 504 975 q 550 869 550 906 q 466 716 550 797 q 211 538 382 635 l 218 526 q 356 571 275 550 q 467 592 436 592 q 517 566 496 592 q 538 507 538 540 q 513 442 538 471 l 436 428 q 293 404 367 415 q 178 393 219 393 z "},"³":{"ha":603,"x_min":51,"x_max":608,"o":"m 376 703 q 492 685 439 701 q 574 644 544 668 q 604 596 604 619 q 550 502 604 550 q 414 424 496 454 q 256 393 332 393 q 158 411 206 393 q 81 456 111 429 q 51 506 51 482 q 89 565 51 542 q 189 588 126 588 q 242 583 215 588 q 261 504 246 553 q 349 544 310 518 q 404 606 389 571 q 365 617 385 615 q 317 619 346 619 q 291 621 313 619 q 256 629 269 622 q 218 672 232 642 q 204 732 204 701 q 222 756 204 746 q 278 778 239 765 q 388 825 344 800 q 454 897 431 850 q 228 831 333 885 q 175 867 193 844 q 157 917 157 890 q 237 990 157 961 q 422 1018 317 1018 q 512 994 469 1018 q 581 939 554 971 q 608 885 608 907 q 547 790 608 836 q 379 714 486 743 l 376 703 z "},"´":{"ha":338,"x_min":99,"x_max":422,"o":"m 183 1146 q 282 1169 231 1169 q 381 1139 340 1169 q 422 1057 421 1108 q 217 821 333 933 q 193 819 208 819 q 131 837 157 819 q 99 889 106 854 q 141 951 122 919 q 167 994 160 983 q 183 1146 178 1067 z "},"µ":{"ha":1072,"x_min":-54,"x_max":1028,"o":"m 907 293 q 998 235 968 272 q 1028 151 1028 199 q 981 83 1028 118 q 868 24 933 47 q 757 0 803 0 q 688 24 728 0 q 616 80 647 49 q 585 126 585 111 q 595 164 585 142 q 619 212 606 186 q 639 249 632 238 l 604 268 q 473 64 528 128 q 349 0 418 0 q 309 13 328 0 q 267 47 290 25 q 158 -203 201 -117 q 82 -290 114 -290 q 25 -266 57 -290 q -31 -210 -7 -242 q -54 -164 -54 -179 q -41 -120 -54 -150 q 3 -31 -28 -90 q 160 314 100 161 q 250 590 200 417 q 296 731 279 690 q 335 771 313 771 q 397 747 364 771 q 455 693 431 724 q 479 644 479 663 q 456 516 479 592 q 393 336 433 440 q 354 225 364 257 q 356 193 344 193 q 429 244 374 193 q 545 374 485 296 q 642 533 606 453 q 663 685 644 624 q 707 746 682 746 q 787 720 743 746 q 861 660 831 694 q 892 607 892 626 q 865 498 890 578 q 796 293 840 418 q 765 204 769 215 q 838 242 806 222 q 907 293 871 263 z "},"¶":{"ha":1074,"x_min":64,"x_max":1028,"o":"m 136 0 q 267 40 219 3 q 340 160 314 78 q 382 394 365 242 q 149 490 233 411 q 64 683 64 569 q 115 841 64 771 q 278 953 167 911 q 564 994 390 994 q 624 993 603 994 l 678 990 q 914 976 835 985 q 966 949 939 974 q 1010 888 993 924 q 1028 821 1028 853 l 1026 807 l 951 311 q 940 232 944 268 q 932 171 936 196 q 885 -123 906 -25 q 836 -221 865 -221 q 763 -196 803 -221 q 694 -135 722 -171 q 665 -69 665 -99 q 678 21 665 -51 q 697 124 692 93 q 806 786 772 504 l 649 794 q 635 686 636 696 q 602 444 628 635 q 550 103 576 253 q 452 -135 524 -49 q 264 -221 381 -221 q 154 -185 199 -221 q 110 -90 110 -149 q 136 0 110 -47 z "},"·":{"ha":438,"x_min":86,"x_max":379,"o":"m 196 361 q 147 387 172 361 q 103 449 121 413 q 86 513 86 485 q 119 563 86 536 q 197 607 151 589 q 279 625 243 625 q 326 601 303 625 q 365 542 350 576 q 379 485 379 508 q 347 431 379 460 q 270 381 314 401 q 196 361 226 361 z "},"¸":{"ha":592,"x_min":-89,"x_max":456,"o":"m 213 -74 q 288 -60 249 -60 q 407 -104 358 -60 q 456 -219 456 -149 q 422 -318 456 -274 q 324 -390 388 -362 q 174 -417 260 -417 q 28 -390 97 -417 q -87 -307 -40 -362 q -89 -292 -89 -301 q -69 -244 -89 -262 q -18 -229 -50 -225 q 59 -276 17 -260 q 142 -292 101 -292 q 227 -271 194 -292 q 260 -218 260 -250 q 229 -167 260 -189 q 164 -196 197 -172 l 149 -197 q 85 -178 113 -197 q 56 -126 58 -158 l 163 89 l 286 49 l 213 -74 z "},"¹":{"ha":447,"x_min":110,"x_max":489,"o":"m 324 843 q 200 749 242 749 q 161 767 183 749 q 124 811 139 785 q 110 860 110 838 q 158 919 110 881 q 267 988 207 957 q 353 1018 326 1018 q 412 1001 379 1018 q 467 958 444 983 q 489 913 489 932 q 461 796 489 889 q 424 650 431 683 q 406 515 415 608 q 390 419 397 446 q 363 393 383 393 q 302 409 336 393 q 244 447 268 425 q 219 485 219 469 q 260 633 221 514 q 339 835 300 753 l 324 843 z "},"º":{"ha":511,"x_min":76,"x_max":546,"o":"m 546 804 q 511 667 546 739 q 413 547 476 594 q 269 499 350 499 q 185 524 229 499 q 110 587 140 549 q 79 661 79 625 q 129 896 76 793 q 188 910 157 910 q 206 908 200 910 q 203 929 203 922 q 224 984 203 960 q 283 1019 244 1008 q 416 978 356 1011 q 511 899 476 946 q 546 804 546 851 m 236 611 q 356 692 315 639 q 410 833 396 744 q 269 861 361 865 q 276 826 276 849 q 231 671 231 758 q 236 611 231 638 z "},"»":{"ha":1061,"x_min":49,"x_max":1018,"o":"m 639 124 q 535 160 572 125 q 497 249 497 194 q 504 294 497 269 l 844 476 l 583 629 q 578 672 578 650 q 614 765 578 728 q 717 808 650 803 l 1011 535 q 1018 497 1018 521 q 999 421 1018 457 l 639 124 m 179 132 q 84 171 119 135 q 49 258 49 207 q 61 315 49 286 l 389 468 l 108 560 q 93 625 93 594 q 124 703 93 669 q 211 747 154 736 l 553 526 q 560 489 560 513 q 540 413 560 449 l 179 132 z "},"¼":{"ha":1357,"x_min":110,"x_max":1301,"o":"m 978 931 q 942 831 978 903 q 825 608 907 758 l 729 431 q 647 269 683 342 q 515 19 561 99 q 447 -60 469 -60 q 399 -41 425 -60 q 353 3 372 -22 q 333 44 333 28 q 356 108 333 65 q 438 250 379 151 q 574 488 528 397 q 704 753 631 597 q 816 977 778 907 q 876 1047 854 1047 q 922 1026 899 1047 q 962 978 946 1006 q 978 931 978 950 m 324 843 q 200 749 242 749 q 161 767 183 749 q 124 811 139 785 q 110 860 110 838 q 158 919 110 881 q 267 988 207 957 q 353 1018 326 1018 q 412 1001 379 1018 q 467 958 444 983 q 489 913 489 932 q 461 796 489 889 q 424 650 431 683 q 406 515 415 608 q 390 419 397 446 q 363 393 383 393 q 302 409 336 393 q 244 447 268 425 q 219 485 219 469 q 260 633 221 514 q 339 835 300 753 l 324 843 m 1218 0 q 1172 15 1199 0 q 1126 49 1146 29 q 1107 83 1107 69 q 1117 128 1107 92 l 1124 157 q 997 144 1065 144 q 926 151 950 144 q 862 206 893 167 q 831 279 831 246 q 886 395 831 308 q 1011 553 942 482 q 1126 625 1081 625 q 1201 597 1175 625 q 1222 521 1228 569 q 965 272 1056 400 q 1029 269 1007 269 q 1147 279 1097 269 q 1154 321 1153 303 q 1166 379 1158 358 q 1192 400 1174 400 q 1240 388 1214 400 q 1283 357 1265 375 q 1301 324 1301 339 q 1288 203 1301 283 q 1254 62 1274 124 q 1218 0 1235 0 z "},"½":{"ha":1424,"x_min":110,"x_max":1343,"o":"m 978 931 q 942 831 978 903 q 825 608 907 758 l 729 431 q 647 269 683 342 q 515 19 561 99 q 447 -60 469 -60 q 399 -41 425 -60 q 353 3 372 -22 q 333 44 333 28 q 356 108 333 65 q 438 250 379 151 q 574 488 528 397 q 704 753 631 597 q 816 977 778 907 q 876 1047 854 1047 q 922 1026 899 1047 q 962 978 946 1006 q 978 931 978 950 m 324 843 q 200 749 242 749 q 161 767 183 749 q 124 811 139 785 q 110 860 110 838 q 158 919 110 881 q 267 988 207 957 q 353 1018 326 1018 q 412 1001 379 1018 q 467 958 444 983 q 489 913 489 932 q 461 796 489 889 q 424 650 431 683 q 406 515 415 608 q 390 419 397 446 q 363 393 383 393 q 302 409 336 393 q 244 447 268 425 q 219 485 219 469 q 260 633 221 514 q 339 835 300 753 l 324 843 m 971 0 q 916 25 944 0 q 869 86 888 50 q 850 151 850 122 q 879 201 850 175 q 975 271 908 226 q 1117 377 1063 331 q 1199 483 1171 424 q 1092 455 1131 469 q 1004 407 1053 440 q 942 439 967 414 q 917 499 917 464 q 996 590 917 554 q 1189 625 1075 625 q 1261 603 1225 625 q 1320 547 1297 582 q 1343 476 1343 513 q 1259 323 1343 404 q 1004 144 1175 242 l 1011 133 q 1149 178 1068 157 q 1260 199 1229 199 q 1310 173 1289 199 q 1331 114 1331 147 q 1306 49 1331 78 l 1229 35 q 1086 11 1160 22 q 971 0 1013 0 z "},"¾":{"ha":1435,"x_min":51,"x_max":1379,"o":"m 960 1047 q 1006 1026 982 1047 q 1045 978 1029 1006 q 1061 931 1061 950 q 1026 831 1061 903 q 908 608 990 758 l 813 431 q 731 269 767 342 q 599 19 644 99 q 531 -60 553 -60 q 482 -41 508 -60 q 436 3 456 -22 q 417 44 417 28 q 440 108 417 65 q 521 250 463 151 q 657 488 611 397 q 788 753 714 597 q 899 977 861 907 q 960 1047 938 1047 m 604 596 q 550 502 604 550 q 414 424 496 454 q 256 393 332 393 q 158 411 206 393 q 81 456 111 429 q 51 506 51 482 q 89 565 51 542 q 189 588 126 588 q 242 583 215 588 q 261 504 246 553 q 349 544 310 518 q 404 606 389 571 q 365 617 385 615 q 317 619 346 619 q 291 621 313 619 q 256 629 269 622 q 218 672 232 642 q 204 732 204 701 q 222 756 204 746 q 278 778 239 765 q 388 825 344 800 q 454 897 431 850 q 228 831 333 885 q 175 867 193 844 q 157 917 157 890 q 237 990 157 961 q 422 1018 317 1018 q 512 994 469 1018 q 581 939 554 971 q 608 885 608 907 q 547 790 608 836 q 379 714 486 743 l 376 703 q 492 685 439 701 q 574 644 544 668 q 604 596 604 619 m 1269 400 q 1317 388 1292 400 q 1361 357 1343 375 q 1379 324 1379 339 q 1365 203 1379 283 q 1332 62 1351 124 q 1296 0 1313 0 q 1250 15 1276 0 q 1204 49 1224 29 q 1185 83 1185 69 q 1194 128 1185 92 l 1201 157 q 1075 144 1143 144 q 1004 151 1028 144 q 940 206 971 167 q 908 279 908 246 q 964 395 908 308 q 1089 553 1019 482 q 1204 625 1158 625 q 1279 597 1253 625 q 1300 521 1306 569 q 1043 272 1133 400 q 1107 269 1085 269 q 1225 279 1175 269 q 1232 321 1231 303 q 1244 379 1236 358 q 1269 400 1251 400 z "},"¿":{"ha":664,"x_min":-43,"x_max":544,"o":"m 310 504 q 263 528 286 504 q 224 587 239 553 q 210 644 210 621 q 242 699 210 669 q 319 748 275 728 q 393 768 363 768 q 442 742 417 768 q 485 681 468 717 q 503 617 503 644 q 470 567 503 593 q 392 522 438 540 q 310 504 346 504 m 438 -92 q 515 -137 485 -101 q 544 -218 544 -174 q 488 -299 544 -261 q 349 -360 432 -337 q 188 -383 265 -383 q 78 -351 132 -383 q -9 -274 25 -319 q -43 -194 -43 -229 q -12 -82 -43 -132 q 64 5 19 -32 q 181 89 108 42 q 291 169 253 138 q 344 240 329 201 q 265 231 297 242 q 176 194 232 221 q 137 243 151 214 q 122 297 122 272 q 173 378 122 346 q 315 410 224 410 q 405 375 360 410 q 480 290 450 340 q 510 200 510 240 q 463 104 510 149 q 324 -1 417 60 q 191 -100 236 -60 q 133 -187 146 -140 q 167 -190 156 -190 q 308 -160 235 -190 q 438 -92 381 -131 z "},"À":{"ha":772,"x_min":-37,"x_max":699,"o":"m 594 1079 q 563 1032 588 1049 q 501 1015 538 1015 q 463 1019 483 1015 q 372 1135 421 1067 q 294 1253 324 1204 q 351 1337 311 1307 q 443 1367 392 1367 q 540 1340 493 1367 l 544 1275 q 551 1175 546 1242 l 594 1079 m 679 346 q 690 234 681 324 q 699 85 699 144 q 681 1 699 7 q 663 0 675 0 q 587 15 632 0 q 506 51 542 29 q 465 94 471 74 q 460 269 460 115 q 263 247 310 251 q 176 7 225 138 q 107 -1 139 -1 q 13 26 51 -1 q -37 108 -25 53 l -10 171 q 255 742 143 511 q 400 972 367 972 q 477 953 426 972 q 569 906 528 933 q 615 856 610 878 q 642 693 625 817 q 668 454 658 569 l 679 346 m 456 756 q 335 446 394 611 q 461 458 399 450 q 456 756 461 650 z "},"Á":{"ha":772,"x_min":-37,"x_max":736,"o":"m 531 1015 q 507 1014 522 1014 q 445 1031 471 1014 q 413 1083 419 1049 q 455 1146 436 1114 q 481 1189 474 1178 q 497 1340 492 1261 q 596 1364 544 1364 q 694 1333 654 1364 q 736 1251 735 1303 q 531 1015 647 1128 m 615 856 q 642 693 625 817 q 668 454 658 569 l 679 346 q 690 234 681 324 q 699 85 699 144 q 681 1 699 7 q 663 0 675 0 q 587 15 632 0 q 506 51 542 29 q 465 94 471 74 q 460 269 460 115 q 263 247 310 251 q 176 7 225 138 q 107 -1 139 -1 q 13 26 51 -1 q -37 108 -25 53 l -10 171 q 255 742 143 511 q 400 972 367 972 q 477 953 426 972 q 569 906 528 933 q 615 856 610 878 m 456 756 q 335 446 394 611 q 461 458 399 450 q 456 756 461 650 z "},"Â":{"ha":772,"x_min":-37,"x_max":826,"o":"m 826 1090 q 719 1017 801 1017 q 671 1022 694 1017 l 553 1239 q 460 1139 501 1186 q 358 1018 418 1092 q 311 1013 325 1013 q 209 1044 250 1013 q 168 1128 168 1076 l 458 1360 q 496 1361 471 1361 q 581 1351 540 1361 q 650 1319 622 1340 l 826 1090 m 615 856 q 642 693 625 817 q 668 454 658 569 l 679 346 q 690 234 681 324 q 699 85 699 144 q 681 1 699 7 q 663 0 675 0 q 587 15 632 0 q 506 51 542 29 q 465 94 471 74 q 460 269 460 115 q 263 247 310 251 q 176 7 225 138 q 107 -1 139 -1 q 13 26 51 -1 q -37 108 -25 53 l -10 171 q 255 742 143 511 q 400 972 367 972 q 477 953 426 972 q 569 906 528 933 q 615 856 610 878 m 456 756 q 335 446 394 611 q 461 458 399 450 q 456 756 461 650 z "},"Ã":{"ha":772,"x_min":-37,"x_max":872,"o":"m 746 1290 q 767 1292 753 1292 q 842 1267 811 1292 q 872 1201 872 1242 q 756 1077 831 1136 q 628 1018 682 1018 q 400 1131 510 1018 l 389 1133 l 286 1018 q 269 1017 281 1017 q 192 1044 224 1017 q 161 1118 161 1072 q 285 1238 210 1176 q 407 1300 361 1300 q 527 1265 464 1300 q 647 1179 590 1231 l 656 1179 l 746 1290 m 615 856 q 642 693 625 817 q 668 454 658 569 l 679 346 q 690 234 681 324 q 699 85 699 144 q 681 1 699 7 q 663 0 675 0 q 587 15 632 0 q 506 51 542 29 q 465 94 471 74 q 460 269 460 115 q 263 247 310 251 q 176 7 225 138 q 107 -1 139 -1 q 13 26 51 -1 q -37 108 -25 53 l -10 171 q 255 742 143 511 q 400 972 367 972 q 477 953 426 972 q 569 906 528 933 q 615 856 610 878 m 456 756 q 335 446 394 611 q 461 458 399 450 q 456 756 461 650 z "},"Ä":{"ha":772,"x_min":-37,"x_max":801,"o":"m 349 1018 q 288 1038 324 1018 q 228 1087 253 1058 q 203 1138 203 1115 q 222 1210 203 1174 q 268 1261 240 1246 q 310 1268 286 1268 q 406 1247 357 1268 q 465 1193 454 1225 q 468 1174 468 1182 q 449 1107 468 1144 q 403 1044 431 1069 q 349 1018 375 1018 m 799 1193 q 801 1174 801 1182 q 783 1107 801 1144 q 736 1044 764 1069 q 682 1018 708 1018 q 622 1038 657 1018 q 561 1087 586 1058 q 536 1138 536 1115 q 555 1210 536 1174 q 601 1261 574 1246 q 643 1268 619 1268 q 739 1247 690 1268 q 799 1193 788 1225 m 615 856 q 642 693 625 817 q 668 454 658 569 l 679 346 q 690 234 681 324 q 699 85 699 144 q 681 1 699 7 q 663 0 675 0 q 587 15 632 0 q 506 51 542 29 q 465 94 471 74 q 460 269 460 115 q 263 247 310 251 q 176 7 225 138 q 107 -1 139 -1 q 13 26 51 -1 q -37 108 -25 53 l -10 171 q 255 742 143 511 q 400 972 367 972 q 477 953 426 972 q 569 906 528 933 q 615 856 610 878 m 456 756 q 335 446 394 611 q 461 458 399 450 q 456 756 461 650 z "},"Å":{"ha":772,"x_min":-37,"x_max":725,"o":"m 472 1018 q 397 1041 438 1018 q 329 1097 357 1064 q 301 1158 301 1131 q 354 1353 301 1263 q 421 1368 385 1371 q 418 1385 418 1379 q 440 1432 418 1411 q 499 1463 461 1453 q 613 1429 561 1457 q 695 1363 665 1401 q 725 1288 725 1325 q 692 1168 725 1232 q 602 1061 660 1104 q 472 1018 544 1018 m 594 1308 q 483 1331 551 1333 q 492 1299 492 1317 q 458 1231 469 1269 q 446 1154 446 1193 q 449 1117 446 1142 q 594 1308 567 1158 m 615 856 q 642 693 625 817 q 668 454 658 569 l 679 346 q 690 234 681 324 q 699 85 699 144 q 681 1 699 7 q 663 0 675 0 q 587 15 632 0 q 506 51 542 29 q 465 94 471 74 q 460 269 460 115 q 263 247 310 251 q 176 7 225 138 q 107 -1 139 -1 q 13 26 51 -1 q -37 108 -25 53 l -10 171 q 255 742 143 511 q 400 972 367 972 q 477 953 426 972 q 569 906 528 933 q 615 856 610 878 m 456 756 q 335 446 394 611 q 461 458 399 450 q 456 756 461 650 z "},"Æ":{"ha":1094,"x_min":-37,"x_max":1092,"o":"m 1039 986 q 1078 944 1065 971 q 1092 885 1092 917 q 1081 829 1092 857 q 1051 783 1069 801 l 985 779 q 726 763 793 769 l 690 572 q 943 614 858 583 q 985 565 971 594 q 1000 503 1000 536 q 988 448 1000 474 q 956 407 976 422 l 857 400 l 678 388 l 638 190 q 785 213 721 199 q 936 254 850 226 q 997 203 975 236 q 1018 132 1018 171 q 975 33 1018 76 q 803 8 897 17 q 624 0 710 0 q 560 19 599 0 q 492 62 522 38 q 457 103 461 86 q 456 119 456 107 q 479 272 456 175 q 263 247 358 256 q 176 7 225 138 q 107 -1 139 -1 q 13 26 51 -1 q -37 108 -25 53 l -18 151 q 256 734 136 496 q 428 972 376 972 q 493 968 451 972 q 701 957 626 957 q 1039 986 864 957 m 481 772 q 335 446 400 622 l 499 461 q 500 517 500 479 q 481 772 500 619 z "},"Ç":{"ha":760,"x_min":26,"x_max":739,"o":"m 738 726 q 699 640 739 669 q 597 610 658 610 q 508 626 553 610 q 510 697 510 651 q 501 774 510 749 q 469 799 493 799 q 373 701 422 799 q 290 463 324 604 q 253 203 256 321 q 422 258 344 219 q 557 346 499 296 q 653 290 619 331 q 688 199 688 249 q 672 135 688 168 q 565 64 639 101 q 411 7 490 26 l 363 -74 q 438 -60 399 -60 q 557 -104 508 -60 q 606 -219 606 -149 q 572 -318 606 -274 q 474 -390 538 -362 q 324 -417 410 -417 q 178 -390 247 -417 q 63 -307 110 -362 q 61 -292 61 -301 q 81 -244 61 -262 q 132 -229 100 -225 q 209 -276 167 -260 q 292 -292 251 -292 q 377 -271 344 -292 q 410 -218 410 -250 q 379 -167 410 -189 q 314 -196 347 -172 l 299 -197 q 235 -178 263 -197 q 206 -126 208 -158 l 268 -1 q 161 59 218 14 q 65 159 104 104 q 26 257 26 214 q 77 576 28 406 q 226 867 126 747 q 465 986 325 986 q 602 944 539 986 q 701 842 665 903 q 738 726 738 781 z "},"È":{"ha":768,"x_min":89,"x_max":765,"o":"m 567 1079 q 535 1032 560 1049 q 474 1015 510 1015 q 435 1019 456 1015 q 344 1135 393 1067 q 267 1253 296 1204 q 324 1337 283 1307 q 415 1367 364 1367 q 513 1340 465 1367 l 517 1275 q 524 1175 518 1242 l 567 1079 m 713 972 q 752 930 739 957 q 765 871 765 903 q 754 815 765 843 q 725 769 743 788 q 426 756 546 767 q 382 567 403 671 q 617 600 521 578 q 659 556 644 583 q 674 497 674 529 q 662 442 674 468 q 629 401 650 417 q 578 397 603 399 q 529 394 553 396 l 350 382 l 325 257 l 311 190 q 465 213 396 199 q 610 254 533 228 q 670 203 649 236 q 692 132 692 171 q 649 33 692 76 q 456 8 563 17 q 257 0 349 0 q 192 25 232 0 q 120 83 151 50 q 89 140 89 117 q 121 301 89 161 q 167 515 144 404 q 182 592 182 592 q 211 749 204 700 l 153 744 q 110 785 126 758 q 94 844 94 813 q 138 943 94 900 q 469 951 328 946 q 713 972 610 957 z "},"É":{"ha":768,"x_min":89,"x_max":765,"o":"m 469 1340 q 568 1364 517 1364 q 667 1333 626 1364 q 708 1251 707 1303 q 503 1015 619 1128 q 479 1014 494 1014 q 417 1031 443 1014 q 385 1083 392 1049 q 427 1146 408 1114 q 453 1189 446 1178 q 469 1340 464 1261 m 713 972 q 752 930 739 957 q 765 871 765 903 q 754 815 765 843 q 725 769 743 788 q 426 756 546 767 q 382 567 403 671 q 617 600 521 578 q 659 556 644 583 q 674 497 674 529 q 662 442 674 468 q 629 401 650 417 q 578 397 603 399 q 529 394 553 396 l 350 382 l 325 257 l 311 190 q 465 213 396 199 q 610 254 533 228 q 670 203 649 236 q 692 132 692 171 q 649 33 692 76 q 456 8 563 17 q 257 0 349 0 q 192 25 232 0 q 120 83 151 50 q 89 140 89 117 q 121 301 89 161 q 167 515 144 404 q 182 592 182 592 q 211 749 204 700 l 153 744 q 110 785 126 758 q 94 844 94 813 q 138 943 94 900 q 469 951 328 946 q 713 972 610 957 z "},"Ê":{"ha":768,"x_min":89,"x_max":799,"o":"m 799 1090 q 692 1017 774 1017 q 643 1022 667 1017 l 525 1239 q 432 1139 474 1186 q 331 1018 390 1092 q 283 1013 297 1013 q 181 1044 222 1013 q 140 1128 140 1076 l 431 1360 q 468 1361 443 1361 q 553 1351 513 1361 q 622 1319 594 1340 l 799 1090 m 713 972 q 752 930 739 957 q 765 871 765 903 q 754 815 765 843 q 725 769 743 788 q 426 756 546 767 q 382 567 403 671 q 617 600 521 578 q 659 556 644 583 q 674 497 674 529 q 662 442 674 468 q 629 401 650 417 q 578 397 603 399 q 529 394 553 396 l 350 382 l 325 257 l 311 190 q 465 213 396 199 q 610 254 533 228 q 670 203 649 236 q 692 132 692 171 q 649 33 692 76 q 456 8 563 17 q 257 0 349 0 q 192 25 232 0 q 120 83 151 50 q 89 140 89 117 q 121 301 89 161 q 167 515 144 404 q 182 592 182 592 q 211 749 204 700 l 153 744 q 110 785 126 758 q 94 844 94 813 q 138 943 94 900 q 469 951 328 946 q 713 972 610 957 z "},"Ë":{"ha":768,"x_min":89,"x_max":774,"o":"m 321 1018 q 260 1038 296 1018 q 200 1087 225 1058 q 175 1138 175 1115 q 194 1210 175 1174 q 240 1261 213 1246 q 282 1268 258 1268 q 378 1247 329 1268 q 438 1193 426 1225 q 440 1174 440 1182 q 422 1107 440 1144 q 375 1044 403 1069 q 321 1018 347 1018 m 654 1018 q 594 1038 629 1018 q 533 1087 558 1058 q 508 1138 508 1115 q 527 1210 508 1174 q 574 1261 546 1246 q 615 1268 592 1268 q 711 1247 663 1268 q 771 1193 760 1225 q 774 1174 774 1182 q 755 1107 774 1144 q 708 1044 736 1069 q 654 1018 681 1018 m 713 972 q 752 930 739 957 q 765 871 765 903 q 754 815 765 843 q 725 769 743 788 q 426 756 546 767 q 382 567 403 671 q 617 600 521 578 q 659 556 644 583 q 674 497 674 529 q 662 442 674 468 q 629 401 650 417 q 578 397 603 399 q 529 394 553 396 l 350 382 l 325 257 l 311 190 q 465 213 396 199 q 610 254 533 228 q 670 203 649 236 q 692 132 692 171 q 649 33 692 76 q 456 8 563 17 q 257 0 349 0 q 192 25 232 0 q 120 83 151 50 q 89 140 89 117 q 121 301 89 161 q 167 515 144 404 q 182 592 182 592 q 211 749 204 700 l 153 744 q 110 785 126 758 q 94 844 94 813 q 138 943 94 900 q 469 951 328 946 q 713 972 610 957 z "},"Ì":{"ha":393,"x_min":24,"x_max":394,"o":"m 372 1079 q 340 1032 365 1049 q 279 1015 315 1015 q 240 1019 261 1015 q 150 1135 199 1067 q 72 1253 101 1204 q 129 1337 89 1307 q 221 1367 169 1367 q 318 1340 271 1367 l 322 1275 q 329 1175 324 1242 l 372 1079 m 210 0 q 134 23 178 0 q 58 78 90 46 q 25 131 25 110 q 38 224 24 153 q 57 317 53 296 q 78 419 63 344 q 103 557 93 493 l 114 622 q 163 875 140 778 q 210 972 186 972 q 281 949 236 972 q 360 893 326 925 q 394 838 394 861 q 368 726 394 825 q 296 421 319 551 q 267 206 282 339 q 242 46 253 92 q 210 0 232 0 z "},"Í":{"ha":393,"x_min":24,"x_max":514,"o":"m 275 1340 q 374 1364 322 1364 q 472 1333 432 1364 q 514 1251 513 1303 q 308 1015 425 1128 q 285 1014 300 1014 q 223 1031 249 1014 q 190 1083 197 1049 q 233 1146 214 1114 q 258 1189 251 1178 q 275 1340 269 1261 m 210 0 q 134 23 178 0 q 58 78 90 46 q 25 131 25 110 q 38 224 24 153 q 57 317 53 296 q 78 419 63 344 q 103 557 93 493 l 114 622 q 163 875 140 778 q 210 972 186 972 q 281 949 236 972 q 360 893 326 925 q 394 838 394 861 q 368 726 394 825 q 296 421 319 551 q 267 206 282 339 q 242 46 253 92 q 210 0 232 0 z "},"Î":{"ha":393,"x_min":-54,"x_max":604,"o":"m 604 1090 q 497 1017 579 1017 q 449 1022 472 1017 l 331 1239 q 238 1139 279 1186 q 136 1018 196 1092 q 89 1013 103 1013 q -13 1044 28 1013 q -54 1128 -54 1076 l 236 1360 q 274 1361 249 1361 q 359 1351 318 1361 q 428 1319 400 1340 l 604 1090 m 210 0 q 134 23 178 0 q 58 78 90 46 q 25 131 25 110 q 38 224 24 153 q 57 317 53 296 q 78 419 63 344 q 103 557 93 493 l 114 622 q 163 875 140 778 q 210 972 186 972 q 281 949 236 972 q 360 893 326 925 q 394 838 394 861 q 368 726 394 825 q 296 421 319 551 q 267 206 282 339 q 242 46 253 92 q 210 0 232 0 z "},"Ï":{"ha":393,"x_min":-19,"x_max":579,"o":"m 126 1018 q 66 1038 101 1018 q 6 1087 31 1058 q -19 1138 -19 1115 q -1 1210 -19 1174 q 46 1261 18 1246 q 88 1268 64 1268 q 183 1247 135 1268 q 243 1193 232 1225 q 246 1174 246 1182 q 227 1107 246 1144 q 181 1044 208 1069 q 126 1018 153 1018 m 460 1018 q 399 1038 435 1018 q 339 1087 364 1058 q 314 1138 314 1115 q 333 1210 314 1174 q 379 1261 351 1246 q 421 1268 397 1268 q 517 1247 468 1268 q 576 1193 565 1225 q 579 1174 579 1182 q 560 1107 579 1144 q 514 1044 542 1069 q 460 1018 486 1018 m 210 0 q 134 23 178 0 q 58 78 90 46 q 25 131 25 110 q 38 224 24 153 q 57 317 53 296 q 78 419 63 344 q 103 557 93 493 l 114 622 q 163 875 140 778 q 210 972 186 972 q 281 949 236 972 q 360 893 326 925 q 394 838 394 861 q 368 726 394 825 q 296 421 319 551 q 267 206 282 339 q 242 46 253 92 q 210 0 232 0 z "},"Ð":{"ha":829,"x_min":-21,"x_max":800,"o":"m 800 508 q 711 285 800 407 q 495 78 622 163 q 264 -7 368 -7 q 176 28 229 -7 q 82 108 122 63 q 42 179 42 153 q 60 265 42 201 q 110 410 79 329 l 31 403 q -7 440 7 415 q -21 492 -21 464 q 19 583 -21 543 l 144 581 l 176 757 l 119 760 q 97 849 97 804 q 118 926 97 890 q 179 986 139 961 q 490 903 347 972 q 717 728 633 833 q 800 508 800 624 m 264 175 q 495 351 403 247 q 588 547 588 456 q 557 623 588 585 q 476 690 526 661 q 371 728 426 718 l 340 588 l 443 606 q 482 567 469 590 q 494 515 494 543 q 483 462 494 488 q 453 418 472 436 l 303 422 l 264 175 z "},"Ñ":{"ha":860,"x_min":24,"x_max":885,"o":"m 640 1018 q 413 1131 522 1018 l 401 1133 l 299 1018 q 282 1017 293 1017 q 205 1044 236 1017 q 174 1118 174 1072 q 298 1238 222 1176 q 419 1300 374 1300 q 540 1265 476 1300 q 660 1179 603 1231 l 668 1179 l 758 1290 q 779 1292 765 1292 q 854 1267 824 1292 q 885 1201 885 1242 q 769 1077 843 1136 q 640 1018 694 1018 m 676 972 q 748 949 703 972 q 827 893 793 925 q 861 838 861 861 q 835 726 861 825 q 763 421 786 551 q 733 206 749 339 q 709 46 719 92 q 676 0 699 0 q 583 34 636 0 q 490 118 529 68 q 432 226 469 146 q 359 408 394 307 q 306 596 324 508 l 296 421 q 267 206 282 339 q 242 46 253 92 q 210 0 232 0 q 134 23 178 0 q 58 78 90 46 q 25 131 25 110 q 38 224 24 153 q 57 317 53 296 q 78 419 63 344 q 103 557 93 493 l 114 622 q 163 875 140 778 q 210 972 186 972 q 274 952 233 972 q 349 903 315 932 q 393 847 383 874 q 553 375 458 672 l 569 557 l 581 622 q 630 875 607 778 q 676 972 653 972 z "},"Ò":{"ha":793,"x_min":21,"x_max":783,"o":"m 588 1079 q 556 1032 581 1049 q 494 1015 531 1015 q 456 1019 476 1015 q 365 1135 414 1067 q 288 1253 317 1204 q 344 1337 304 1307 q 436 1367 385 1367 q 533 1340 486 1367 l 538 1275 q 544 1175 539 1242 l 588 1079 m 390 986 q 583 938 492 986 q 728 809 674 889 q 783 643 783 729 q 711 355 783 508 q 528 97 639 201 q 311 -7 418 -7 q 187 40 256 -7 q 69 151 118 86 q 21 265 21 215 q 68 538 21 344 q 156 824 115 732 q 242 838 201 838 q 286 832 269 838 q 311 926 283 883 q 390 986 339 969 m 247 183 q 471 370 381 232 q 599 674 561 508 q 498 719 560 701 q 365 739 436 738 q 371 697 368 725 q 247 183 243 458 z "},"Ó":{"ha":793,"x_min":21,"x_max":783,"o":"m 524 1015 q 500 1014 515 1014 q 438 1031 464 1014 q 406 1083 413 1049 q 448 1146 429 1114 q 474 1189 467 1178 q 490 1340 485 1261 q 589 1364 538 1364 q 688 1333 647 1364 q 729 1251 728 1303 q 524 1015 640 1128 m 390 986 q 583 938 492 986 q 728 809 674 889 q 783 643 783 729 q 711 355 783 508 q 528 97 639 201 q 311 -7 418 -7 q 187 40 256 -7 q 69 151 118 86 q 21 265 21 215 q 68 538 21 344 q 156 824 115 732 q 242 838 201 838 q 286 832 269 838 q 311 926 283 883 q 390 986 339 969 m 247 183 q 471 370 381 232 q 599 674 561 508 q 498 719 560 701 q 365 739 436 738 q 371 697 368 725 q 247 183 243 458 z "},"Ô":{"ha":793,"x_min":21,"x_max":819,"o":"m 819 1090 q 713 1017 794 1017 q 664 1022 688 1017 l 546 1239 q 453 1139 494 1186 q 351 1018 411 1092 q 304 1013 318 1013 q 202 1044 243 1013 q 161 1128 161 1076 l 451 1360 q 489 1361 464 1361 q 574 1351 533 1361 q 643 1319 615 1340 l 819 1090 m 390 986 q 583 938 492 986 q 728 809 674 889 q 783 643 783 729 q 711 355 783 508 q 528 97 639 201 q 311 -7 418 -7 q 187 40 256 -7 q 69 151 118 86 q 21 265 21 215 q 68 538 21 344 q 156 824 115 732 q 242 838 201 838 q 286 832 269 838 q 311 926 283 883 q 390 986 339 969 m 247 183 q 471 370 381 232 q 599 674 561 508 q 498 719 560 701 q 365 739 436 738 q 371 697 368 725 q 247 183 243 458 z "},"Õ":{"ha":793,"x_min":21,"x_max":865,"o":"m 739 1290 q 760 1292 746 1292 q 835 1267 804 1292 q 865 1201 865 1242 q 749 1077 824 1136 q 621 1018 675 1018 q 393 1131 503 1018 l 382 1133 l 279 1018 q 263 1017 274 1017 q 185 1044 217 1017 q 154 1118 154 1072 q 278 1238 203 1176 q 400 1300 354 1300 q 520 1265 457 1300 q 640 1179 583 1231 l 649 1179 l 739 1290 m 390 986 q 583 938 492 986 q 728 809 674 889 q 783 643 783 729 q 711 355 783 508 q 528 97 639 201 q 311 -7 418 -7 q 187 40 256 -7 q 69 151 118 86 q 21 265 21 215 q 68 538 21 344 q 156 824 115 732 q 242 838 201 838 q 286 832 269 838 q 311 926 283 883 q 390 986 339 969 m 247 183 q 471 370 381 232 q 599 674 561 508 q 498 719 560 701 q 365 739 436 738 q 371 697 368 725 q 247 183 243 458 z "},"Ö":{"ha":793,"x_min":21,"x_max":794,"o":"m 342 1018 q 281 1038 317 1018 q 221 1087 246 1058 q 196 1138 196 1115 q 215 1210 196 1174 q 261 1261 233 1246 q 303 1268 279 1268 q 399 1247 350 1268 q 458 1193 447 1225 q 461 1174 461 1182 q 442 1107 461 1144 q 396 1044 424 1069 q 342 1018 368 1018 m 675 1018 q 615 1038 650 1018 q 554 1087 579 1058 q 529 1138 529 1115 q 548 1210 529 1174 q 594 1261 567 1246 q 636 1268 613 1268 q 732 1247 683 1268 q 792 1193 781 1225 q 794 1174 794 1182 q 776 1107 794 1144 q 729 1044 757 1069 q 675 1018 701 1018 m 390 986 q 583 938 492 986 q 728 809 674 889 q 783 643 783 729 q 711 355 783 508 q 528 97 639 201 q 311 -7 418 -7 q 187 40 256 -7 q 69 151 118 86 q 21 265 21 215 q 68 538 21 344 q 156 824 115 732 q 242 838 201 838 q 286 832 269 838 q 311 926 283 883 q 390 986 339 969 m 247 183 q 471 370 381 232 q 599 674 561 508 q 498 719 560 701 q 365 739 436 738 q 371 697 368 725 q 247 183 243 458 z "},"×":{"ha":640,"x_min":25,"x_max":643,"o":"m 489 728 q 601 700 560 731 q 643 613 643 669 q 642 589 643 597 q 424 410 501 478 q 500 346 444 392 q 554 300 539 315 q 569 272 569 285 q 552 236 569 258 q 510 197 535 214 q 467 181 486 181 q 311 313 433 181 q 167 178 242 250 q 64 202 103 172 q 25 285 25 232 q 33 332 25 307 q 201 442 117 379 q 113 564 147 510 q 78 632 78 618 q 99 673 78 651 q 150 710 119 694 q 207 725 181 725 q 247 699 231 725 q 289 614 264 674 q 321 540 311 558 q 489 728 419 632 z "},"Ø":{"ha":868,"x_min":-49,"x_max":932,"o":"m 861 969 q 910 900 889 951 q 932 807 932 849 q 925 774 932 785 q 835 682 911 749 q 838 643 838 654 q 765 355 838 508 q 583 97 693 201 q 365 -7 472 -7 q 276 19 325 -7 q 181 88 226 46 q 43 0 64 -12 q -19 71 10 21 q -49 158 -49 121 q -42 185 -49 174 q 76 297 -29 206 q 130 569 86 396 q 210 824 174 742 q 296 838 256 838 q 340 832 324 838 q 365 926 338 883 q 444 986 393 969 q 591 958 519 986 q 718 882 663 931 q 850 972 813 972 q 861 969 856 972 m 604 700 q 419 739 522 735 q 425 697 422 725 q 331 450 364 585 q 604 700 476 569 m 301 183 q 452 279 378 211 q 582 435 526 347 q 660 604 638 522 l 304 271 q 301 183 301 242 z "},"Ù":{"ha":815,"x_min":36,"x_max":801,"o":"m 567 1079 q 535 1032 560 1049 q 474 1015 510 1015 q 435 1019 456 1015 q 344 1135 393 1067 q 267 1253 296 1204 q 324 1337 283 1307 q 415 1367 364 1367 q 513 1340 465 1367 l 517 1275 q 524 1175 518 1242 l 567 1079 m 785 935 q 801 739 801 833 q 735 361 801 532 q 561 92 668 190 q 343 -7 454 -7 q 215 34 288 -7 q 89 133 142 75 q 36 235 36 190 q 69 547 36 332 q 149 921 103 763 q 244 943 194 943 q 336 915 297 943 q 389 835 375 886 q 310 572 349 742 q 272 296 272 403 q 313 192 272 192 q 429 269 372 192 q 522 469 486 346 q 558 718 558 592 q 536 896 558 813 q 683 972 606 972 q 785 935 738 972 z "},"Ú":{"ha":815,"x_min":36,"x_max":801,"o":"m 469 1340 q 568 1364 517 1364 q 667 1333 626 1364 q 708 1251 707 1303 q 503 1015 619 1128 q 479 1014 494 1014 q 417 1031 443 1014 q 385 1083 392 1049 q 427 1146 408 1114 q 453 1189 446 1178 q 469 1340 464 1261 m 785 935 q 801 739 801 833 q 735 361 801 532 q 561 92 668 190 q 343 -7 454 -7 q 215 34 288 -7 q 89 133 142 75 q 36 235 36 190 q 69 547 36 332 q 149 921 103 763 q 244 943 194 943 q 336 915 297 943 q 389 835 375 886 q 310 572 349 742 q 272 296 272 403 q 313 192 272 192 q 429 269 372 192 q 522 469 486 346 q 558 718 558 592 q 536 896 558 813 q 683 972 606 972 q 785 935 738 972 z "},"Û":{"ha":815,"x_min":36,"x_max":801,"o":"m 799 1090 q 692 1017 774 1017 q 643 1022 667 1017 l 525 1239 q 432 1139 474 1186 q 331 1018 390 1092 q 283 1013 297 1013 q 181 1044 222 1013 q 140 1128 140 1076 l 431 1360 q 468 1361 443 1361 q 553 1351 513 1361 q 622 1319 594 1340 l 799 1090 m 785 935 q 801 739 801 833 q 735 361 801 532 q 561 92 668 190 q 343 -7 454 -7 q 215 34 288 -7 q 89 133 142 75 q 36 235 36 190 q 69 547 36 332 q 149 921 103 763 q 244 943 194 943 q 336 915 297 943 q 389 835 375 886 q 310 572 349 742 q 272 296 272 403 q 313 192 272 192 q 429 269 372 192 q 522 469 486 346 q 558 718 558 592 q 536 896 558 813 q 683 972 606 972 q 785 935 738 972 z "},"Ü":{"ha":815,"x_min":36,"x_max":801,"o":"m 321 1018 q 260 1038 296 1018 q 200 1087 225 1058 q 175 1138 175 1115 q 194 1210 175 1174 q 240 1261 213 1246 q 282 1268 258 1268 q 378 1247 329 1268 q 438 1193 426 1225 q 440 1174 440 1182 q 422 1107 440 1144 q 375 1044 403 1069 q 321 1018 347 1018 m 654 1018 q 594 1038 629 1018 q 533 1087 558 1058 q 508 1138 508 1115 q 527 1210 508 1174 q 574 1261 546 1246 q 615 1268 592 1268 q 711 1247 663 1268 q 771 1193 760 1225 q 774 1174 774 1182 q 755 1107 774 1144 q 708 1044 736 1069 q 654 1018 681 1018 m 785 935 q 801 739 801 833 q 735 361 801 532 q 561 92 668 190 q 343 -7 454 -7 q 215 34 288 -7 q 89 133 142 75 q 36 235 36 190 q 69 547 36 332 q 149 921 103 763 q 244 943 194 943 q 336 915 297 943 q 389 835 375 886 q 310 572 349 742 q 272 296 272 403 q 313 192 272 192 q 429 269 372 192 q 522 469 486 346 q 558 718 558 592 q 536 896 558 813 q 683 972 606 972 q 785 935 738 972 z "},"Ý":{"ha":796,"x_min":81,"x_max":849,"o":"m 457 1340 q 556 1364 504 1364 q 654 1333 614 1364 q 696 1251 694 1303 q 490 1015 607 1128 q 467 1014 482 1014 q 405 1031 431 1014 q 372 1083 379 1049 q 415 1146 396 1114 q 440 1189 433 1178 q 457 1340 451 1261 m 761 697 q 654 560 747 679 q 458 321 561 440 l 443 194 q 422 44 432 88 q 389 0 411 0 q 313 23 357 0 q 237 78 269 46 q 204 131 204 110 q 213 202 203 156 q 250 357 224 249 l 260 394 q 186 547 250 417 q 107 713 133 651 q 81 808 81 775 q 112 864 81 832 q 187 919 143 896 q 265 942 231 942 q 307 895 292 942 q 346 733 322 849 q 390 531 368 613 q 613 957 522 756 q 694 969 658 969 q 806 926 767 969 q 849 810 846 883 l 761 697 z "},"Þ":{"ha":765,"x_min":24,"x_max":740,"o":"m 378 763 q 578 726 496 761 q 700 633 660 690 q 740 507 740 575 q 684 348 740 424 q 519 226 628 272 q 264 182 411 179 q 241 42 251 83 q 210 0 231 0 q 134 23 178 0 q 58 78 90 46 q 25 131 25 110 q 38 224 24 153 q 57 317 53 296 q 78 419 63 344 q 103 557 93 493 l 114 622 q 163 875 140 778 q 210 972 186 972 q 281 949 236 972 q 360 893 326 925 q 394 838 394 861 q 378 763 394 826 m 285 353 q 419 376 364 354 q 503 428 475 397 q 531 493 531 460 q 492 558 531 532 q 386 585 454 585 q 331 581 360 585 q 285 353 301 464 z "},"ß":{"ha":860,"x_min":40,"x_max":850,"o":"m 333 169 q 506 273 433 210 q 579 390 579 336 q 553 441 579 417 q 479 497 528 465 q 413 545 436 525 q 390 586 390 565 q 407 622 390 604 q 461 668 424 639 q 569 769 529 721 q 615 892 610 818 q 575 897 588 897 q 447 837 503 897 q 356 685 392 776 q 304 497 321 593 q 282 340 296 454 q 252 141 264 204 q 226 78 240 78 q 149 101 194 78 q 72 156 104 125 q 42 208 40 188 q 108 610 63 408 q 189 882 154 813 q 326 1024 233 972 q 535 1076 419 1076 q 684 1045 611 1076 q 803 963 757 1014 q 850 860 850 913 q 793 706 850 776 q 625 571 736 635 q 765 476 718 528 q 813 357 813 424 q 767 190 813 274 q 645 53 722 107 q 481 0 568 0 q 369 39 411 0 q 328 132 328 78 q 333 169 328 153 z "},"à":{"ha":972,"x_min":19,"x_max":928,"o":"m 613 885 q 581 838 606 854 q 519 821 556 821 q 481 825 501 821 q 390 941 439 872 q 313 1058 342 1010 q 369 1142 329 1113 q 461 1172 410 1172 q 558 1146 511 1172 l 563 1081 q 569 981 564 1047 l 613 885 m 664 204 q 807 293 749 246 q 898 235 868 272 q 928 151 928 199 q 881 83 928 118 q 768 24 833 47 q 657 0 703 0 q 584 24 625 0 q 513 79 543 47 q 483 129 483 111 q 495 167 483 143 q 521 215 507 190 q 539 249 535 240 l 504 268 q 363 74 431 147 q 231 0 296 0 q 137 39 186 0 q 53 133 88 78 q 19 232 19 189 q 71 485 19 356 q 215 699 122 614 q 424 783 307 783 q 508 746 465 783 q 564 669 551 708 q 584 723 571 700 q 613 746 597 746 q 692 720 649 746 q 767 660 736 694 q 797 607 797 626 q 776 519 796 581 q 711 333 756 458 q 664 204 685 265 m 238 193 q 433 365 350 263 q 547 590 517 467 q 476 607 510 607 q 360 549 411 607 q 278 396 308 490 q 238 193 247 301 z "},"á":{"ha":972,"x_min":19,"x_max":928,"o":"m 515 1146 q 614 1169 563 1169 q 713 1139 672 1169 q 754 1057 753 1108 q 549 821 665 933 q 525 819 540 819 q 463 837 489 819 q 431 889 438 854 q 473 951 454 919 q 499 994 492 983 q 515 1146 510 1067 m 664 204 q 807 293 749 246 q 898 235 868 272 q 928 151 928 199 q 881 83 928 118 q 768 24 833 47 q 657 0 703 0 q 584 24 625 0 q 513 79 543 47 q 483 129 483 111 q 495 167 483 143 q 521 215 507 190 q 539 249 535 240 l 504 268 q 363 74 431 147 q 231 0 296 0 q 137 39 186 0 q 53 133 88 78 q 19 232 19 189 q 71 485 19 356 q 215 699 122 614 q 424 783 307 783 q 508 746 465 783 q 564 669 551 708 q 584 723 571 700 q 613 746 597 746 q 692 720 649 746 q 767 660 736 694 q 797 607 797 626 q 776 519 796 581 q 711 333 756 458 q 664 204 685 265 m 238 193 q 433 365 350 263 q 547 590 517 467 q 476 607 510 607 q 360 549 411 607 q 278 396 308 490 q 238 193 247 301 z "},"â":{"ha":972,"x_min":19,"x_max":928,"o":"m 844 896 q 738 822 819 822 q 689 828 713 822 l 571 1044 q 478 944 519 992 q 376 824 436 897 q 329 818 343 818 q 227 850 268 818 q 186 933 186 882 l 476 1165 q 514 1167 489 1167 q 599 1156 558 1167 q 668 1125 640 1146 l 844 896 m 664 204 q 807 293 749 246 q 898 235 868 272 q 928 151 928 199 q 881 83 928 118 q 768 24 833 47 q 657 0 703 0 q 584 24 625 0 q 513 79 543 47 q 483 129 483 111 q 495 167 483 143 q 521 215 507 190 q 539 249 535 240 l 504 268 q 363 74 431 147 q 231 0 296 0 q 137 39 186 0 q 53 133 88 78 q 19 232 19 189 q 71 485 19 356 q 215 699 122 614 q 424 783 307 783 q 508 746 465 783 q 564 669 551 708 q 584 723 571 700 q 613 746 597 746 q 692 720 649 746 q 767 660 736 694 q 797 607 797 626 q 776 519 796 581 q 711 333 756 458 q 664 204 685 265 m 238 193 q 433 365 350 263 q 547 590 517 467 q 476 607 510 607 q 360 549 411 607 q 278 396 308 490 q 238 193 247 301 z "},"ã":{"ha":972,"x_min":19,"x_max":928,"o":"m 646 824 q 418 936 528 824 l 407 939 l 304 824 q 288 822 299 822 q 210 850 242 822 q 179 924 179 878 q 303 1044 228 982 q 425 1106 379 1106 q 545 1071 482 1106 q 665 985 608 1036 l 674 985 l 764 1096 q 785 1097 771 1097 q 860 1072 829 1097 q 890 1007 890 1047 q 774 883 849 942 q 646 824 700 824 m 664 204 q 807 293 749 246 q 898 235 868 272 q 928 151 928 199 q 881 83 928 118 q 768 24 833 47 q 657 0 703 0 q 584 24 625 0 q 513 79 543 47 q 483 129 483 111 q 495 167 483 143 q 521 215 507 190 q 539 249 535 240 l 504 268 q 363 74 431 147 q 231 0 296 0 q 137 39 186 0 q 53 133 88 78 q 19 232 19 189 q 71 485 19 356 q 215 699 122 614 q 424 783 307 783 q 508 746 465 783 q 564 669 551 708 q 584 723 571 700 q 613 746 597 746 q 692 720 649 746 q 767 660 736 694 q 797 607 797 626 q 776 519 796 581 q 711 333 756 458 q 664 204 685 265 m 238 193 q 433 365 350 263 q 547 590 517 467 q 476 607 510 607 q 360 549 411 607 q 278 396 308 490 q 238 193 247 301 z "},"ä":{"ha":972,"x_min":19,"x_max":928,"o":"m 367 824 q 306 844 342 824 q 246 892 271 864 q 221 943 221 921 q 240 1015 221 979 q 286 1067 258 1051 q 328 1074 304 1074 q 424 1052 375 1074 q 483 999 472 1031 q 486 979 486 988 q 467 913 486 950 q 421 849 449 875 q 367 824 393 824 m 700 824 q 640 844 675 824 q 579 892 604 864 q 554 943 554 921 q 573 1015 554 979 q 619 1067 592 1051 q 661 1074 638 1074 q 757 1052 708 1074 q 817 999 806 1031 q 819 979 819 988 q 801 913 819 950 q 754 849 782 875 q 700 824 726 824 m 664 204 q 807 293 749 246 q 898 235 868 272 q 928 151 928 199 q 881 83 928 118 q 768 24 833 47 q 657 0 703 0 q 584 24 625 0 q 513 79 543 47 q 483 129 483 111 q 495 167 483 143 q 521 215 507 190 q 539 249 535 240 l 504 268 q 363 74 431 147 q 231 0 296 0 q 137 39 186 0 q 53 133 88 78 q 19 232 19 189 q 71 485 19 356 q 215 699 122 614 q 424 783 307 783 q 508 746 465 783 q 564 669 551 708 q 584 723 571 700 q 613 746 597 746 q 692 720 649 746 q 767 660 736 694 q 797 607 797 626 q 776 519 796 581 q 711 333 756 458 q 664 204 685 265 m 238 193 q 433 365 350 263 q 547 590 517 467 q 476 607 510 607 q 360 549 411 607 q 278 396 308 490 q 238 193 247 301 z "},"å":{"ha":972,"x_min":19,"x_max":928,"o":"m 490 824 q 415 847 456 824 q 347 903 375 869 q 319 964 319 936 q 372 1158 319 1068 q 439 1174 403 1176 q 436 1190 436 1185 q 458 1238 436 1217 q 517 1268 479 1258 q 631 1235 579 1263 q 713 1169 683 1207 q 743 1093 743 1131 q 710 974 743 1038 q 620 867 678 910 q 490 824 563 824 m 613 1114 q 501 1136 569 1139 q 510 1104 510 1122 q 476 1037 488 1075 q 464 960 464 999 q 467 922 464 947 q 613 1114 585 964 m 807 293 q 898 235 868 272 q 928 151 928 199 q 881 83 928 118 q 768 24 833 47 q 657 0 703 0 q 584 24 625 0 q 513 79 543 47 q 483 129 483 111 q 495 167 483 143 q 521 215 507 190 q 539 249 535 240 l 504 268 q 363 74 431 147 q 231 0 296 0 q 137 39 186 0 q 53 133 88 78 q 19 232 19 189 q 71 485 19 356 q 215 699 122 614 q 424 783 307 783 q 508 746 465 783 q 564 669 551 708 q 584 723 571 700 q 613 746 597 746 q 692 720 649 746 q 767 660 736 694 q 797 607 797 626 q 776 519 796 581 q 711 333 756 458 q 664 204 685 265 q 807 293 749 246 m 238 193 q 433 365 350 263 q 547 590 517 467 q 476 607 510 607 q 360 549 411 607 q 278 396 308 490 q 238 193 247 301 z "},"æ":{"ha":1172,"x_min":19,"x_max":1110,"o":"m 982 307 q 1064 254 1036 290 q 1092 168 1092 218 q 1041 87 1092 126 q 915 24 990 47 q 774 0 840 0 q 615 61 689 0 q 499 214 542 122 q 367 62 442 124 q 231 0 292 0 q 137 39 186 0 q 53 133 88 78 q 19 232 19 189 q 71 485 19 356 q 215 699 122 614 q 424 783 307 783 q 619 669 526 783 q 840 783 721 783 q 978 750 917 783 q 1075 667 1040 717 q 1110 569 1110 617 q 1058 456 1110 511 q 911 357 1006 400 q 694 296 817 314 q 693 246 693 279 q 696 183 693 206 q 838 224 768 190 q 982 307 908 257 m 860 611 q 770 518 807 572 q 715 400 733 464 q 859 478 804 432 q 914 558 914 525 q 860 611 914 597 m 238 193 q 433 365 350 263 q 547 590 517 467 q 476 607 510 607 q 360 549 411 607 q 278 396 308 490 q 238 193 247 301 z "},"ç":{"ha":717,"x_min":6,"x_max":682,"o":"m 429 618 q 290 451 338 558 q 243 233 243 344 q 246 183 243 217 q 488 318 376 189 q 597 267 556 306 q 638 168 638 228 q 594 91 638 128 q 485 31 551 54 q 351 1 418 7 l 307 -74 q 382 -60 343 -60 q 501 -104 453 -60 q 550 -219 550 -149 q 516 -318 550 -274 q 418 -390 482 -362 q 268 -417 354 -417 q 123 -390 192 -417 q 7 -307 54 -362 q 6 -292 6 -301 q 25 -244 6 -262 q 76 -229 44 -225 q 153 -276 111 -260 q 236 -292 196 -292 q 322 -271 289 -292 q 354 -218 354 -250 q 324 -167 354 -189 q 258 -196 292 -172 l 243 -197 q 180 -178 207 -197 q 150 -126 153 -158 l 224 24 q 80 133 142 60 q 18 272 18 207 q 69 502 18 382 q 210 703 119 622 q 413 783 300 783 q 544 758 482 783 q 644 692 607 733 q 682 606 682 650 q 644 528 682 563 q 546 494 607 494 q 506 499 526 494 q 429 618 471 583 z "},"è":{"ha":722,"x_min":18,"x_max":660,"o":"m 510 885 q 478 838 503 854 q 417 821 453 821 q 378 825 399 821 q 288 941 336 872 q 210 1058 239 1010 q 267 1142 226 1113 q 358 1172 307 1172 q 456 1146 408 1172 l 460 1081 q 467 981 461 1047 l 510 885 m 324 0 q 185 44 257 0 q 65 151 113 88 q 18 272 18 215 q 66 494 18 374 q 199 699 114 615 q 390 783 283 783 q 528 750 467 783 q 625 667 590 717 q 660 569 660 617 q 607 455 660 511 q 460 356 554 399 q 244 296 365 314 q 243 246 243 279 q 246 183 243 204 q 383 221 315 190 q 532 307 451 251 q 614 254 586 290 q 642 168 642 218 q 591 87 642 126 q 465 24 540 47 q 324 0 390 0 m 265 400 q 407 478 350 431 q 464 558 464 525 q 410 611 464 597 q 320 518 357 572 q 265 400 283 464 z "},"é":{"ha":722,"x_min":18,"x_max":660,"o":"m 413 1146 q 511 1169 460 1169 q 610 1139 569 1169 q 651 1057 650 1108 q 446 821 563 933 q 422 819 438 819 q 360 837 386 819 q 328 889 335 854 q 370 951 351 919 q 396 994 389 983 q 413 1146 407 1067 m 324 0 q 185 44 257 0 q 65 151 113 88 q 18 272 18 215 q 66 494 18 374 q 199 699 114 615 q 390 783 283 783 q 528 750 467 783 q 625 667 590 717 q 660 569 660 617 q 607 455 660 511 q 460 356 554 399 q 244 296 365 314 q 243 246 243 279 q 246 183 243 204 q 383 221 315 190 q 532 307 451 251 q 614 254 586 290 q 642 168 642 218 q 591 87 642 126 q 465 24 540 47 q 324 0 390 0 m 265 400 q 407 478 350 431 q 464 558 464 525 q 410 611 464 597 q 320 518 357 572 q 265 400 283 464 z "},"ê":{"ha":722,"x_min":18,"x_max":742,"o":"m 742 896 q 635 822 717 822 q 586 828 610 822 l 468 1044 q 375 944 417 992 q 274 824 333 897 q 226 818 240 818 q 124 850 165 818 q 83 933 83 882 l 374 1165 q 411 1167 386 1167 q 497 1156 456 1167 q 565 1125 538 1146 l 742 896 m 324 0 q 185 44 257 0 q 65 151 113 88 q 18 272 18 215 q 66 494 18 374 q 199 699 114 615 q 390 783 283 783 q 528 750 467 783 q 625 667 590 717 q 660 569 660 617 q 607 455 660 511 q 460 356 554 399 q 244 296 365 314 q 243 246 243 279 q 246 183 243 204 q 383 221 315 190 q 532 307 451 251 q 614 254 586 290 q 642 168 642 218 q 591 87 642 126 q 465 24 540 47 q 324 0 390 0 m 265 400 q 407 478 350 431 q 464 558 464 525 q 410 611 464 597 q 320 518 357 572 q 265 400 283 464 z "},"ë":{"ha":722,"x_min":18,"x_max":717,"o":"m 264 824 q 203 844 239 824 q 143 892 168 864 q 118 943 118 921 q 137 1015 118 979 q 183 1067 156 1051 q 225 1074 201 1074 q 321 1052 272 1074 q 381 999 369 1031 q 383 979 383 988 q 365 913 383 950 q 318 849 346 875 q 264 824 290 824 m 597 824 q 537 844 572 824 q 476 892 501 864 q 451 943 451 921 q 470 1015 451 979 q 517 1067 489 1051 q 558 1074 535 1074 q 654 1052 606 1074 q 714 999 703 1031 q 717 979 717 988 q 698 913 717 950 q 651 849 679 875 q 597 824 624 824 m 324 0 q 185 44 257 0 q 65 151 113 88 q 18 272 18 215 q 66 494 18 374 q 199 699 114 615 q 390 783 283 783 q 528 750 467 783 q 625 667 590 717 q 660 569 660 617 q 607 455 660 511 q 460 356 554 399 q 244 296 365 314 q 243 246 243 279 q 246 183 243 204 q 383 221 315 190 q 532 307 451 251 q 614 254 586 290 q 642 168 642 218 q 591 87 642 126 q 465 24 540 47 q 324 0 390 0 m 265 400 q 407 478 350 431 q 464 558 464 525 q 410 611 464 597 q 320 518 357 572 q 265 400 283 464 z "},"ì":{"ha":535,"x_min":14,"x_max":490,"o":"m 314 885 q 282 838 307 854 q 221 821 257 821 q 182 825 203 821 q 92 941 140 872 q 14 1058 43 1010 q 71 1142 31 1113 q 163 1172 111 1172 q 260 1146 213 1172 l 264 1081 q 271 981 265 1047 l 314 885 m 213 0 q 131 24 176 0 q 53 81 86 49 q 21 136 21 114 q 39 210 21 161 q 93 343 57 258 q 135 445 121 408 q 149 497 149 482 q 135 522 149 508 q 96 554 122 535 q 51 592 65 578 q 36 621 36 606 q 63 689 36 650 q 127 756 90 728 q 190 783 164 783 q 260 756 222 783 q 326 690 299 728 q 353 628 353 651 q 322 453 353 567 q 242 210 290 340 q 300 242 275 225 q 369 293 325 258 q 461 234 432 272 q 490 151 490 196 q 444 81 490 115 q 331 23 397 46 q 213 0 264 0 z "},"í":{"ha":535,"x_min":21,"x_max":490,"o":"m 217 1146 q 315 1169 264 1169 q 414 1139 374 1169 q 456 1057 454 1108 q 250 821 367 933 q 226 819 242 819 q 165 837 190 819 q 132 889 139 854 q 174 951 156 919 q 200 994 193 983 q 217 1146 211 1067 m 213 0 q 131 24 176 0 q 53 81 86 49 q 21 136 21 114 q 39 210 21 161 q 93 343 57 258 q 135 445 121 408 q 149 497 149 482 q 135 522 149 508 q 96 554 122 535 q 51 592 65 578 q 36 621 36 606 q 63 689 36 650 q 127 756 90 728 q 190 783 164 783 q 260 756 222 783 q 326 690 299 728 q 353 628 353 651 q 322 453 353 567 q 242 210 290 340 q 300 242 275 225 q 369 293 325 258 q 461 234 432 272 q 490 151 490 196 q 444 81 490 115 q 331 23 397 46 q 213 0 264 0 z "},"î":{"ha":535,"x_min":-112,"x_max":546,"o":"m 546 896 q 439 822 521 822 q 390 828 414 822 l 272 1044 q 179 944 221 992 q 78 824 138 897 q 31 818 44 818 q -72 850 -31 818 q -112 933 -112 882 l 178 1165 q 215 1167 190 1167 q 301 1156 260 1167 q 369 1125 342 1146 l 546 896 m 213 0 q 131 24 176 0 q 53 81 86 49 q 21 136 21 114 q 39 210 21 161 q 93 343 57 258 q 135 445 121 408 q 149 497 149 482 q 135 522 149 508 q 96 554 122 535 q 51 592 65 578 q 36 621 36 606 q 63 689 36 650 q 127 756 90 728 q 190 783 164 783 q 260 756 222 783 q 326 690 299 728 q 353 628 353 651 q 322 453 353 567 q 242 210 290 340 q 300 242 275 225 q 369 293 325 258 q 461 234 432 272 q 490 151 490 196 q 444 81 490 115 q 331 23 397 46 q 213 0 264 0 z "},"ï":{"ha":535,"x_min":-78,"x_max":521,"o":"m 68 824 q 8 844 43 824 q -53 892 -28 864 q -78 943 -78 921 q -59 1015 -78 979 q -12 1067 -40 1051 q 29 1074 6 1074 q 125 1052 76 1074 q 185 999 174 1031 q 188 979 188 988 q 169 913 188 950 q 122 849 150 875 q 68 824 94 824 m 401 824 q 341 844 376 824 q 281 892 306 864 q 256 943 256 921 q 274 1015 256 979 q 321 1067 293 1051 q 363 1074 339 1074 q 458 1052 410 1074 q 518 999 507 1031 q 521 979 521 988 q 502 913 521 950 q 456 849 483 875 q 401 824 428 824 m 213 0 q 131 24 176 0 q 53 81 86 49 q 21 136 21 114 q 39 210 21 161 q 93 343 57 258 q 135 445 121 408 q 149 497 149 482 q 135 522 149 508 q 96 554 122 535 q 51 592 65 578 q 36 621 36 606 q 63 689 36 650 q 127 756 90 728 q 190 783 164 783 q 260 756 222 783 q 326 690 299 728 q 353 628 353 651 q 322 453 353 567 q 242 210 290 340 q 300 242 275 225 q 369 293 325 258 q 461 234 432 272 q 490 151 490 196 q 444 81 490 115 q 331 23 397 46 q 213 0 264 0 z "},"ð":{"ha":753,"x_min":15,"x_max":758,"o":"m 672 1028 q 736 992 714 1019 q 758 928 758 964 q 743 871 758 897 l 643 846 q 692 712 676 785 q 708 569 708 639 q 646 302 708 435 q 474 85 583 169 q 235 0 365 0 q 137 42 189 0 q 50 145 85 85 q 15 253 15 206 q 60 468 15 361 q 181 644 106 575 q 343 714 257 714 q 442 691 394 714 q 528 633 490 668 q 508 731 524 683 q 468 814 493 778 l 275 747 q 220 780 240 754 q 200 838 200 806 q 219 896 200 871 l 356 922 q 326 937 344 931 q 303 944 308 943 q 253 965 268 957 q 238 990 238 974 q 285 1053 238 1026 q 389 1081 333 1081 q 476 1052 432 1081 q 556 983 521 1024 l 672 1028 m 242 193 q 379 265 321 213 q 470 384 438 317 q 507 515 503 451 q 424 538 463 538 q 324 500 368 538 q 256 402 281 463 q 232 274 232 342 q 242 193 232 231 z "},"ñ":{"ha":917,"x_min":21,"x_max":872,"o":"m 604 824 q 376 936 486 824 l 365 939 l 263 824 q 246 822 257 822 q 169 850 200 822 q 138 924 138 878 q 262 1044 186 982 q 383 1106 338 1106 q 503 1071 440 1106 q 624 985 567 1036 l 632 985 l 722 1096 q 743 1097 729 1097 q 818 1072 788 1097 q 849 1007 849 1047 q 733 883 807 942 q 604 824 658 824 m 751 293 q 842 235 813 272 q 872 151 872 199 q 825 83 872 118 q 713 24 778 47 q 601 0 647 0 q 528 25 569 0 q 456 83 486 50 q 426 133 426 115 q 457 242 426 147 q 511 450 511 407 q 503 467 511 467 q 296 272 447 467 q 284 217 290 250 q 275 169 278 183 q 247 44 260 88 q 213 0 233 0 q 131 24 176 0 q 53 81 86 49 q 21 136 21 114 q 39 210 21 161 q 93 343 57 258 q 135 445 121 408 q 149 497 149 482 q 135 522 149 508 q 96 554 122 535 q 51 592 65 578 q 36 621 36 606 q 63 689 36 650 q 127 756 90 728 q 190 783 164 783 q 258 757 219 783 q 324 697 296 731 q 353 644 353 663 q 345 563 353 611 q 325 467 338 514 q 493 673 426 600 q 597 746 560 746 q 661 719 624 746 q 726 659 699 693 q 753 607 753 625 q 733 526 751 583 q 682 375 715 469 q 625 210 638 253 q 692 248 668 232 q 751 293 717 264 z "},"ò":{"ha":710,"x_min":17,"x_max":681,"o":"m 511 885 q 479 838 504 854 q 418 821 454 821 q 379 825 400 821 q 289 941 338 872 q 211 1058 240 1010 q 268 1142 228 1113 q 360 1172 308 1172 q 457 1146 410 1172 l 461 1081 q 468 981 463 1047 l 511 885 m 328 785 q 508 726 426 774 q 635 611 589 678 q 681 478 681 544 q 629 265 681 378 q 486 76 578 153 q 282 0 394 0 q 164 41 226 0 q 59 141 101 82 q 17 246 17 200 q 38 420 17 331 q 101 594 58 510 q 182 617 142 617 q 215 613 200 617 q 210 651 210 629 q 241 732 210 696 q 328 785 272 768 m 232 158 q 411 292 347 197 q 496 517 475 386 q 326 561 433 561 q 286 560 300 561 q 301 497 301 532 q 246 372 265 440 q 226 233 226 303 q 232 158 226 192 z "},"ó":{"ha":710,"x_min":17,"x_max":681,"o":"m 447 821 q 424 819 439 819 q 362 837 388 819 q 329 889 336 854 q 372 951 353 919 q 397 994 390 983 q 414 1146 408 1067 q 513 1169 461 1169 q 611 1139 571 1169 q 653 1057 651 1108 q 447 821 564 933 m 328 785 q 508 726 426 774 q 635 611 589 678 q 681 478 681 544 q 629 265 681 378 q 486 76 578 153 q 282 0 394 0 q 164 41 226 0 q 59 141 101 82 q 17 246 17 200 q 38 420 17 331 q 101 594 58 510 q 182 617 142 617 q 215 613 200 617 q 210 651 210 629 q 241 732 210 696 q 328 785 272 768 m 232 158 q 411 292 347 197 q 496 517 475 386 q 326 561 433 561 q 286 560 300 561 q 301 497 301 532 q 246 372 265 440 q 226 233 226 303 q 232 158 226 192 z "},"ô":{"ha":710,"x_min":17,"x_max":743,"o":"m 743 896 q 636 822 718 822 q 588 828 611 822 l 469 1044 q 376 944 418 992 q 275 824 335 897 q 228 818 242 818 q 126 850 167 818 q 85 933 85 882 l 375 1165 q 413 1167 388 1167 q 498 1156 457 1167 q 567 1125 539 1146 l 743 896 m 328 785 q 508 726 426 774 q 635 611 589 678 q 681 478 681 544 q 629 265 681 378 q 486 76 578 153 q 282 0 394 0 q 164 41 226 0 q 59 141 101 82 q 17 246 17 200 q 38 420 17 331 q 101 594 58 510 q 182 617 142 617 q 215 613 200 617 q 210 651 210 629 q 241 732 210 696 q 328 785 272 768 m 232 158 q 411 292 347 197 q 496 517 475 386 q 326 561 433 561 q 286 560 300 561 q 301 497 301 532 q 246 372 265 440 q 226 233 226 303 q 232 158 226 192 z "},"õ":{"ha":710,"x_min":17,"x_max":789,"o":"m 663 1096 q 683 1097 669 1097 q 758 1072 728 1097 q 789 1007 789 1047 q 673 883 747 942 q 544 824 599 824 q 317 936 426 824 l 306 939 l 203 824 q 186 822 197 822 q 109 850 140 822 q 78 924 78 878 q 202 1044 126 982 q 324 1106 278 1106 q 444 1071 381 1106 q 564 985 507 1036 l 572 985 l 663 1096 m 328 785 q 508 726 426 774 q 635 611 589 678 q 681 478 681 544 q 629 265 681 378 q 486 76 578 153 q 282 0 394 0 q 164 41 226 0 q 59 141 101 82 q 17 246 17 200 q 38 420 17 331 q 101 594 58 510 q 182 617 142 617 q 215 613 200 617 q 210 651 210 629 q 241 732 210 696 q 328 785 272 768 m 232 158 q 411 292 347 197 q 496 517 475 386 q 326 561 433 561 q 286 560 300 561 q 301 497 301 532 q 246 372 265 440 q 226 233 226 303 q 232 158 226 192 z "},"ö":{"ha":710,"x_min":17,"x_max":718,"o":"m 265 824 q 205 844 240 824 q 144 892 169 864 q 119 943 119 921 q 138 1015 119 979 q 185 1067 157 1051 q 226 1074 203 1074 q 322 1052 274 1074 q 382 999 371 1031 q 385 979 385 988 q 366 913 385 950 q 319 849 347 875 q 265 824 292 824 m 599 824 q 538 844 574 824 q 478 892 503 864 q 453 943 453 921 q 472 1015 453 979 q 518 1067 490 1051 q 560 1074 536 1074 q 656 1052 607 1074 q 715 999 704 1031 q 718 979 718 988 q 699 913 718 950 q 653 849 681 875 q 599 824 625 824 m 328 785 q 508 726 426 774 q 635 611 589 678 q 681 478 681 544 q 629 265 681 378 q 486 76 578 153 q 282 0 394 0 q 164 41 226 0 q 59 141 101 82 q 17 246 17 200 q 38 420 17 331 q 101 594 58 510 q 182 617 142 617 q 215 613 200 617 q 210 651 210 629 q 241 732 210 696 q 328 785 272 768 m 232 158 q 411 292 347 197 q 496 517 475 386 q 326 561 433 561 q 286 560 300 561 q 301 497 301 532 q 246 372 265 440 q 226 233 226 303 q 232 158 226 192 z "},"÷":{"ha":785,"x_min":22,"x_max":753,"o":"m 400 608 q 353 631 378 608 q 313 687 329 654 q 296 744 296 719 q 327 789 296 765 q 402 828 358 813 q 479 844 446 844 q 525 822 503 844 q 561 770 547 800 q 575 719 575 740 q 544 670 575 696 q 471 626 513 644 q 400 608 429 608 m 82 349 q 38 390 54 363 q 22 449 22 417 q 64 542 22 504 q 700 579 376 546 q 740 538 726 564 q 753 482 753 513 q 742 428 753 454 q 713 385 731 403 l 336 364 l 82 349 m 303 79 q 256 102 281 79 q 215 158 232 125 q 199 215 199 190 q 230 260 199 236 q 305 299 261 283 q 382 315 349 315 q 428 293 406 315 q 464 241 450 271 q 478 190 478 211 q 447 141 478 167 q 374 97 415 115 q 303 79 332 79 z "},"ø":{"ha":799,"x_min":-7,"x_max":797,"o":"m 726 781 q 776 711 754 761 q 797 622 797 661 q 792 593 797 603 q 732 529 775 568 q 739 478 739 504 q 688 265 739 378 q 544 76 636 153 q 340 0 453 0 q 194 65 278 0 q 134 17 157 33 q 99 0 111 0 q 56 28 81 0 q 12 96 31 57 q -7 161 -7 135 q 75 251 -7 185 q 160 594 78 429 q 240 617 200 617 q 274 613 258 617 q 268 651 268 629 q 299 732 268 696 q 386 785 331 768 q 597 699 510 769 q 664 760 632 738 q 715 783 696 783 q 726 781 721 783 m 507 546 q 388 561 451 561 q 344 560 358 561 q 360 497 360 532 q 299 361 328 449 q 376 431 290 354 q 507 546 425 472 m 290 158 q 467 281 388 192 q 583 479 546 371 q 285 215 386 294 q 290 158 285 188 z "},"ù":{"ha":944,"x_min":36,"x_max":900,"o":"m 557 885 q 525 838 550 854 q 464 821 500 821 q 425 825 446 821 q 335 941 383 872 q 257 1058 286 1010 q 314 1142 274 1113 q 406 1172 354 1172 q 503 1146 456 1172 l 507 1081 q 514 981 508 1047 l 557 885 m 221 0 q 142 27 185 0 q 71 90 100 54 q 42 147 42 125 q 55 211 42 169 q 83 294 68 253 q 101 347 97 336 q 134 439 119 396 q 149 497 149 482 q 135 522 149 508 q 96 554 122 535 q 51 592 65 578 q 36 621 36 606 q 63 689 36 650 q 127 756 90 728 q 190 783 164 783 q 258 757 219 783 q 324 697 296 731 q 353 644 353 663 q 324 438 353 558 q 249 197 294 317 q 413 367 340 274 q 514 533 485 460 q 535 685 517 624 q 579 746 554 746 q 659 720 615 746 q 733 660 703 694 q 764 607 764 626 q 738 498 763 578 q 668 293 713 418 q 638 204 642 215 q 710 242 678 222 q 779 293 743 263 q 870 235 840 272 q 900 151 900 199 q 853 83 900 118 q 740 24 806 47 q 629 0 675 0 q 560 24 600 0 q 488 80 519 49 q 457 126 457 111 q 467 164 457 142 q 491 212 478 186 q 511 249 504 238 l 476 268 q 345 64 400 128 q 221 0 290 0 z "},"ú":{"ha":944,"x_min":36,"x_max":900,"o":"m 460 1146 q 558 1169 507 1169 q 657 1139 617 1169 q 699 1057 697 1108 q 493 821 610 933 q 469 819 485 819 q 408 837 433 819 q 375 889 382 854 q 417 951 399 919 q 443 994 436 983 q 460 1146 454 1067 m 221 0 q 142 27 185 0 q 71 90 100 54 q 42 147 42 125 q 55 211 42 169 q 83 294 68 253 q 101 347 97 336 q 134 439 119 396 q 149 497 149 482 q 135 522 149 508 q 96 554 122 535 q 51 592 65 578 q 36 621 36 606 q 63 689 36 650 q 127 756 90 728 q 190 783 164 783 q 258 757 219 783 q 324 697 296 731 q 353 644 353 663 q 324 438 353 558 q 249 197 294 317 q 413 367 340 274 q 514 533 485 460 q 535 685 517 624 q 579 746 554 746 q 659 720 615 746 q 733 660 703 694 q 764 607 764 626 q 738 498 763 578 q 668 293 713 418 q 638 204 642 215 q 710 242 678 222 q 779 293 743 263 q 870 235 840 272 q 900 151 900 199 q 853 83 900 118 q 740 24 806 47 q 629 0 675 0 q 560 24 600 0 q 488 80 519 49 q 457 126 457 111 q 467 164 457 142 q 491 212 478 186 q 511 249 504 238 l 476 268 q 345 64 400 128 q 221 0 290 0 z "},"û":{"ha":944,"x_min":36,"x_max":900,"o":"m 789 896 q 682 822 764 822 q 633 828 657 822 l 515 1044 q 422 944 464 992 q 321 824 381 897 q 274 818 288 818 q 172 850 213 818 q 131 933 131 882 l 421 1165 q 458 1167 433 1167 q 544 1156 503 1167 q 613 1125 585 1146 l 789 896 m 221 0 q 142 27 185 0 q 71 90 100 54 q 42 147 42 125 q 55 211 42 169 q 83 294 68 253 q 101 347 97 336 q 134 439 119 396 q 149 497 149 482 q 135 522 149 508 q 96 554 122 535 q 51 592 65 578 q 36 621 36 606 q 63 689 36 650 q 127 756 90 728 q 190 783 164 783 q 258 757 219 783 q 324 697 296 731 q 353 644 353 663 q 324 438 353 558 q 249 197 294 317 q 413 367 340 274 q 514 533 485 460 q 535 685 517 624 q 579 746 554 746 q 659 720 615 746 q 733 660 703 694 q 764 607 764 626 q 738 498 763 578 q 668 293 713 418 q 638 204 642 215 q 710 242 678 222 q 779 293 743 263 q 870 235 840 272 q 900 151 900 199 q 853 83 900 118 q 740 24 806 47 q 629 0 675 0 q 560 24 600 0 q 488 80 519 49 q 457 126 457 111 q 467 164 457 142 q 491 212 478 186 q 511 249 504 238 l 476 268 q 345 64 400 128 q 221 0 290 0 z "},"ü":{"ha":944,"x_min":36,"x_max":900,"o":"m 311 824 q 251 844 286 824 q 190 892 215 864 q 165 943 165 921 q 184 1015 165 979 q 231 1067 203 1051 q 272 1074 249 1074 q 368 1052 319 1074 q 428 999 417 1031 q 431 979 431 988 q 412 913 431 950 q 365 849 393 875 q 311 824 338 824 m 644 824 q 584 844 619 824 q 524 892 549 864 q 499 943 499 921 q 517 1015 499 979 q 564 1067 536 1051 q 606 1074 582 1074 q 701 1052 653 1074 q 761 999 750 1031 q 764 979 764 988 q 745 913 764 950 q 699 849 726 875 q 644 824 671 824 m 221 0 q 142 27 185 0 q 71 90 100 54 q 42 147 42 125 q 55 211 42 169 q 83 294 68 253 q 101 347 97 336 q 134 439 119 396 q 149 497 149 482 q 135 522 149 508 q 96 554 122 535 q 51 592 65 578 q 36 621 36 606 q 63 689 36 650 q 127 756 90 728 q 190 783 164 783 q 258 757 219 783 q 324 697 296 731 q 353 644 353 663 q 324 438 353 558 q 249 197 294 317 q 413 367 340 274 q 514 533 485 460 q 535 685 517 624 q 579 746 554 746 q 659 720 615 746 q 733 660 703 694 q 764 607 764 626 q 738 498 763 578 q 668 293 713 418 q 638 204 642 215 q 710 242 678 222 q 779 293 743 263 q 870 235 840 272 q 900 151 900 199 q 853 83 900 118 q 740 24 806 47 q 629 0 675 0 q 560 24 600 0 q 488 80 519 49 q 457 126 457 111 q 467 164 457 142 q 491 212 478 186 q 511 249 504 238 l 476 268 q 345 64 400 128 q 221 0 290 0 z "},"ý":{"ha":790,"x_min":36,"x_max":750,"o":"m 450 1146 q 549 1169 497 1169 q 647 1139 607 1169 q 689 1057 688 1108 q 483 821 600 933 q 460 819 475 819 q 398 837 424 819 q 365 889 372 854 q 408 951 389 919 q 433 994 426 983 q 450 1146 444 1067 m 522 222 q 343 99 436 153 q 200 44 250 44 q 145 67 179 44 q 85 122 111 90 q 60 181 60 154 q 72 246 60 206 q 110 363 83 286 q 149 497 149 471 q 135 522 149 508 q 96 554 122 535 q 51 592 65 578 q 36 621 36 606 q 63 689 36 650 q 127 756 90 728 q 190 783 164 783 q 258 757 219 783 q 324 697 296 731 q 353 644 353 663 q 331 459 353 567 q 269 239 310 351 q 494 389 382 297 q 529 656 513 567 q 576 746 546 746 q 640 717 597 746 q 716 653 682 689 q 750 599 750 618 q 707 334 750 569 q 617 -119 664 99 q 549 -369 569 -336 q 449 -457 518 -419 q 314 -494 379 -494 q 195 -457 258 -494 q 90 -365 132 -419 q 47 -264 47 -310 q 186 -85 47 -203 q 547 185 325 32 l 522 222 m 500 -4 q 256 -271 256 -196 q 283 -319 256 -297 q 353 -349 311 -342 q 430 -208 399 -283 q 500 -4 461 -132 z "},"þ":{"ha":776,"x_min":-107,"x_max":742,"o":"m 472 736 q 610 707 549 735 q 706 631 671 679 q 742 521 742 582 q 679 292 742 415 q 512 85 617 169 q 289 0 407 0 q 171 40 229 0 q 133 -190 151 -37 q 111 -328 121 -287 q 79 -368 101 -368 q -1 -344 43 -368 q -76 -288 -44 -321 q -107 -232 -107 -256 q -88 -134 -107 -208 q -28 89 -69 -60 q 68 446 42 338 q 135 772 107 606 q 164 1007 163 939 q 184 1056 165 1036 q 229 1076 203 1076 q 313 1048 267 1076 q 392 981 360 1019 q 425 917 425 943 q 363 692 424 850 l 472 736 m 289 175 q 391 233 339 175 q 477 372 443 292 q 511 511 511 453 q 486 543 511 526 q 427 572 461 560 q 367 583 393 583 q 342 578 351 583 q 299 513 319 565 q 265 393 278 461 q 251 269 251 325 q 260 201 251 226 q 289 175 269 175 z "},"ÿ":{"ha":790,"x_min":36,"x_max":754,"o":"m 301 824 q 241 844 276 824 q 181 892 206 864 q 156 943 156 921 q 174 1015 156 979 q 221 1067 193 1051 q 263 1074 239 1074 q 358 1052 310 1074 q 418 999 407 1031 q 421 979 421 988 q 402 913 421 950 q 356 849 383 875 q 301 824 328 824 m 635 824 q 574 844 610 824 q 514 892 539 864 q 489 943 489 921 q 508 1015 489 979 q 554 1067 526 1051 q 596 1074 572 1074 q 692 1052 643 1074 q 751 999 740 1031 q 754 979 754 988 q 735 913 754 950 q 689 849 717 875 q 635 824 661 824 m 522 222 q 343 99 436 153 q 200 44 250 44 q 145 67 179 44 q 85 122 111 90 q 60 181 60 154 q 72 246 60 206 q 110 363 83 286 q 149 497 149 471 q 135 522 149 508 q 96 554 122 535 q 51 592 65 578 q 36 621 36 606 q 63 689 36 650 q 127 756 90 728 q 190 783 164 783 q 258 757 219 783 q 324 697 296 731 q 353 644 353 663 q 331 459 353 567 q 269 239 310 351 q 494 389 382 297 q 529 656 513 567 q 576 746 546 746 q 640 717 597 746 q 716 653 682 689 q 750 599 750 618 q 707 334 750 569 q 617 -119 664 99 q 549 -369 569 -336 q 449 -457 518 -419 q 314 -494 379 -494 q 195 -457 258 -494 q 90 -365 132 -419 q 47 -264 47 -310 q 186 -85 47 -203 q 547 185 325 32 l 522 222 m 500 -4 q 256 -271 256 -196 q 283 -319 256 -297 q 353 -349 311 -342 q 430 -208 399 -283 q 500 -4 461 -132 z "},"Ā":{"ha":772,"x_min":-37,"x_max":800,"o":"m 747 1221 q 800 1133 800 1186 q 788 1086 800 1108 q 756 1047 776 1064 q 258 1028 444 1038 q 215 1064 231 1040 q 200 1114 200 1088 q 239 1200 200 1161 q 515 1203 404 1200 q 747 1221 626 1207 m 615 856 q 642 693 625 817 q 668 454 658 569 l 679 346 q 690 234 681 324 q 699 85 699 144 q 681 1 699 7 q 663 0 675 0 q 587 15 632 0 q 506 51 542 29 q 465 94 471 74 q 460 269 460 115 q 263 247 310 251 q 176 7 225 138 q 107 -1 139 -1 q 13 26 51 -1 q -37 108 -25 53 l -10 171 q 255 742 143 511 q 400 972 367 972 q 477 953 426 972 q 569 906 528 933 q 615 856 610 878 m 456 756 q 335 446 394 611 q 461 458 399 450 q 456 756 461 650 z "},"ā":{"ha":972,"x_min":19,"x_max":928,"o":"m 276 833 q 233 869 249 846 q 218 919 218 893 q 257 1006 218 967 q 533 1009 422 1006 q 765 1026 644 1013 q 818 939 818 992 q 806 892 818 914 q 774 853 794 869 q 276 833 463 843 m 664 204 q 807 293 749 246 q 898 235 868 272 q 928 151 928 199 q 881 83 928 118 q 768 24 833 47 q 657 0 703 0 q 584 24 625 0 q 513 79 543 47 q 483 129 483 111 q 495 167 483 143 q 521 215 507 190 q 539 249 535 240 l 504 268 q 363 74 431 147 q 231 0 296 0 q 137 39 186 0 q 53 133 88 78 q 19 232 19 189 q 71 485 19 356 q 215 699 122 614 q 424 783 307 783 q 508 746 465 783 q 564 669 551 708 q 584 723 571 700 q 613 746 597 746 q 692 720 649 746 q 767 660 736 694 q 797 607 797 626 q 776 519 796 581 q 711 333 756 458 q 664 204 685 265 m 238 193 q 433 365 350 263 q 547 590 517 467 q 476 607 510 607 q 360 549 411 607 q 278 396 308 490 q 238 193 247 301 z "},"Ă":{"ha":772,"x_min":-37,"x_max":794,"o":"m 621 1290 q 683 1303 651 1303 q 764 1272 733 1303 q 792 1183 794 1240 q 664 1068 747 1118 q 490 1018 581 1018 q 392 1051 438 1018 q 314 1135 346 1083 q 269 1242 282 1186 q 297 1274 276 1261 q 339 1288 317 1288 q 372 1278 357 1288 q 475 1133 407 1181 q 561 1195 529 1160 q 621 1290 593 1231 m 615 856 q 642 693 625 817 q 668 454 658 569 l 679 346 q 690 234 681 324 q 699 85 699 144 q 681 1 699 7 q 663 0 675 0 q 587 15 632 0 q 506 51 542 29 q 465 94 471 74 q 460 269 460 115 q 263 247 310 251 q 176 7 225 138 q 107 -1 139 -1 q 13 26 51 -1 q -37 108 -25 53 l -10 171 q 255 742 143 511 q 400 972 367 972 q 477 953 426 972 q 569 906 528 933 q 615 856 610 878 m 456 756 q 335 446 394 611 q 461 458 399 450 q 456 756 461 650 z "},"ă":{"ha":972,"x_min":19,"x_max":928,"o":"m 508 824 q 410 856 456 824 q 332 940 364 889 q 288 1047 300 992 q 315 1080 294 1067 q 357 1093 335 1093 q 390 1083 375 1093 q 493 939 425 986 q 579 1001 547 965 q 639 1096 611 1036 q 701 1108 671 1108 q 782 1077 751 1108 q 810 989 813 1046 q 682 874 765 924 q 508 824 599 824 m 664 204 q 807 293 749 246 q 898 235 868 272 q 928 151 928 199 q 881 83 928 118 q 768 24 833 47 q 657 0 703 0 q 584 24 625 0 q 513 79 543 47 q 483 129 483 111 q 495 167 483 143 q 521 215 507 190 q 539 249 535 240 l 504 268 q 363 74 431 147 q 231 0 296 0 q 137 39 186 0 q 53 133 88 78 q 19 232 19 189 q 71 485 19 356 q 215 699 122 614 q 424 783 307 783 q 508 746 465 783 q 564 669 551 708 q 584 723 571 700 q 613 746 597 746 q 692 720 649 746 q 767 660 736 694 q 797 607 797 626 q 776 519 796 581 q 711 333 756 458 q 664 204 685 265 m 238 193 q 433 365 350 263 q 547 590 517 467 q 476 607 510 607 q 360 549 411 607 q 278 396 308 490 q 238 193 247 301 z "},"Ą":{"ha":772,"x_min":-37,"x_max":764,"o":"m 707 -154 q 749 -172 735 -157 q 764 -211 764 -187 q 760 -237 764 -224 q 638 -319 711 -290 q 489 -349 565 -349 q 335 -302 394 -349 q 276 -181 276 -256 q 336 -42 276 -104 q 507 51 396 19 q 465 94 472 74 q 460 269 460 115 q 263 247 310 251 q 176 7 225 138 q 107 -1 139 -1 q 13 26 51 -1 q -37 108 -25 53 l -10 171 q 255 742 143 511 q 400 972 367 972 q 477 953 426 972 q 569 906 528 933 q 615 856 610 878 q 642 693 625 817 q 668 454 658 569 l 679 346 q 690 233 682 322 q 699 88 699 144 q 681 1 699 8 q 540 -77 594 -32 q 461 -186 486 -122 q 546 -193 499 -193 q 707 -154 633 -193 m 456 756 q 335 446 394 611 q 461 458 399 450 q 456 756 461 650 z "},"ą":{"ha":972,"x_min":19,"x_max":928,"o":"m 628 -312 q 481 -266 538 -312 q 425 -144 425 -219 q 464 -47 425 -97 q 568 40 503 3 q 508 85 532 60 q 483 129 483 111 q 495 167 483 143 q 521 215 507 190 q 539 249 535 240 l 504 268 q 363 74 431 147 q 231 0 296 0 q 137 39 186 0 q 53 133 88 78 q 19 232 19 189 q 71 485 19 356 q 215 699 122 614 q 424 783 307 783 q 508 746 465 783 q 564 669 551 708 q 584 723 571 700 q 613 746 597 746 q 692 720 649 746 q 767 660 736 694 q 797 607 797 626 q 776 519 796 581 q 711 333 756 458 q 664 204 685 265 q 807 293 749 246 q 898 235 868 272 q 928 151 928 199 q 808 40 928 99 q 684 -44 732 3 q 603 -157 636 -90 q 667 -161 636 -161 q 760 -151 718 -161 q 843 -118 801 -140 q 885 -136 871 -121 q 900 -175 900 -151 q 896 -201 900 -187 q 781 -282 854 -251 q 628 -312 707 -312 m 238 193 q 433 365 350 263 q 547 590 517 467 q 476 607 510 607 q 360 549 411 607 q 278 396 308 490 q 238 193 247 301 z "},"Ć":{"ha":760,"x_min":26,"x_max":739,"o":"m 465 1340 q 564 1364 513 1364 q 663 1333 622 1364 q 704 1251 703 1303 q 499 1015 615 1128 q 475 1014 490 1014 q 413 1031 439 1014 q 381 1083 388 1049 q 423 1146 404 1114 q 449 1189 442 1178 q 465 1340 460 1261 m 672 135 q 580 72 643 106 q 442 16 517 39 q 304 -7 368 -7 q 189 38 256 -7 q 74 146 122 83 q 26 257 26 208 q 77 576 28 406 q 226 867 126 747 q 465 986 325 986 q 602 944 539 986 q 701 842 665 903 q 738 726 738 781 q 699 640 739 669 q 597 610 658 610 q 508 626 553 610 q 510 697 510 651 q 501 774 510 749 q 469 799 493 799 q 373 701 422 799 q 290 463 324 604 q 253 203 256 321 q 422 258 344 219 q 557 346 499 296 q 653 290 619 331 q 688 199 688 249 q 672 135 688 168 z "}}}
